<svg width="510" height="25" viewBox="0 0 510 25" fill="none" xmlns="http://www.w3.org/2000/svg">
<path d="M497.961 11.0996H3.52148V12.9096H497.961V11.0996Z" fill="#F09D51"/>
<path d="M254.18 5.27002L250.74 0L247.3 5.27002C246.57 6.38002 246.71 7.86 247.63 8.81L250.74 12.01L253.85 8.81C254.77 7.86 254.91 6.38002 254.18 5.27002Z" fill="#F09D51"/>
<path d="M247.3 18.74L250.74 24.01L254.18 18.74C254.91 17.63 254.77 16.15 253.85 15.2L250.74 12L247.63 15.2C246.71 16.15 246.57 17.63 247.3 18.74Z" fill="#F09D51"/>
<path d="M238.331 6.30976L233.421 11.3598L230.871 8.72975C230.291 8.12975 229.471 8.1998 228.951 8.9098C228.011 10.1898 228.911 12.0098 230.481 12.0098C228.911 12.0098 228.011 13.8298 228.951 15.1098C229.471 15.8098 230.291 15.8898 230.871 15.2898L233.421 12.6598L238.331 17.7098C239.591 19.0098 241.591 19.1498 243.011 18.0398L250.741 12.0098L243.011 5.97975C241.591 4.86975 239.591 5.00976 238.331 6.30976Z" fill="#F09D51"/>
<path d="M271.01 11.9998C272.69 11.9998 273.54 9.9398 272.36 8.7198C271.78 8.1198 270.96 8.18979 270.44 8.89979L268.39 11.6998L263.15 6.30976C261.89 5.00976 259.89 4.86975 258.47 5.97975L250.74 12.0098L258.47 18.0398C259.89 19.1498 261.89 19.0098 263.15 17.7098L268.39 12.3198L270.44 15.1198C270.96 15.8198 271.78 15.8998 272.36 15.2998C273.55 14.0598 272.7 11.9998 271.01 11.9998Z" fill="#F09D51"/>
<path d="M315.782 8.70013L314.092 6.12012L312.402 8.70013C312.042 9.25013 312.112 9.97012 312.562 10.4401L314.082 12.0101L315.602 10.4401C316.072 9.97012 316.132 9.24013 315.782 8.70013Z" fill="#F09D51"/>
<path d="M312.402 15.31L314.092 17.89L315.782 15.31C316.142 14.76 316.072 14.04 315.622 13.57L314.102 12L312.582 13.57C312.112 14.04 312.042 14.76 312.402 15.31Z" fill="#F09D51"/>
<path d="M320.182 9.21012C319.562 8.57012 318.582 8.50008 317.892 9.05008L314.092 12.0101L317.892 14.9701C318.592 15.5101 319.572 15.4401 320.182 14.8101L322.902 12.0201L320.182 9.21012Z" fill="#F09D51"/>
<path d="M308.001 9.2098L305.281 12.0098L308.001 14.7998C308.621 15.4398 309.601 15.5098 310.291 14.9598L314.091 11.9998L310.291 9.03981C309.601 8.49981 308.621 8.5698 308.001 9.2098Z" fill="#F09D51"/>
<path d="M189.083 8.70013L187.393 6.12012L185.703 8.70013C185.343 9.25013 185.413 9.97012 185.863 10.4401L187.383 12.0101L188.903 10.4401C189.373 9.97012 189.443 9.24013 189.083 8.70013Z" fill="#F09D51"/>
<path d="M185.701 15.31L187.391 17.89L189.081 15.31C189.441 14.76 189.371 14.04 188.921 13.57L187.401 12L185.881 13.57C185.421 14.04 185.351 14.76 185.701 15.31Z" fill="#F09D51"/>
<path d="M191.193 9.05014L187.393 12.0102L191.193 14.9702C191.893 15.5102 192.873 15.4402 193.483 14.8102L196.203 12.0202L193.483 9.22018C192.863 8.57018 191.883 8.50014 191.193 9.05014Z" fill="#F09D51"/>
<path d="M181.302 9.2098L178.582 12.0098L181.302 14.7998C181.922 15.4398 182.902 15.5098 183.592 14.9598L187.392 11.9998L183.592 9.03981C182.902 8.49981 181.922 8.5698 181.302 9.2098Z" fill="#F09D51"/>
<path d="M499.1 12.3202L503.97 5.69018C505.08 4.18018 506.83 4.02018 508.08 5.31018C510.61 7.92018 508.79 12.3302 505.18 12.3302H499.1V12.3202Z" fill="#F09D51"/>
<path d="M499.1 12.3206L503.97 18.9506C505.08 20.4606 506.83 20.6206 508.08 19.3306C510.61 16.7206 508.79 12.3105 505.18 12.3105H499.1V12.3206Z" fill="#F09D51"/>
<path d="M10.9005 12.3202L6.03052 5.69018C4.92052 4.18018 3.17052 4.02018 1.92052 5.31018C-0.609479 7.92018 1.21052 12.3302 4.82052 12.3302H10.9005V12.3202Z" fill="#F09D51"/>
<path d="M10.9005 12.3206L6.03052 18.9506C4.92052 20.4606 3.17052 20.6206 1.92052 19.3306C-0.609479 16.7206 1.21052 12.3105 4.82052 12.3105H10.9005V12.3206Z" fill="#F09D51"/>
</svg>
