<svg width="40" height="41" viewBox="0 0 40 41" fill="none" xmlns="http://www.w3.org/2000/svg">
<path d="M24.9592 5.28188L26.5592 2.39521C26.5797 2.35822 26.5926 2.31756 26.5974 2.27556C26.6021 2.23355 26.5986 2.19102 26.5869 2.1504C26.5752 2.10977 26.5556 2.07185 26.5293 2.03879C26.5029 2.00572 26.4703 1.97817 26.4334 1.95771C26.3964 1.93725 26.3557 1.92427 26.3137 1.91952C26.2717 1.91476 26.2292 1.91833 26.1885 1.93002C26.1479 1.9417 26.11 1.96127 26.0769 1.98762C26.0439 2.01396 26.0163 2.04655 25.9959 2.08354L24.3792 5.00021C22.9991 4.39513 21.5086 4.08272 20.0017 4.08272C18.4948 4.08272 17.0043 4.39513 15.6242 5.00021L14.0075 2.08354C13.9662 2.0084 13.8967 1.95275 13.8143 1.92884C13.732 1.90493 13.6435 1.91471 13.5684 1.95604C13.4932 1.99737 13.4376 2.06686 13.4137 2.14922C13.3897 2.23158 13.3995 2.32007 13.4409 2.39521L15.0409 5.28188C13.5185 6.03269 12.2323 7.18821 11.3233 8.62172C10.4142 10.0552 9.91751 11.7114 9.88753 13.4085H30.1159C30.0856 11.711 29.5883 10.0546 28.6787 8.6211C27.7691 7.18755 26.4822 6.03223 24.9592 5.28188ZM15.3342 9.70688C15.167 9.70688 15.0036 9.65728 14.8646 9.56435C14.7256 9.47143 14.6173 9.33936 14.5534 9.18486C14.4894 9.03036 14.4728 8.86037 14.5056 8.69641C14.5383 8.53245 14.6189 8.38189 14.7373 8.26378C14.8556 8.14567 15.0063 8.06533 15.1704 8.03291C15.3344 8.00049 15.5043 8.01747 15.6587 8.08168C15.8131 8.14589 15.9449 8.25445 16.0376 8.39363C16.1302 8.53281 16.1795 8.69635 16.1792 8.86354C16.1788 9.08736 16.0895 9.30186 15.9311 9.45997C15.7727 9.61808 15.558 9.70688 15.3342 9.70688ZM24.6709 9.70688C24.5037 9.70688 24.3402 9.65728 24.2012 9.56435C24.0622 9.47143 23.9539 9.33936 23.89 9.18486C23.8261 9.03036 23.8095 8.86037 23.8422 8.69641C23.875 8.53245 23.9556 8.38189 24.0739 8.26378C24.1923 8.14567 24.343 8.06533 24.507 8.03291C24.6711 8.00049 24.841 8.01747 24.9954 8.08168C25.1498 8.14589 25.2816 8.25445 25.3743 8.39363C25.4669 8.53281 25.5162 8.69635 25.5159 8.86354C25.5154 9.08736 25.4262 9.30186 25.2678 9.45997C25.1094 9.61808 24.8947 9.70688 24.6709 9.70688ZM9.88419 28.8685C9.88375 29.1903 9.94684 29.509 10.0698 29.8064C10.1928 30.1037 10.3733 30.3739 10.6009 30.6013C10.8285 30.8288 11.0988 31.0091 11.3962 31.1319C11.6937 31.2547 12.0124 31.3175 12.3342 31.3169H13.9559V36.3169C13.9559 36.9183 14.1948 37.495 14.62 37.9202C15.0452 38.3455 15.622 38.5844 16.2234 38.5844C16.8247 38.5844 17.4015 38.3455 17.8267 37.9202C18.252 37.495 18.4909 36.9183 18.4909 36.3169V31.3169H21.5142V36.3169C21.5142 36.918 21.753 37.4946 22.1781 37.9197C22.6032 38.3447 23.1797 38.5835 23.7809 38.5835C24.382 38.5835 24.9586 38.3447 25.3836 37.9197C25.8087 37.4946 26.0475 36.918 26.0475 36.3169V31.3169H27.6709C27.9922 31.3171 28.3105 31.254 28.6074 31.1311C28.9044 31.0082 29.1742 30.828 29.4014 30.6008C29.6286 30.3735 29.8089 30.1037 29.9317 29.8068C30.0546 29.5098 30.1177 29.1916 30.1175 28.8702V14.2085H9.88419V28.8685ZM6.77253 13.8185C6.17135 13.8194 5.59508 14.0587 5.17014 14.484C4.7452 14.9092 4.5063 15.4857 4.50586 16.0869V25.5352C4.50586 25.8329 4.56449 26.1276 4.6784 26.4026C4.79231 26.6776 4.95927 26.9275 5.16975 27.138C5.38023 27.3485 5.63011 27.5154 5.90511 27.6293C6.18011 27.7432 6.47486 27.8019 6.77253 27.8019C7.07019 27.8019 7.36494 27.7432 7.63994 27.6293C7.91495 27.5154 8.16482 27.3485 8.3753 27.138C8.58578 26.9275 8.75274 26.6776 8.86665 26.4026C8.98056 26.1276 9.03919 25.8329 9.03919 25.5352V16.0869C9.03831 15.486 8.79922 14.91 8.37433 14.4851C7.94944 14.0602 7.37341 13.8211 6.77253 13.8202V13.8185ZM33.2259 13.8185C32.6247 13.8194 32.0484 14.0587 31.6235 14.484C31.1985 14.9092 30.9596 15.4857 30.9592 16.0869V25.5352C30.9592 25.8329 31.0178 26.1276 31.1317 26.4026C31.2456 26.6776 31.4126 26.9275 31.6231 27.138C31.8336 27.3485 32.0834 27.5154 32.3584 27.6293C32.6335 27.7432 32.9282 27.8019 33.2259 27.8019C33.5235 27.8019 33.8183 27.7432 34.0933 27.6293C34.3683 27.5154 34.6182 27.3485 34.8286 27.138C35.0391 26.9275 35.2061 26.6776 35.32 26.4026C35.4339 26.1276 35.4925 25.8329 35.4925 25.5352V16.0869C35.4916 15.486 35.2526 14.91 34.8277 14.4851C34.4028 14.0602 33.8267 13.8211 33.2259 13.8202V13.8185Z" fill="#F5F5F5"/>
</svg>
