<svg width="40" height="41" viewBox="0 0 40 41" fill="none" xmlns="http://www.w3.org/2000/svg">
<g clip-path="url(#clip0_204_358)">
<path d="M29.9957 35.4456C28.0573 37.3805 25.9409 37.075 23.9036 36.1584C21.7476 35.2215 19.7696 35.1808 17.495 36.1584C14.6467 37.4212 13.1435 37.0546 11.4424 35.4456C1.78991 25.2006 3.21405 9.59882 14.172 9.02852C16.8423 9.1711 18.7015 10.5357 20.2641 10.6579C22.5981 10.1691 24.8332 8.76374 27.3255 8.94705C30.3122 9.19146 32.5671 10.4135 34.0506 12.6133C27.8793 16.422 29.343 24.7932 35 27.1355C33.8726 30.1907 32.4089 33.2255 29.976 35.4659L29.9957 35.4456ZM20.0663 8.90632C19.7696 4.3643 23.3498 0.61662 27.4639 0.25C28.0376 5.50489 22.8355 9.41551 20.0663 8.90632Z" fill="white"/>
</g>
<defs>
<clipPath id="clip0_204_358">
<rect width="40" height="40" fill="white" transform="translate(0 0.25)"/>
</clipPath>
</defs>
</svg>
