<svg width="83" height="83" viewBox="0 0 83 83" fill="none" xmlns="http://www.w3.org/2000/svg">
<path d="M69.2689 67.0194L43.7495 41.5L69.2689 15.9806C73.1399 14.739 79.5526 12.1243 82.4887 7.742C82.6932 7.44985 82.8685 7.14309 83 6.82173C81.2471 6.86555 79.4649 6.22281 78.121 4.87892C76.7772 3.53503 76.1344 1.76751 76.1783 0C75.8569 0.131468 75.5501 0.306767 75.258 0.511272C70.8757 3.44739 68.2464 9.87469 67.0194 13.7311L41.5 39.2504L15.9806 13.7311C14.739 9.86009 12.1242 3.44739 7.74197 0.511272C7.44982 0.306767 7.14306 0.131468 6.82169 0C6.86551 1.7529 6.2228 3.53503 4.87891 4.87892C3.53502 6.22281 1.76751 6.86555 0 6.82173C0.131468 7.14309 0.306767 7.44985 0.511272 7.742C3.44739 12.1243 9.87468 14.7536 13.7311 15.9806L39.2504 41.5L13.7311 67.0194C9.86007 68.261 3.44739 70.8757 0.511272 75.258C0.306767 75.5502 0.131468 75.8569 0 76.1783C1.7529 76.1345 3.53502 76.7772 4.87891 78.1211C6.2228 79.465 6.86551 81.2325 6.82169 83C7.14306 82.8685 7.44982 82.6932 7.74197 82.4887C12.1242 79.5526 14.739 73.1253 15.9806 69.2689L41.5 43.7496L67.0194 69.2689C68.261 73.1399 70.8757 79.5526 75.258 82.4887C75.5501 82.6932 75.8569 82.8685 76.1783 83C76.1344 81.2471 76.7772 79.465 78.121 78.1211C79.4649 76.7772 81.2325 76.1345 83 76.1783C82.8685 75.8569 82.6932 75.5502 82.4887 75.258C79.5526 70.8904 73.1399 68.261 69.2689 67.0194Z" fill="#F09D51"/>
</svg>
