<svg width="359" height="243" viewBox="0 0 359 243" fill="none" xmlns="http://www.w3.org/2000/svg">
<path d="M359 120.434C359 96.2988 339.503 76.7365 315.453 76.7365C308.138 76.7365 301.256 78.567 295.203 81.7652C294.478 58.8573 275.79 40.4993 252.787 40.4993C245.662 40.4993 238.957 42.2791 233.058 45.3922C225.132 19.1249 200.828 0 172.065 0C141.409 0 115.819 21.722 109.723 50.6626C102.749 45.6292 94.217 42.6314 84.9695 42.6314C61.5064 42.6314 42.4852 61.717 42.4852 85.2627C42.4852 93.0338 44.5907 100.296 48.2091 106.57C45.3417 105.9 42.3686 105.514 39.2987 105.514C17.5939 105.514 0 123.167 0 144.947C0 166.726 17.5939 184.382 39.2987 184.382C44.4186 184.382 49.2965 183.369 53.7818 181.582C58.4093 216.288 86.7693 243 121.083 243C145.597 243 167.074 229.364 179.034 208.923C185.057 216.677 194.433 221.686 204.99 221.686C212.693 221.686 219.761 219.01 225.369 214.564C234.907 225.457 248.884 232.342 264.471 232.342C293.213 232.342 316.513 208.962 316.513 180.118C316.513 174.514 315.625 169.119 313.996 164.058C314.484 164.074 314.962 164.131 315.453 164.131C339.503 164.131 359 144.567 359 120.434Z" fill="white" fill-opacity="0.4"/>
</svg>
