<svg width="378" height="192" viewBox="0 0 378 192" fill="none" xmlns="http://www.w3.org/2000/svg">
<path d="M344.133 68.5068C341.172 68.5068 338.317 68.9258 335.579 69.6425C330.924 41.1859 306.087 19.4636 276.129 19.4636C258.978 19.4636 243.514 26.5916 232.543 38.0175C224.839 29.5708 213.779 24.2386 201.445 24.2386C193.477 24.2386 186.052 26.4903 179.697 30.3351C167.504 12.0042 147.239 0 124.282 0C92.1649 0 65.3035 23.4904 58.4771 54.9511C55.1617 54.2307 51.7266 53.8396 48.1971 53.8396C21.5775 53.8396 0 75.419 0 102.038C0 128.654 21.5775 150.232 48.1971 150.232C54.1855 150.232 59.9114 149.134 65.1999 147.14C65.2736 171.927 87.5947 192 115.126 192C133.46 192 149.477 183.093 158.161 169.824C168.672 179.997 182.72 186.217 198.164 186.217C217.778 186.217 235.145 176.182 245.864 160.756C254.196 170.435 266.258 176.522 279.683 176.522C304.323 176.522 324.374 156.025 325.161 130.43C330.572 134.1 337.101 136.241 344.133 136.241C362.837 136.241 378 121.078 378 102.374C378 83.6705 362.837 68.5068 344.133 68.5068Z" fill="white" fill-opacity="0.4"/>
</svg>
