<svg width="422" height="267" viewBox="0 0 422 267" fill="none" xmlns="http://www.w3.org/2000/svg">
<path d="M417.586 150.41C408.962 132.349 387.461 121.057 367.776 125.08C367.43 104.522 355.383 84.5484 337.311 74.5752C319.838 64.9317 297.39 65.0246 279.911 74.6141C280.191 71.0229 280.203 67.3627 279.902 63.6546C276.841 25.5753 243.329 -2.82443 205.053 0.224182C174.549 2.65228 150.242 24.3284 143.173 52.3025C127.3 44.4187 109.707 44.3048 96.657 53.7444C87.5966 60.2973 82.2634 70.3425 80.7207 81.7066C75.0501 79.8301 68.9154 79.0267 62.5819 79.5303C37.332 81.5417 18.4971 103.542 20.5159 128.665C21.0763 135.611 23.2126 142.035 26.4818 147.703C9.36137 157.583 -1.51295 176.595 0.171376 197.533C2.50653 226.584 28.0727 248.248 57.2757 245.924C68.4755 245.031 78.5663 240.718 86.6414 234.123C95.3162 241.287 105.419 246.269 115.781 248.17C135.336 251.758 155.94 250.118 174.44 242.984C184.558 260.34 208.389 270.259 233.943 266.027C252.248 262.996 267.31 253.359 275.852 240.915C278.718 237.963 281.273 234.722 283.473 231.251C292.458 239.057 304.462 243.409 317.295 242.387C332.791 241.152 345.844 232.375 353.172 219.983C372.193 225.313 394.087 220.07 407.832 205.942C421.81 191.574 426.203 168.471 417.586 150.41Z" fill="white" fill-opacity="0.4"/>
</svg>
