<svg width="364" height="225" viewBox="0 0 364 225" fill="none" xmlns="http://www.w3.org/2000/svg">
<path d="M318.645 87.0504C319.045 84.5696 319.263 82.036 319.263 79.4543C319.263 50.6537 295.406 25.1847 263.349 25.1847C247.099 25.1847 232.415 33.3152 221.88 42.9841C215.7 19.4342 195.068 0 170.548 0C143.605 0 121.351 20.9039 117.82 48.0215C112.668 45.7883 107.025 44.541 101.1 44.541C81.6067 44.541 67.2373 62.1386 61.6412 80.5571C59.2336 80.2155 56.7754 80.0298 54.2742 80.0298C25.4753 80.0298 0 99.0673 0 127.79C0 156.51 23.3468 179.794 52.1459 179.794C58.8356 179.794 65.2246 178.524 71.1018 176.236C75.0678 195.585 92.232 210.14 112.806 210.14C123.172 210.14 132.668 206.437 140.05 200.295C150.426 215.219 167.713 225 187.301 225C208.118 225 226.352 213.958 236.433 197.428C245.402 205.334 257.183 210.14 270.092 210.14C293.87 210.14 309.432 191.795 315.008 169.811C315.316 169.816 361.831 174.055 363.96 128.418C365.073 104.561 342.535 87.2912 318.645 87.0504Z" fill="white" fill-opacity="0.4"/>
</svg>
