<svg width="1037" height="151" viewBox="0 0 1037 151" fill="none" xmlns="http://www.w3.org/2000/svg">
<mask id="path-1-outside-1_247_226" maskUnits="userSpaceOnUse" x="10" y="13" width="1016" height="120" fill="black">
<rect fill="white" x="10" y="13" width="1016" height="120"/>
<path d="M59.48 111.92C59.48 112.96 57.04 113.8 52.16 114.44C47.36 115.08 42.48 115.4 37.52 115.4C32.64 115.4 29.48 115.12 28.04 114.56C26.68 114 26 113.12 26 111.92V38.12C26 36.12 28.32 34.32 32.96 32.72C37.6 31.04 42.64 30.2 48.08 30.2C55.68 30.2 59.48 32 59.48 35.6V62H70.16V38.12C70.16 36.12 72.48 34.32 77.12 32.72C81.84 31.04 86.92 30.2 92.36 30.2C99.88 30.2 103.64 32 103.64 35.6V111.92C103.64 112.96 101.2 113.8 96.32 114.44C91.44 115.08 86.56 115.4 81.68 115.4C76.8 115.4 73.64 115.12 72.2 114.56C70.84 114 70.16 113.12 70.16 111.92V84.44H59.48V111.92Z"/>
<path d="M151.107 109.28C150.947 111.6 149.708 113.2 147.388 114.08C145.147 114.96 141.067 115.4 135.147 115.4C129.228 115.4 124.268 114.88 120.268 113.84C116.348 112.72 114.387 111.32 114.387 109.64C114.387 107.72 117.947 95.48 125.067 72.92C132.188 50.28 136.268 37.24 137.308 33.8C137.708 32.76 140.908 31.92 146.908 31.28C152.988 30.56 159.467 30.2 166.348 30.2C173.308 30.2 177.148 31.4 177.868 33.8C192.988 84.04 200.548 109.56 200.548 110.36C200.548 111.16 200.068 111.96 199.107 112.76C196.867 114.52 192.428 115.4 185.788 115.4C171.628 115.4 164.388 113.72 164.068 110.36L163.228 102.56H151.708L151.107 109.28ZM160.708 79.76L158.908 58.16H156.268L154.227 79.76H160.708Z"/>
<path d="M229.861 115.4C227.861 115.4 224.941 115.4 221.101 115.4C217.341 115.4 214.781 115.12 213.421 114.56C212.061 114 211.381 113.12 211.381 111.92V36.2C211.381 34.36 213.821 32.92 218.701 31.88C223.661 30.76 228.941 30.2 234.541 30.2C240.141 30.2 244.141 30.92 246.541 32.36C248.941 33.8 250.341 35.32 250.741 36.92L258.901 68.6H259.981L267.661 38.36C268.221 36.2 270.821 34.32 275.461 32.72C280.181 31.04 285.341 30.2 290.941 30.2C296.541 30.2 300.661 30.64 303.301 31.52C306.021 32.4 307.381 33.52 307.381 34.88V111.92C307.381 112.96 305.101 113.8 300.541 114.44C295.981 115.08 290.421 115.4 283.861 115.4C277.301 115.4 274.021 114.24 274.021 111.92C274.021 105.6 274.701 94.36 276.061 78.2H274.981L268.741 109.52C268.501 110.72 267.501 111.6 265.741 112.16C264.061 112.72 261.501 113 258.061 113C254.621 113 252.501 112.76 251.701 112.28C250.981 111.8 250.501 110.88 250.261 109.52L243.781 78.2H242.701C244.141 94.68 244.861 105.92 244.861 111.92C244.861 114 239.861 115.16 229.861 115.4Z"/>
<path d="M382.847 110.36C380.447 112.12 377.087 113.6 372.767 114.8C368.527 115.92 363.007 116.48 356.207 116.48C349.487 116.48 343.087 115.92 337.007 114.8C330.927 113.68 326.567 112.44 323.927 111.08C321.287 109.72 319.967 108.4 319.967 107.12C319.967 102.64 320.607 98 321.887 93.2C323.167 88.32 324.687 85.88 326.447 85.88C326.767 85.88 330.087 86.96 336.407 89.12C342.727 91.28 347.487 92.36 350.687 92.36C353.887 92.36 355.967 92.04 356.927 91.4C357.887 90.68 358.367 89.68 358.367 88.4C358.367 87.12 357.487 86 355.727 85.04C353.967 84 351.767 83.12 349.127 82.4C346.487 81.6 343.607 80.48 340.487 79.04C337.447 77.6 334.607 76 331.967 74.24C329.327 72.48 327.127 70 325.367 66.8C323.607 63.52 322.727 59.8 322.727 55.64C322.727 37.88 333.327 29 354.527 29C362.447 29 369.287 29.52 375.047 30.56C380.807 31.52 384.847 32.64 387.167 33.92C389.567 35.12 390.767 36.32 390.767 37.52C390.767 41.68 389.767 46.16 387.767 50.96C385.847 55.76 383.967 58.16 382.127 58.16C381.807 58.16 380.767 57.8 379.007 57.08C373.727 54.76 369.327 53.6 365.807 53.6C362.367 53.6 360.007 53.92 358.727 54.56C357.527 55.2 356.927 56.2 356.927 57.56C356.927 58.84 357.807 59.92 359.567 60.8C361.327 61.6 363.487 62.36 366.047 63.08C368.687 63.72 371.527 64.76 374.567 66.2C377.687 67.56 380.567 69.2 383.207 71.12C385.847 72.96 388.047 75.6 389.807 79.04C391.567 82.48 392.447 86.48 392.447 91.04C392.447 95.84 391.207 100.2 388.727 104.12C387.207 106.52 385.247 108.6 382.847 110.36Z"/>
<path d="M456.083 112.52C456.083 113.4 453.603 114.12 448.643 114.68C443.763 115.16 438.843 115.4 433.883 115.4C429.003 115.4 425.883 115.2 424.523 114.8C423.243 114.32 422.603 113.56 422.603 112.52V60.92H405.923C405.043 60.92 404.283 59.8 403.643 57.56C403.003 55.32 402.683 52 402.683 47.6C402.683 43.12 403.163 39.12 404.123 35.6C405.083 32 406.363 30.2 407.963 30.2H472.883C474.083 30.2 474.883 31.32 475.283 33.56C475.763 35.8 476.003 39.04 476.003 43.28C476.003 47.52 475.563 51.52 474.683 55.28C473.803 59.04 472.603 60.92 471.083 60.92H456.083V112.52Z"/>
<path d="M548.887 115.4H498.007C494.087 115.4 491.447 115.12 490.087 114.56C488.727 114 488.047 113.12 488.047 111.92V35.96C488.047 33.88 488.967 32.4 490.807 31.52C492.727 30.64 496.127 30.2 501.007 30.2H549.247C550.927 30.2 551.767 33 551.767 38.6C551.767 44.12 551.407 48.36 550.687 51.32C549.967 54.2 549.007 55.64 547.807 55.64C542.607 55.64 533.847 55.12 521.527 54.08V62.12C533.367 61.64 541.087 61.4 544.687 61.4C546.847 61.4 547.927 63.92 547.927 68.96C547.927 74 547.487 77.84 546.607 80.48C545.807 83.04 544.687 84.32 543.247 84.32L521.527 83.84V91.52C535.447 90.48 545.047 89.96 550.327 89.96C552.007 89.96 552.847 92.76 552.847 98.36C552.847 103.96 552.487 108.2 551.767 111.08C551.047 113.96 550.087 115.4 548.887 115.4Z"/>
<path d="M599.689 111.92C599.689 112.96 597.249 113.8 592.369 114.44C587.489 115.08 582.569 115.4 577.609 115.4C572.729 115.4 569.569 115.12 568.129 114.56C566.769 114 566.089 113.12 566.089 111.92V34.76C566.089 32.68 568.689 31.2 573.889 30.32C579.169 29.44 585.809 29 593.809 29C601.809 29 606.969 29.04 609.289 29.12C611.689 29.12 614.489 29.24 617.689 29.48C620.889 29.72 623.409 30.12 625.249 30.68C627.169 31.24 629.249 31.96 631.489 32.84C633.809 33.72 635.609 34.88 636.889 36.32C638.169 37.68 639.409 39.32 640.609 41.24C642.769 44.68 643.849 49.6 643.849 56C643.849 62.32 642.769 67.68 640.609 72.08C638.529 76.4 635.729 79.68 632.209 81.92C641.409 96.4 646.009 105.6 646.009 109.52C646.009 113.44 638.129 115.4 622.369 115.4C617.809 115.4 614.649 115.2 612.889 114.8C611.129 114.4 610.009 113.52 609.529 112.16L601.729 87.44L599.689 87.32V111.92ZM599.689 68.84H602.809C607.449 68.84 609.769 65.24 609.769 58.04C609.769 54.36 609.129 51.76 607.849 50.24C606.649 48.72 605.249 47.96 603.649 47.96H599.689V68.84Z"/>
<path d="M690.147 111.92C690.147 112.96 687.708 113.8 682.828 114.44C677.948 115.08 673.068 115.4 668.188 115.4C663.307 115.4 660.188 115.12 658.828 114.56C657.468 114 656.787 113.12 656.787 111.92V34.76C656.787 30.92 668.307 29 691.347 29C705.267 29 714.468 29.96 718.948 31.88C724.388 34.12 728.068 37.16 729.987 41C732.547 45.96 733.828 52.32 733.828 60.08C733.828 70.72 731.987 78.44 728.307 83.24C725.667 86.76 723.028 89.04 720.388 90.08C717.747 91.12 715.547 91.88 713.787 92.36C712.107 92.76 709.987 93.08 707.427 93.32C703.907 93.64 699.107 93.8 693.027 93.8L690.147 93.68V111.92ZM690.268 73.76H693.147C694.667 73.76 695.867 73.56 696.747 73.16C697.628 72.68 698.387 71.48 699.027 69.56C699.747 67.56 700.107 64.8 700.107 61.28C700.107 57.68 699.707 54.96 698.907 53.12C698.188 51.2 697.427 50.08 696.628 49.76C695.908 49.36 695.027 49.16 693.987 49.16H690.268V73.76Z"/>
<path d="M823.951 81.92C823.951 93.44 820.631 102.08 813.991 107.84C807.431 113.52 797.871 116.36 785.311 116.36C772.831 116.36 763.231 113.52 756.511 107.84C749.791 102.08 746.431 93.44 746.431 81.92V37.88C746.431 35.88 748.671 34.08 753.151 32.48C757.711 30.88 762.991 30.08 768.991 30.08C773.791 30.08 776.911 31 778.351 32.84C779.391 34.28 779.911 35.52 779.911 36.56V72.32C779.911 81.36 780.231 87.36 780.871 90.32C781.591 93.2 783.071 94.64 785.311 94.64C787.551 94.64 788.951 93.24 789.511 90.44C790.151 87.56 790.471 81.48 790.471 72.2V37.88C790.471 35.88 792.711 34.08 797.191 32.48C801.751 30.88 806.991 30.08 812.911 30.08C817.951 30.08 821.151 31 822.511 32.84C823.471 34.28 823.951 35.52 823.951 36.56V81.92Z"/>
<path d="M871.782 111.92C871.782 112.96 869.302 113.8 864.342 114.44C859.462 115.08 854.582 115.4 849.702 115.4C844.822 115.4 841.702 115.12 840.342 114.56C838.982 114 838.302 113.12 838.302 111.92V38.24C838.302 36.24 840.582 34.4 845.142 32.72C849.782 31.04 855.022 30.2 860.862 30.2C862.942 30.2 864.502 30.28 865.542 30.44C868.262 30.84 870.182 32.56 871.302 35.6L882.822 66.56H883.302V38.24C883.302 36.24 885.582 34.4 890.142 32.72C894.702 31.04 899.902 30.2 905.742 30.2C910.782 30.2 913.982 31.16 915.342 33.08C916.302 34.44 916.782 35.68 916.782 36.8V111.92C916.782 112.96 914.302 113.8 909.342 114.44C904.462 115.08 899.062 115.4 893.142 115.4C887.302 115.4 884.102 114.64 883.542 113.12L872.382 83.6H871.782V111.92Z"/>
<path d="M964.707 111.68C964.707 112.72 962.227 113.56 957.267 114.2C952.387 114.84 947.507 115.16 942.627 115.16C937.747 115.16 934.627 114.88 933.267 114.32C931.907 113.76 931.227 112.88 931.227 111.68V38.12C931.227 36.04 933.467 34.2 937.947 32.6C942.507 31 947.747 30.2 953.667 30.2C958.547 30.2 961.707 31.16 963.147 33.08C964.187 34.44 964.707 35.68 964.707 36.8V56.6H965.667C965.667 56.2 966.867 52.88 969.267 46.64C973.827 34.88 977.147 29 979.227 29C983.147 29 988.667 30.16 995.787 32.48C999.227 33.6 1002.19 35.24 1004.67 37.4C1007.15 39.48 1008.39 41.8 1008.39 44.36C1008.39 45.96 1006.75 49.08 1003.47 53.72C1000.27 58.28 995.387 64.4 988.827 72.08C990.347 73.68 992.267 75.72 994.587 78.2C996.907 80.68 999.987 84.4 1003.83 89.36C1007.75 94.24 1009.71 97.72 1009.71 99.8C1009.71 101.88 1007.83 104.32 1004.07 107.12C1000.31 109.84 996.307 112.08 992.067 113.84C987.827 115.52 984.667 116.36 982.587 116.36C981.227 116.36 979.347 114.32 976.947 110.24C974.627 106.08 971.787 99.88 968.427 91.64L964.707 96.08V111.68Z"/>
</mask>
<path d="M59.48 111.92C59.48 112.96 57.04 113.8 52.16 114.44C47.36 115.08 42.48 115.4 37.52 115.4C32.64 115.4 29.48 115.12 28.04 114.56C26.68 114 26 113.12 26 111.92V38.12C26 36.12 28.32 34.32 32.96 32.72C37.6 31.04 42.64 30.2 48.08 30.2C55.68 30.2 59.48 32 59.48 35.6V62H70.16V38.12C70.16 36.12 72.48 34.32 77.12 32.72C81.84 31.04 86.92 30.2 92.36 30.2C99.88 30.2 103.64 32 103.64 35.6V111.92C103.64 112.96 101.2 113.8 96.32 114.44C91.44 115.08 86.56 115.4 81.68 115.4C76.8 115.4 73.64 115.12 72.2 114.56C70.84 114 70.16 113.12 70.16 111.92V84.44H59.48V111.92Z" fill="#F09D51"/>
<path d="M151.107 109.28C150.947 111.6 149.708 113.2 147.388 114.08C145.147 114.96 141.067 115.4 135.147 115.4C129.228 115.4 124.268 114.88 120.268 113.84C116.348 112.72 114.387 111.32 114.387 109.64C114.387 107.72 117.947 95.48 125.067 72.92C132.188 50.28 136.268 37.24 137.308 33.8C137.708 32.76 140.908 31.92 146.908 31.28C152.988 30.56 159.467 30.2 166.348 30.2C173.308 30.2 177.148 31.4 177.868 33.8C192.988 84.04 200.548 109.56 200.548 110.36C200.548 111.16 200.068 111.96 199.107 112.76C196.867 114.52 192.428 115.4 185.788 115.4C171.628 115.4 164.388 113.72 164.068 110.36L163.228 102.56H151.708L151.107 109.28ZM160.708 79.76L158.908 58.16H156.268L154.227 79.76H160.708Z" fill="#F09D51"/>
<path d="M229.861 115.4C227.861 115.4 224.941 115.4 221.101 115.4C217.341 115.4 214.781 115.12 213.421 114.56C212.061 114 211.381 113.12 211.381 111.92V36.2C211.381 34.36 213.821 32.92 218.701 31.88C223.661 30.76 228.941 30.2 234.541 30.2C240.141 30.2 244.141 30.92 246.541 32.36C248.941 33.8 250.341 35.32 250.741 36.92L258.901 68.6H259.981L267.661 38.36C268.221 36.2 270.821 34.32 275.461 32.72C280.181 31.04 285.341 30.2 290.941 30.2C296.541 30.2 300.661 30.64 303.301 31.52C306.021 32.4 307.381 33.52 307.381 34.88V111.92C307.381 112.96 305.101 113.8 300.541 114.44C295.981 115.08 290.421 115.4 283.861 115.4C277.301 115.4 274.021 114.24 274.021 111.92C274.021 105.6 274.701 94.36 276.061 78.2H274.981L268.741 109.52C268.501 110.72 267.501 111.6 265.741 112.16C264.061 112.72 261.501 113 258.061 113C254.621 113 252.501 112.76 251.701 112.28C250.981 111.8 250.501 110.88 250.261 109.52L243.781 78.2H242.701C244.141 94.68 244.861 105.92 244.861 111.92C244.861 114 239.861 115.16 229.861 115.4Z" fill="#F09D51"/>
<path d="M382.847 110.36C380.447 112.12 377.087 113.6 372.767 114.8C368.527 115.92 363.007 116.48 356.207 116.48C349.487 116.48 343.087 115.92 337.007 114.8C330.927 113.68 326.567 112.44 323.927 111.08C321.287 109.72 319.967 108.4 319.967 107.12C319.967 102.64 320.607 98 321.887 93.2C323.167 88.32 324.687 85.88 326.447 85.88C326.767 85.88 330.087 86.96 336.407 89.12C342.727 91.28 347.487 92.36 350.687 92.36C353.887 92.36 355.967 92.04 356.927 91.4C357.887 90.68 358.367 89.68 358.367 88.4C358.367 87.12 357.487 86 355.727 85.04C353.967 84 351.767 83.12 349.127 82.4C346.487 81.6 343.607 80.48 340.487 79.04C337.447 77.6 334.607 76 331.967 74.24C329.327 72.48 327.127 70 325.367 66.8C323.607 63.52 322.727 59.8 322.727 55.64C322.727 37.88 333.327 29 354.527 29C362.447 29 369.287 29.52 375.047 30.56C380.807 31.52 384.847 32.64 387.167 33.92C389.567 35.12 390.767 36.32 390.767 37.52C390.767 41.68 389.767 46.16 387.767 50.96C385.847 55.76 383.967 58.16 382.127 58.16C381.807 58.16 380.767 57.8 379.007 57.08C373.727 54.76 369.327 53.6 365.807 53.6C362.367 53.6 360.007 53.92 358.727 54.56C357.527 55.2 356.927 56.2 356.927 57.56C356.927 58.84 357.807 59.92 359.567 60.8C361.327 61.6 363.487 62.36 366.047 63.08C368.687 63.72 371.527 64.76 374.567 66.2C377.687 67.56 380.567 69.2 383.207 71.12C385.847 72.96 388.047 75.6 389.807 79.04C391.567 82.48 392.447 86.48 392.447 91.04C392.447 95.84 391.207 100.2 388.727 104.12C387.207 106.52 385.247 108.6 382.847 110.36Z" fill="#F09D51"/>
<path d="M456.083 112.52C456.083 113.4 453.603 114.12 448.643 114.68C443.763 115.16 438.843 115.4 433.883 115.4C429.003 115.4 425.883 115.2 424.523 114.8C423.243 114.32 422.603 113.56 422.603 112.52V60.92H405.923C405.043 60.92 404.283 59.8 403.643 57.56C403.003 55.32 402.683 52 402.683 47.6C402.683 43.12 403.163 39.12 404.123 35.6C405.083 32 406.363 30.2 407.963 30.2H472.883C474.083 30.2 474.883 31.32 475.283 33.56C475.763 35.8 476.003 39.04 476.003 43.28C476.003 47.52 475.563 51.52 474.683 55.28C473.803 59.04 472.603 60.92 471.083 60.92H456.083V112.52Z" fill="#F09D51"/>
<path d="M548.887 115.4H498.007C494.087 115.4 491.447 115.12 490.087 114.56C488.727 114 488.047 113.12 488.047 111.92V35.96C488.047 33.88 488.967 32.4 490.807 31.52C492.727 30.64 496.127 30.2 501.007 30.2H549.247C550.927 30.2 551.767 33 551.767 38.6C551.767 44.12 551.407 48.36 550.687 51.32C549.967 54.2 549.007 55.64 547.807 55.64C542.607 55.64 533.847 55.12 521.527 54.08V62.12C533.367 61.64 541.087 61.4 544.687 61.4C546.847 61.4 547.927 63.92 547.927 68.96C547.927 74 547.487 77.84 546.607 80.48C545.807 83.04 544.687 84.32 543.247 84.32L521.527 83.84V91.52C535.447 90.48 545.047 89.96 550.327 89.96C552.007 89.96 552.847 92.76 552.847 98.36C552.847 103.96 552.487 108.2 551.767 111.08C551.047 113.96 550.087 115.4 548.887 115.4Z" fill="#F09D51"/>
<path d="M599.689 111.92C599.689 112.96 597.249 113.8 592.369 114.44C587.489 115.08 582.569 115.4 577.609 115.4C572.729 115.4 569.569 115.12 568.129 114.56C566.769 114 566.089 113.12 566.089 111.92V34.76C566.089 32.68 568.689 31.2 573.889 30.32C579.169 29.44 585.809 29 593.809 29C601.809 29 606.969 29.04 609.289 29.12C611.689 29.12 614.489 29.24 617.689 29.48C620.889 29.72 623.409 30.12 625.249 30.68C627.169 31.24 629.249 31.96 631.489 32.84C633.809 33.72 635.609 34.88 636.889 36.32C638.169 37.68 639.409 39.32 640.609 41.24C642.769 44.68 643.849 49.6 643.849 56C643.849 62.32 642.769 67.68 640.609 72.08C638.529 76.4 635.729 79.68 632.209 81.92C641.409 96.4 646.009 105.6 646.009 109.52C646.009 113.44 638.129 115.4 622.369 115.4C617.809 115.4 614.649 115.2 612.889 114.8C611.129 114.4 610.009 113.52 609.529 112.16L601.729 87.44L599.689 87.32V111.92ZM599.689 68.84H602.809C607.449 68.84 609.769 65.24 609.769 58.04C609.769 54.36 609.129 51.76 607.849 50.24C606.649 48.72 605.249 47.96 603.649 47.96H599.689V68.84Z" fill="#F09D51"/>
<path d="M690.147 111.92C690.147 112.96 687.708 113.8 682.828 114.44C677.948 115.08 673.068 115.4 668.188 115.4C663.307 115.4 660.188 115.12 658.828 114.56C657.468 114 656.787 113.12 656.787 111.92V34.76C656.787 30.92 668.307 29 691.347 29C705.267 29 714.468 29.96 718.948 31.88C724.388 34.12 728.068 37.16 729.987 41C732.547 45.96 733.828 52.32 733.828 60.08C733.828 70.72 731.987 78.44 728.307 83.24C725.667 86.76 723.028 89.04 720.388 90.08C717.747 91.12 715.547 91.88 713.787 92.36C712.107 92.76 709.987 93.08 707.427 93.32C703.907 93.64 699.107 93.8 693.027 93.8L690.147 93.68V111.92ZM690.268 73.76H693.147C694.667 73.76 695.867 73.56 696.747 73.16C697.628 72.68 698.387 71.48 699.027 69.56C699.747 67.56 700.107 64.8 700.107 61.28C700.107 57.68 699.707 54.96 698.907 53.12C698.188 51.2 697.427 50.08 696.628 49.76C695.908 49.36 695.027 49.16 693.987 49.16H690.268V73.76Z" fill="#F09D51"/>
<path d="M823.951 81.92C823.951 93.44 820.631 102.08 813.991 107.84C807.431 113.52 797.871 116.36 785.311 116.36C772.831 116.36 763.231 113.52 756.511 107.84C749.791 102.08 746.431 93.44 746.431 81.92V37.88C746.431 35.88 748.671 34.08 753.151 32.48C757.711 30.88 762.991 30.08 768.991 30.08C773.791 30.08 776.911 31 778.351 32.84C779.391 34.28 779.911 35.52 779.911 36.56V72.32C779.911 81.36 780.231 87.36 780.871 90.32C781.591 93.2 783.071 94.64 785.311 94.64C787.551 94.64 788.951 93.24 789.511 90.44C790.151 87.56 790.471 81.48 790.471 72.2V37.88C790.471 35.88 792.711 34.08 797.191 32.48C801.751 30.88 806.991 30.08 812.911 30.08C817.951 30.08 821.151 31 822.511 32.84C823.471 34.28 823.951 35.52 823.951 36.56V81.92Z" fill="#F09D51"/>
<path d="M871.782 111.92C871.782 112.96 869.302 113.8 864.342 114.44C859.462 115.08 854.582 115.4 849.702 115.4C844.822 115.4 841.702 115.12 840.342 114.56C838.982 114 838.302 113.12 838.302 111.92V38.24C838.302 36.24 840.582 34.4 845.142 32.72C849.782 31.04 855.022 30.2 860.862 30.2C862.942 30.2 864.502 30.28 865.542 30.44C868.262 30.84 870.182 32.56 871.302 35.6L882.822 66.56H883.302V38.24C883.302 36.24 885.582 34.4 890.142 32.72C894.702 31.04 899.902 30.2 905.742 30.2C910.782 30.2 913.982 31.16 915.342 33.08C916.302 34.44 916.782 35.68 916.782 36.8V111.92C916.782 112.96 914.302 113.8 909.342 114.44C904.462 115.08 899.062 115.4 893.142 115.4C887.302 115.4 884.102 114.64 883.542 113.12L872.382 83.6H871.782V111.92Z" fill="#F09D51"/>
<path d="M964.707 111.68C964.707 112.72 962.227 113.56 957.267 114.2C952.387 114.84 947.507 115.16 942.627 115.16C937.747 115.16 934.627 114.88 933.267 114.32C931.907 113.76 931.227 112.88 931.227 111.68V38.12C931.227 36.04 933.467 34.2 937.947 32.6C942.507 31 947.747 30.2 953.667 30.2C958.547 30.2 961.707 31.16 963.147 33.08C964.187 34.44 964.707 35.68 964.707 36.8V56.6H965.667C965.667 56.2 966.867 52.88 969.267 46.64C973.827 34.88 977.147 29 979.227 29C983.147 29 988.667 30.16 995.787 32.48C999.227 33.6 1002.19 35.24 1004.67 37.4C1007.15 39.48 1008.39 41.8 1008.39 44.36C1008.39 45.96 1006.75 49.08 1003.47 53.72C1000.27 58.28 995.387 64.4 988.827 72.08C990.347 73.68 992.267 75.72 994.587 78.2C996.907 80.68 999.987 84.4 1003.83 89.36C1007.75 94.24 1009.71 97.72 1009.71 99.8C1009.71 101.88 1007.83 104.32 1004.07 107.12C1000.31 109.84 996.307 112.08 992.067 113.84C987.827 115.52 984.667 116.36 982.587 116.36C981.227 116.36 979.347 114.32 976.947 110.24C974.627 106.08 971.787 99.88 968.427 91.64L964.707 96.08V111.68Z" fill="#F09D51"/>
<path d="M59.48 111.92C59.48 112.96 57.04 113.8 52.16 114.44C47.36 115.08 42.48 115.4 37.52 115.4C32.64 115.4 29.48 115.12 28.04 114.56C26.68 114 26 113.12 26 111.92V38.12C26 36.12 28.32 34.32 32.96 32.72C37.6 31.04 42.64 30.2 48.08 30.2C55.68 30.2 59.48 32 59.48 35.6V62H70.16V38.12C70.16 36.12 72.48 34.32 77.12 32.72C81.84 31.04 86.92 30.2 92.36 30.2C99.88 30.2 103.64 32 103.64 35.6V111.92C103.64 112.96 101.2 113.8 96.32 114.44C91.44 115.08 86.56 115.4 81.68 115.4C76.8 115.4 73.64 115.12 72.2 114.56C70.84 114 70.16 113.12 70.16 111.92V84.44H59.48V111.92Z" stroke="white" stroke-width="32" mask="url(#path-1-outside-1_247_226)"/>
<path d="M151.107 109.28C150.947 111.6 149.708 113.2 147.388 114.08C145.147 114.96 141.067 115.4 135.147 115.4C129.228 115.4 124.268 114.88 120.268 113.84C116.348 112.72 114.387 111.32 114.387 109.64C114.387 107.72 117.947 95.48 125.067 72.92C132.188 50.28 136.268 37.24 137.308 33.8C137.708 32.76 140.908 31.92 146.908 31.28C152.988 30.56 159.467 30.2 166.348 30.2C173.308 30.2 177.148 31.4 177.868 33.8C192.988 84.04 200.548 109.56 200.548 110.36C200.548 111.16 200.068 111.96 199.107 112.76C196.867 114.52 192.428 115.4 185.788 115.4C171.628 115.4 164.388 113.72 164.068 110.36L163.228 102.56H151.708L151.107 109.28ZM160.708 79.76L158.908 58.16H156.268L154.227 79.76H160.708Z" stroke="white" stroke-width="32" mask="url(#path-1-outside-1_247_226)"/>
<path d="M229.861 115.4C227.861 115.4 224.941 115.4 221.101 115.4C217.341 115.4 214.781 115.12 213.421 114.56C212.061 114 211.381 113.12 211.381 111.92V36.2C211.381 34.36 213.821 32.92 218.701 31.88C223.661 30.76 228.941 30.2 234.541 30.2C240.141 30.2 244.141 30.92 246.541 32.36C248.941 33.8 250.341 35.32 250.741 36.92L258.901 68.6H259.981L267.661 38.36C268.221 36.2 270.821 34.32 275.461 32.72C280.181 31.04 285.341 30.2 290.941 30.2C296.541 30.2 300.661 30.64 303.301 31.52C306.021 32.4 307.381 33.52 307.381 34.88V111.92C307.381 112.96 305.101 113.8 300.541 114.44C295.981 115.08 290.421 115.4 283.861 115.4C277.301 115.4 274.021 114.24 274.021 111.92C274.021 105.6 274.701 94.36 276.061 78.2H274.981L268.741 109.52C268.501 110.72 267.501 111.6 265.741 112.16C264.061 112.72 261.501 113 258.061 113C254.621 113 252.501 112.76 251.701 112.28C250.981 111.8 250.501 110.88 250.261 109.52L243.781 78.2H242.701C244.141 94.68 244.861 105.92 244.861 111.92C244.861 114 239.861 115.16 229.861 115.4Z" stroke="white" stroke-width="32" mask="url(#path-1-outside-1_247_226)"/>
<path d="M382.847 110.36C380.447 112.12 377.087 113.6 372.767 114.8C368.527 115.92 363.007 116.48 356.207 116.48C349.487 116.48 343.087 115.92 337.007 114.8C330.927 113.68 326.567 112.44 323.927 111.08C321.287 109.72 319.967 108.4 319.967 107.12C319.967 102.64 320.607 98 321.887 93.2C323.167 88.32 324.687 85.88 326.447 85.88C326.767 85.88 330.087 86.96 336.407 89.12C342.727 91.28 347.487 92.36 350.687 92.36C353.887 92.36 355.967 92.04 356.927 91.4C357.887 90.68 358.367 89.68 358.367 88.4C358.367 87.12 357.487 86 355.727 85.04C353.967 84 351.767 83.12 349.127 82.4C346.487 81.6 343.607 80.48 340.487 79.04C337.447 77.6 334.607 76 331.967 74.24C329.327 72.48 327.127 70 325.367 66.8C323.607 63.52 322.727 59.8 322.727 55.64C322.727 37.88 333.327 29 354.527 29C362.447 29 369.287 29.52 375.047 30.56C380.807 31.52 384.847 32.64 387.167 33.92C389.567 35.12 390.767 36.32 390.767 37.52C390.767 41.68 389.767 46.16 387.767 50.96C385.847 55.76 383.967 58.16 382.127 58.16C381.807 58.16 380.767 57.8 379.007 57.08C373.727 54.76 369.327 53.6 365.807 53.6C362.367 53.6 360.007 53.92 358.727 54.56C357.527 55.2 356.927 56.2 356.927 57.56C356.927 58.84 357.807 59.92 359.567 60.8C361.327 61.6 363.487 62.36 366.047 63.08C368.687 63.72 371.527 64.76 374.567 66.2C377.687 67.56 380.567 69.2 383.207 71.12C385.847 72.96 388.047 75.6 389.807 79.04C391.567 82.48 392.447 86.48 392.447 91.04C392.447 95.84 391.207 100.2 388.727 104.12C387.207 106.52 385.247 108.6 382.847 110.36Z" stroke="white" stroke-width="32" mask="url(#path-1-outside-1_247_226)"/>
<path d="M456.083 112.52C456.083 113.4 453.603 114.12 448.643 114.68C443.763 115.16 438.843 115.4 433.883 115.4C429.003 115.4 425.883 115.2 424.523 114.8C423.243 114.32 422.603 113.56 422.603 112.52V60.92H405.923C405.043 60.92 404.283 59.8 403.643 57.56C403.003 55.32 402.683 52 402.683 47.6C402.683 43.12 403.163 39.12 404.123 35.6C405.083 32 406.363 30.2 407.963 30.2H472.883C474.083 30.2 474.883 31.32 475.283 33.56C475.763 35.8 476.003 39.04 476.003 43.28C476.003 47.52 475.563 51.52 474.683 55.28C473.803 59.04 472.603 60.92 471.083 60.92H456.083V112.52Z" stroke="white" stroke-width="32" mask="url(#path-1-outside-1_247_226)"/>
<path d="M548.887 115.4H498.007C494.087 115.4 491.447 115.12 490.087 114.56C488.727 114 488.047 113.12 488.047 111.92V35.96C488.047 33.88 488.967 32.4 490.807 31.52C492.727 30.64 496.127 30.2 501.007 30.2H549.247C550.927 30.2 551.767 33 551.767 38.6C551.767 44.12 551.407 48.36 550.687 51.32C549.967 54.2 549.007 55.64 547.807 55.64C542.607 55.64 533.847 55.12 521.527 54.08V62.12C533.367 61.64 541.087 61.4 544.687 61.4C546.847 61.4 547.927 63.92 547.927 68.96C547.927 74 547.487 77.84 546.607 80.48C545.807 83.04 544.687 84.32 543.247 84.32L521.527 83.84V91.52C535.447 90.48 545.047 89.96 550.327 89.96C552.007 89.96 552.847 92.76 552.847 98.36C552.847 103.96 552.487 108.2 551.767 111.08C551.047 113.96 550.087 115.4 548.887 115.4Z" stroke="white" stroke-width="32" mask="url(#path-1-outside-1_247_226)"/>
<path d="M599.689 111.92C599.689 112.96 597.249 113.8 592.369 114.44C587.489 115.08 582.569 115.4 577.609 115.4C572.729 115.4 569.569 115.12 568.129 114.56C566.769 114 566.089 113.12 566.089 111.92V34.76C566.089 32.68 568.689 31.2 573.889 30.32C579.169 29.44 585.809 29 593.809 29C601.809 29 606.969 29.04 609.289 29.12C611.689 29.12 614.489 29.24 617.689 29.48C620.889 29.72 623.409 30.12 625.249 30.68C627.169 31.24 629.249 31.96 631.489 32.84C633.809 33.72 635.609 34.88 636.889 36.32C638.169 37.68 639.409 39.32 640.609 41.24C642.769 44.68 643.849 49.6 643.849 56C643.849 62.32 642.769 67.68 640.609 72.08C638.529 76.4 635.729 79.68 632.209 81.92C641.409 96.4 646.009 105.6 646.009 109.52C646.009 113.44 638.129 115.4 622.369 115.4C617.809 115.4 614.649 115.2 612.889 114.8C611.129 114.4 610.009 113.52 609.529 112.16L601.729 87.44L599.689 87.32V111.92ZM599.689 68.84H602.809C607.449 68.84 609.769 65.24 609.769 58.04C609.769 54.36 609.129 51.76 607.849 50.24C606.649 48.72 605.249 47.96 603.649 47.96H599.689V68.84Z" stroke="white" stroke-width="32" mask="url(#path-1-outside-1_247_226)"/>
<path d="M690.147 111.92C690.147 112.96 687.708 113.8 682.828 114.44C677.948 115.08 673.068 115.4 668.188 115.4C663.307 115.4 660.188 115.12 658.828 114.56C657.468 114 656.787 113.12 656.787 111.92V34.76C656.787 30.92 668.307 29 691.347 29C705.267 29 714.468 29.96 718.948 31.88C724.388 34.12 728.068 37.16 729.987 41C732.547 45.96 733.828 52.32 733.828 60.08C733.828 70.72 731.987 78.44 728.307 83.24C725.667 86.76 723.028 89.04 720.388 90.08C717.747 91.12 715.547 91.88 713.787 92.36C712.107 92.76 709.987 93.08 707.427 93.32C703.907 93.64 699.107 93.8 693.027 93.8L690.147 93.68V111.92ZM690.268 73.76H693.147C694.667 73.76 695.867 73.56 696.747 73.16C697.628 72.68 698.387 71.48 699.027 69.56C699.747 67.56 700.107 64.8 700.107 61.28C700.107 57.68 699.707 54.96 698.907 53.12C698.188 51.2 697.427 50.08 696.628 49.76C695.908 49.36 695.027 49.16 693.987 49.16H690.268V73.76Z" stroke="white" stroke-width="32" mask="url(#path-1-outside-1_247_226)"/>
<path d="M823.951 81.92C823.951 93.44 820.631 102.08 813.991 107.84C807.431 113.52 797.871 116.36 785.311 116.36C772.831 116.36 763.231 113.52 756.511 107.84C749.791 102.08 746.431 93.44 746.431 81.92V37.88C746.431 35.88 748.671 34.08 753.151 32.48C757.711 30.88 762.991 30.08 768.991 30.08C773.791 30.08 776.911 31 778.351 32.84C779.391 34.28 779.911 35.52 779.911 36.56V72.32C779.911 81.36 780.231 87.36 780.871 90.32C781.591 93.2 783.071 94.64 785.311 94.64C787.551 94.64 788.951 93.24 789.511 90.44C790.151 87.56 790.471 81.48 790.471 72.2V37.88C790.471 35.88 792.711 34.08 797.191 32.48C801.751 30.88 806.991 30.08 812.911 30.08C817.951 30.08 821.151 31 822.511 32.84C823.471 34.28 823.951 35.52 823.951 36.56V81.92Z" stroke="white" stroke-width="32" mask="url(#path-1-outside-1_247_226)"/>
<path d="M871.782 111.92C871.782 112.96 869.302 113.8 864.342 114.44C859.462 115.08 854.582 115.4 849.702 115.4C844.822 115.4 841.702 115.12 840.342 114.56C838.982 114 838.302 113.12 838.302 111.92V38.24C838.302 36.24 840.582 34.4 845.142 32.72C849.782 31.04 855.022 30.2 860.862 30.2C862.942 30.2 864.502 30.28 865.542 30.44C868.262 30.84 870.182 32.56 871.302 35.6L882.822 66.56H883.302V38.24C883.302 36.24 885.582 34.4 890.142 32.72C894.702 31.04 899.902 30.2 905.742 30.2C910.782 30.2 913.982 31.16 915.342 33.08C916.302 34.44 916.782 35.68 916.782 36.8V111.92C916.782 112.96 914.302 113.8 909.342 114.44C904.462 115.08 899.062 115.4 893.142 115.4C887.302 115.4 884.102 114.64 883.542 113.12L872.382 83.6H871.782V111.92Z" stroke="white" stroke-width="32" mask="url(#path-1-outside-1_247_226)"/>
<path d="M964.707 111.68C964.707 112.72 962.227 113.56 957.267 114.2C952.387 114.84 947.507 115.16 942.627 115.16C937.747 115.16 934.627 114.88 933.267 114.32C931.907 113.76 931.227 112.88 931.227 111.68V38.12C931.227 36.04 933.467 34.2 937.947 32.6C942.507 31 947.747 30.2 953.667 30.2C958.547 30.2 961.707 31.16 963.147 33.08C964.187 34.44 964.707 35.68 964.707 36.8V56.6H965.667C965.667 56.2 966.867 52.88 969.267 46.64C973.827 34.88 977.147 29 979.227 29C983.147 29 988.667 30.16 995.787 32.48C999.227 33.6 1002.19 35.24 1004.67 37.4C1007.15 39.48 1008.39 41.8 1008.39 44.36C1008.39 45.96 1006.75 49.08 1003.47 53.72C1000.27 58.28 995.387 64.4 988.827 72.08C990.347 73.68 992.267 75.72 994.587 78.2C996.907 80.68 999.987 84.4 1003.83 89.36C1007.75 94.24 1009.71 97.72 1009.71 99.8C1009.71 101.88 1007.83 104.32 1004.07 107.12C1000.31 109.84 996.307 112.08 992.067 113.84C987.827 115.52 984.667 116.36 982.587 116.36C981.227 116.36 979.347 114.32 976.947 110.24C974.627 106.08 971.787 99.88 968.427 91.64L964.707 96.08V111.68Z" stroke="white" stroke-width="32" mask="url(#path-1-outside-1_247_226)"/>
</svg>
