<svg width="836" height="504" viewBox="0 0 836 504" fill="none" xmlns="http://www.w3.org/2000/svg">
<path d="M836 300.384C836 246.407 792.154 202.644 738.068 202.644C722.626 202.644 708.08 206.308 695.097 212.661C696.633 204.785 697.461 196.661 697.461 188.339C697.461 118.554 640.787 61.9877 570.869 61.9877C536.381 61.9877 505.133 75.7679 482.296 98.0939C452.746 39.906 392.29 3.05176e-05 322.461 3.05176e-05C230.492 3.05176e-05 154.757 69.1817 144.528 158.236C135.711 156.115 126.514 154.961 117.04 154.961C52.3981 154.961 0 207.265 0 271.779C0 324.743 47.7682 369.524 105.098 369.524C95.5415 421.974 145.398 487.382 205.421 487.382C236.81 487.382 265.459 475.187 287.328 455.117C300.681 484.013 328.909 504 361.672 504C397.967 504 428.716 479.506 439.809 445.511C452.969 457.508 470.432 464.884 489.655 464.884C515.466 464.884 538.168 451.686 551.417 431.704C572.822 455.023 603.57 469.651 637.751 469.651C686.441 469.651 721.345 426.74 721.345 379.063C778.675 393.363 836 351.762 836 300.384Z" fill="white" fill-opacity="0.4"/>
</svg>
