<svg width="160" height="48" viewBox="0 0 160 48" fill="none" xmlns="http://www.w3.org/2000/svg">
<g clip-path="url(#clip0_2444_7106)">
<path d="M153.212 0.480469H6.78741C3.30634 0.480469 0.484375 3.27421 0.484375 6.72047V41.2805C0.484375 44.7267 3.30634 47.5205 6.78741 47.5205H153.212C156.693 47.5205 159.515 44.7267 159.515 41.2805V6.72047C159.515 3.27421 156.693 0.480469 153.212 0.480469Z" fill="#0C0D10"/>
<path d="M104.842 23.043V25.7921H103.102V27.5951H104.842V33.721C104.842 35.8129 105.798 36.6495 108.203 36.6495C108.626 36.6495 109.028 36.5998 109.38 36.54V34.757C109.079 34.7868 108.887 34.8068 108.555 34.8068C107.479 34.8068 107.006 34.3088 107.006 33.1732V27.5951H109.38V25.7921H107.006V23.043H104.842Z" fill="white"/>
<path d="M115.507 36.797C118.707 36.797 120.669 34.6753 120.669 31.1592C120.669 27.6628 118.697 25.5312 115.507 25.5312C112.308 25.5312 110.336 27.6628 110.336 31.1592C110.336 34.6753 112.298 36.797 115.507 36.797ZM115.507 34.8945C113.626 34.8945 112.569 33.5299 112.569 31.1592C112.569 28.8084 113.626 27.4338 115.507 27.4338C117.379 27.4338 118.446 28.8084 118.446 31.1592C118.446 33.5199 117.379 34.8945 115.507 34.8945Z" fill="white"/>
<path d="M122.346 36.5893H124.509V30.1843C124.509 28.6603 125.666 27.6344 127.307 27.6344C127.689 27.6344 128.333 27.7041 128.514 27.7639V25.6522C128.282 25.5924 127.87 25.5625 127.548 25.5625C126.119 25.5625 124.902 26.3394 124.59 27.4052H124.429V25.7418H122.346V36.5893Z" fill="white"/>
<path d="M133.885 27.3541C135.485 27.3541 136.532 28.4597 136.581 30.1631H131.048C131.168 28.4697 132.285 27.3541 133.885 27.3541ZM136.571 33.6594C136.169 34.506 135.274 34.9742 133.966 34.9742C132.235 34.9742 131.118 33.7689 131.048 31.8664V31.7469H138.785V30.9998C138.785 27.5931 136.944 25.5312 133.895 25.5312C130.806 25.5312 128.844 27.7326 128.844 31.199C128.844 34.6654 130.766 36.797 133.905 36.797C136.41 36.797 138.162 35.6017 138.654 33.6594H136.571Z" fill="white"/>
<path d="M90.6562 32.5815C90.8231 35.2451 93.0653 36.9487 96.4024 36.9487C99.9684 36.9487 102.201 35.1626 102.201 32.3131C102.201 30.0728 100.928 28.8338 97.8419 28.1215L96.1833 27.7188C94.2228 27.2646 93.4303 26.6555 93.4303 25.5921C93.4303 24.2499 94.6608 23.3723 96.5066 23.3723C98.2589 23.3723 99.4681 24.2292 99.6872 25.6023H101.961C101.825 23.0936 99.5932 21.3281 96.5379 21.3281C93.2529 21.3281 91.0629 23.0936 91.0629 25.7469C91.0629 27.9356 92.304 29.2365 95.0258 29.8663L96.9655 30.3308C98.9571 30.7955 99.8337 31.4769 99.8337 32.6125C99.8337 33.934 98.4567 34.8942 96.5796 34.8942C94.5669 34.8942 93.1695 33.9959 92.9714 32.5815H90.6562Z" fill="white"/>
<path d="M68.2472 25.5625C66.7582 25.5625 65.4702 26.2996 64.8062 27.5347H64.6452V25.7418H62.5625V40.1951H64.7257V34.9457H64.8968C65.4702 36.0912 66.7079 36.7686 68.2674 36.7686C71.0343 36.7686 72.7951 34.607 72.7951 31.1605C72.7951 27.7141 71.0344 25.5625 68.2472 25.5625ZM67.6335 34.8461C65.8224 34.8461 64.6855 33.4316 64.6855 31.1705C64.6855 28.8994 65.8224 27.485 67.6436 27.485C69.4748 27.485 70.5715 28.8695 70.5715 31.1605C70.5715 33.4615 69.4748 34.8461 67.6335 34.8461Z" fill="white"/>
<path d="M80.3644 25.5625C78.8754 25.5625 77.5874 26.2996 76.9234 27.5347H76.7624V25.7418H74.6797V40.1951H76.8429V34.9457H77.0139C77.5874 36.0912 78.825 36.7686 80.3846 36.7686C83.1515 36.7686 84.9123 34.607 84.9123 31.1605C84.9123 27.7141 83.1515 25.5625 80.3644 25.5625ZM79.7507 34.8461C77.9396 34.8461 76.8026 33.4316 76.8026 31.1705C76.8026 28.8994 77.9396 27.485 79.7608 27.485C81.592 27.485 82.6887 28.8695 82.6887 31.1605C82.6887 33.4615 81.592 34.8461 79.7507 34.8461Z" fill="white"/>
<path d="M58.681 36.5893H61.163L55.7298 21.6914H53.2165L47.7832 36.5893H50.1818L51.5688 32.6351H57.3045L58.681 36.5893ZM54.3532 24.3964H54.5305L56.71 30.6941H52.1632L54.3532 24.3964Z" fill="white"/>
<path d="M48.7539 10.4531V17.6399H51.375C53.5382 17.6399 54.7908 16.3201 54.7908 14.0241C54.7908 11.7629 53.5281 10.4531 51.375 10.4531H48.7539ZM49.8809 11.4691H51.2492C52.7534 11.4691 53.6439 12.4154 53.6439 14.039C53.6439 15.6875 52.7685 16.6239 51.2492 16.6239H49.8809V11.4691Z" fill="white"/>
<path d="M58.6268 17.7462C60.2266 17.7462 61.2076 16.6853 61.2076 14.9272C61.2076 13.1791 60.2216 12.1133 58.6268 12.1133C57.027 12.1133 56.041 13.1791 56.041 14.9272C56.041 16.6853 57.022 17.7462 58.6268 17.7462ZM58.6268 16.7949C57.686 16.7949 57.1578 16.1125 57.1578 14.9272C57.1578 13.7518 57.686 13.0645 58.6268 13.0645C59.5626 13.0645 60.0958 13.7518 60.0958 14.9272C60.0958 16.1076 59.5626 16.7949 58.6268 16.7949Z" fill="white"/>
<path d="M69.5622 12.2148H68.4806L67.5046 16.3536H67.419L66.2922 12.2148H65.2558L64.129 16.3536H64.0485L63.0674 12.2148H61.9707L63.4799 17.6386H64.5918L65.7187 13.6443H65.8042L66.9361 17.6386H68.058L69.5622 12.2148Z" fill="white"/>
<path d="M70.8086 17.6415H71.8903V14.469C71.8903 13.6223 72.3984 13.0944 73.1982 13.0944C73.9981 13.0944 74.3805 13.5277 74.3805 14.3993V17.6415H75.4621V14.1303C75.4621 12.8404 74.7879 12.1133 73.5655 12.1133C72.7404 12.1133 72.1971 12.4768 71.9305 13.0794H71.85V12.2178H70.8086V17.6415Z" fill="white"/>
<path d="M77.1641 17.6381H78.2457V10.0977H77.1641V17.6381Z" fill="white"/>
<path d="M82.3143 17.7462C83.9141 17.7462 84.8952 16.6853 84.8952 14.9272C84.8952 13.1791 83.9091 12.1133 82.3143 12.1133C80.7145 12.1133 79.7285 13.1791 79.7285 14.9272C79.7285 16.6853 80.7095 17.7462 82.3143 17.7462ZM82.3143 16.7949C81.3736 16.7949 80.8453 16.1125 80.8453 14.9272C80.8453 13.7518 81.3736 13.0645 82.3143 13.0645C83.2501 13.0645 83.7833 13.7518 83.7833 14.9272C83.7833 16.1076 83.2501 16.7949 82.3143 16.7949Z" fill="white"/>
<path d="M88.1185 16.8298C87.5299 16.8298 87.1023 16.5459 87.1023 16.0578C87.1023 15.5797 87.4444 15.3256 88.199 15.2758L89.5372 15.1911V15.6444C89.5372 16.3167 88.9334 16.8298 88.1185 16.8298ZM87.8418 17.7312C88.5612 17.7312 89.1599 17.4225 89.4869 16.8796H89.5724V17.6415H90.6137V13.9361C90.6137 12.7906 89.839 12.1133 88.4656 12.1133C87.223 12.1133 86.3376 12.7109 86.2269 13.6423H87.2733C87.3941 13.2588 87.8116 13.0396 88.4153 13.0396C89.1548 13.0396 89.5372 13.3634 89.5372 13.9361V14.4042L88.0531 14.4889C86.7501 14.5687 86.0156 15.1314 86.0156 16.1076C86.0156 17.0987 86.7854 17.7312 87.8418 17.7312Z" fill="white"/>
<path d="M94.2837 17.7277C95.0383 17.7277 95.6772 17.3742 96.0042 16.7815H96.0898V17.6381H97.1262V10.0977H96.0445V13.076H95.964C95.6672 12.4784 95.0333 12.1247 94.2837 12.1247C92.9002 12.1247 92.0098 13.2105 92.0098 14.9238C92.0098 16.642 92.8902 17.7277 94.2837 17.7277ZM94.5905 13.0859C95.4961 13.0859 96.0646 13.7982 96.0646 14.9288C96.0646 16.0642 95.5012 16.7665 94.5905 16.7665C93.6749 16.7665 93.1266 16.0742 93.1266 14.9238C93.1266 13.7832 93.68 13.0859 94.5905 13.0859Z" fill="white"/>
<path d="M104.139 17.7462C105.739 17.7462 106.719 16.6853 106.719 14.9272C106.719 13.1791 105.734 12.1133 104.139 12.1133C102.539 12.1133 101.553 13.1791 101.553 14.9272C101.553 16.6853 102.534 17.7462 104.139 17.7462ZM104.139 16.7949C103.198 16.7949 102.67 16.1125 102.67 14.9272C102.67 13.7518 103.198 13.0645 104.139 13.0645C105.075 13.0645 105.608 13.7518 105.608 14.9272C105.608 16.1076 105.075 16.7949 104.139 16.7949Z" fill="white"/>
<path d="M108.152 17.6415H109.234V14.469C109.234 13.6223 109.742 13.0944 110.542 13.0944C111.342 13.0944 111.724 13.5277 111.724 14.3993V17.6415H112.806V14.1303C112.806 12.8404 112.132 12.1133 110.909 12.1133C110.084 12.1133 109.541 12.4768 109.274 13.0794H109.194V12.2178H108.152V17.6415Z" fill="white"/>
<path d="M117.787 10.8672V12.2418H116.916V13.1433H117.787V16.2062C117.787 17.2521 118.265 17.6705 119.467 17.6705C119.679 17.6705 119.879 17.6456 120.056 17.6157V16.7241C119.905 16.7391 119.81 16.7491 119.643 16.7491C119.105 16.7491 118.868 16.5001 118.868 15.9323V13.1433H120.056V12.2418H118.868V10.8672H117.787Z" fill="white"/>
<path d="M121.508 17.6381H122.589V14.4706C122.589 13.6488 123.083 13.0959 123.968 13.0959C124.732 13.0959 125.14 13.5342 125.14 14.4008V17.6381H126.222V14.1369C126.222 12.8469 125.502 12.1148 124.335 12.1148C123.51 12.1148 122.931 12.4784 122.665 13.0859H122.579V10.0977H121.508V17.6381Z" fill="white"/>
<path d="M130.124 13.0247C130.924 13.0247 131.446 13.5775 131.472 14.4292H128.705C128.765 13.5825 129.324 13.0247 130.124 13.0247ZM131.467 16.1773C131.266 16.6006 130.818 16.8348 130.164 16.8348C129.299 16.8348 128.74 16.2321 128.705 15.2808V15.2211H132.573V14.8476C132.573 13.1442 131.653 12.1133 130.129 12.1133C128.584 12.1133 127.604 13.2139 127.604 14.9471C127.604 16.6804 128.564 17.7462 130.133 17.7462C131.386 17.7462 132.262 17.1485 132.508 16.1773H131.467Z" fill="white"/>
<path d="M30.9139 23.5071C30.9435 21.2097 32.1788 19.036 34.1385 17.8327C32.9022 16.0693 30.8315 14.9512 28.6772 14.8839C26.3794 14.643 24.1518 16.2572 22.9809 16.2572C21.7874 16.2572 19.9845 14.9078 18.0432 14.9477C15.5127 15.0293 13.1538 16.4662 11.9227 18.6757C9.2763 23.2518 11.2502 29.9772 13.7853 33.6762C15.0536 35.4875 16.5359 37.5107 18.4755 37.439C20.3734 37.3604 21.0823 36.2302 23.3733 36.2302C25.6431 36.2302 26.3082 37.439 28.287 37.3933C30.3237 37.3604 31.6069 35.574 32.8307 33.7456C33.742 32.455 34.4433 31.0286 34.9084 29.5192C32.515 28.5082 30.9167 26.1025 30.9139 23.5071Z" fill="white"/>
<path d="M27.1764 12.4501C28.2868 11.1187 28.8339 9.40745 28.7015 7.67969C27.0049 7.85765 25.4378 8.66747 24.3123 9.94778C23.2118 11.1988 22.6391 12.8799 22.7474 14.5417C24.4445 14.559 26.1129 13.7712 27.1764 12.4501Z" fill="white"/>
</g>
<defs>
<clipPath id="clip0_2444_7106">
<rect width="160" height="48" fill="white"/>
</clipPath>
</defs>
</svg>
