<svg width="595" height="359" viewBox="0 0 595 359" fill="none" xmlns="http://www.w3.org/2000/svg">
<path d="M595 213.964C595 175.516 563.793 144.343 525.3 144.343C514.309 144.343 503.957 146.954 494.716 151.478C495.809 145.869 496.399 140.082 496.399 134.154C496.399 84.4459 456.062 44.1539 406.3 44.1539C381.755 44.1539 359.515 53.9696 343.261 69.8724C322.229 28.4251 279.202 0 229.503 0C164.047 0 110.144 49.2782 102.864 112.712C96.5887 111.201 90.0427 110.379 83.3002 110.379C37.2929 110.379 0 147.635 0 193.589C0 231.315 33.9977 263.213 74.8008 263.213C67.9991 300.572 103.483 347.163 146.203 347.163C168.543 347.163 188.933 338.476 204.498 324.18C214.001 344.763 234.092 359 257.41 359C283.242 359 305.126 341.553 313.022 317.338C322.389 325.884 334.817 331.138 348.498 331.138C366.869 331.138 383.026 321.737 392.456 307.504C407.69 324.114 429.575 334.533 453.902 334.533C488.555 334.533 513.397 303.968 513.397 270.007C554.201 280.193 595 250.561 595 213.964Z" fill="white" fill-opacity="0.56"/>
</svg>
