<svg width="350" height="187" viewBox="0 0 350 187" fill="none" xmlns="http://www.w3.org/2000/svg">
<path d="M310.793 51.2483C306.359 51.2483 302.113 52.0189 298.139 53.3762C298.279 51.8578 298.36 50.3228 298.36 48.7692C298.36 21.8334 276.527 -0.00157166 249.591 -0.00157166C228.95 -0.00157166 211.315 12.8279 204.196 30.9421C197.579 24.8124 188.751 21.0359 179.02 21.0359C167.525 21.0359 157.256 26.2669 150.45 34.4707C142.62 16.4846 125.306 3.9733 105.192 3.9733C78.2946 3.9733 56.3995 26.333 55.507 54.2625C50.539 51.9858 45.0312 50.6822 39.2077 50.6822C17.5533 50.6822 0 68.2345 0 89.8877C0 111.233 17.061 128.554 38.2838 129.052C37.5622 135.223 38.4282 141.528 41.1164 147.424C49.6949 166.241 73.5799 173.773 94.4645 164.251C98.6375 162.349 102.366 159.903 105.606 157.066C113.457 161.328 122.651 163.782 132.483 163.782C140.15 163.782 147.422 162.28 153.979 159.603C163.755 175.748 180.962 186.473 200.572 186.473C220.831 186.473 238.526 175.029 248.112 157.987C254.487 162.685 262.241 165.466 270.628 165.466C290.604 165.466 307.053 149.817 309.491 129.599C309.927 129.614 310.352 129.663 310.793 129.663C332.446 129.663 350 112.111 350 90.4579C350 68.8026 332.446 51.2483 310.793 51.2483Z" fill="white" fill-opacity="0.4"/>
</svg>
