<svg width="56" height="44" viewBox="0 0 56 44" fill="none" xmlns="http://www.w3.org/2000/svg">
<rect width="56" height="44" rx="8" fill="#C4865D" fill-opacity="0.8"/>
<path d="M32.3329 15.334C32.3329 14.5977 32.9299 14.0007 33.6663 14.0007C34.4026 14.0007 34.9996 14.5977 34.9996 15.334C34.9996 16.0704 34.4026 16.6674 33.6663 16.6674C32.9299 16.6674 32.3329 16.0704 32.3329 15.334Z" fill="white" fill-opacity="0.88"/>
<path fill-rule="evenodd" clip-rule="evenodd" d="M26.9996 15.6674C23.5018 15.6674 20.6663 18.5029 20.6663 22.0007C20.6663 25.4985 23.5018 28.334 26.9996 28.334C30.4974 28.334 33.3329 25.4985 33.3329 22.0007C33.3329 18.5029 30.4974 15.6674 26.9996 15.6674ZM22.6663 22.0007C22.6663 19.6075 24.6064 17.6674 26.9996 17.6674C29.3928 17.6674 31.3329 19.6075 31.3329 22.0007C31.3329 24.3939 29.3928 26.334 26.9996 26.334C24.6064 26.334 22.6663 24.3939 22.6663 22.0007Z" fill="white" fill-opacity="0.88"/>
<path fill-rule="evenodd" clip-rule="evenodd" d="M34.0106 9.77807C29.3885 9.26148 24.6107 9.26148 19.9886 9.77807C17.3059 10.0779 15.1401 12.1912 14.8247 14.888C14.272 19.6137 14.272 24.3877 14.8247 29.1135C15.1401 31.8102 17.3059 33.9235 19.9886 34.2234C24.6107 34.7399 29.3885 34.7399 34.0106 34.2234C36.6933 33.9235 38.8591 31.8102 39.1745 29.1135C39.7272 24.3877 39.7272 19.6137 39.1745 14.888C38.8591 12.1912 36.6933 10.0779 34.0106 9.77807ZM20.2108 11.7657C24.6852 11.2656 29.314 11.2656 33.7885 11.7657C35.5619 11.9639 36.9826 13.3634 37.1881 15.1203C37.7227 19.6917 37.7227 24.3098 37.1881 28.8811C36.9826 30.638 35.5619 32.0375 33.7885 32.2357C29.314 32.7358 24.6852 32.7358 20.2108 32.2357C18.4373 32.0375 17.0166 30.638 16.8112 28.8811C16.2765 24.3098 16.2765 19.6917 16.8112 15.1203C17.0166 13.3634 18.4373 11.9639 20.2108 11.7657Z" fill="white" fill-opacity="0.88"/>
</svg>
