<svg width="40" height="32" viewBox="0 0 40 32" fill="none" xmlns="http://www.w3.org/2000/svg">
<rect width="40" height="32" rx="8" fill="white" fill-opacity="0.8"/>
<path d="M20.0264 28H19.9736C13.3714 28 8 22.6286 8 16.0264V15.9736C8 9.37142 13.3714 4 19.9736 4H20.0264C26.6286 4 32 9.37142 32 15.9736V16.0264C32 22.6286 26.6286 28 20.0264 28ZM19.9736 4.81238C13.819 4.81238 8.81238 9.81904 8.81238 15.9736V16.0264C8.81238 22.181 13.819 27.1876 19.9736 27.1876H20.0264C26.181 27.1876 31.1876 22.181 31.1876 16.0264V15.9736C31.1876 9.81904 26.181 4.81238 20.0264 4.81238H19.9736Z" fill="#C4865D" fill-opacity="0.88"/>
<path d="M23.5873 9.12305H16.4124C14.4302 9.12305 12.8176 10.7356 12.8176 12.7178V19.2818C12.8176 21.264 14.4302 22.8765 16.4124 22.8765H23.5873C25.5695 22.8765 27.182 21.264 27.182 19.2818V12.7178C27.182 10.7356 25.5695 9.12305 23.5873 9.12305ZM14.0857 12.7178C14.0857 11.4351 15.1296 10.3912 16.4124 10.3912H23.5873C24.87 10.3912 25.9139 11.4351 25.9139 12.7178V19.2818C25.9139 20.5645 24.87 21.6084 23.5873 21.6084H16.4124C15.1296 21.6084 14.0857 20.5645 14.0857 19.2818V12.7178Z" fill="#C4865D" fill-opacity="0.88"/>
<path d="M20.0012 19.3418C21.8445 19.3418 23.3449 17.8421 23.3449 15.998C23.3449 14.1539 21.8453 12.6543 20.0012 12.6543C18.1571 12.6543 16.6575 14.1539 16.6575 15.998C16.6575 17.8421 18.1571 19.3418 20.0012 19.3418ZM20.0012 13.9232C21.1458 13.9232 22.0768 14.8542 22.0768 15.9988C22.0768 17.1435 21.1458 18.0745 20.0012 18.0745C18.8566 18.0745 17.9256 17.1435 17.9256 15.9988C17.9256 14.8542 18.8566 13.9232 20.0012 13.9232Z" fill="#C4865D" fill-opacity="0.88"/>
<path d="M23.6541 13.1954C24.1505 13.1954 24.555 12.7917 24.555 12.2945C24.555 11.7973 24.1513 11.3936 23.6541 11.3936C23.1569 11.3936 22.7532 11.7973 22.7532 12.2945C22.7532 12.7917 23.1569 13.1954 23.6541 13.1954Z" fill="#C4865D" fill-opacity="0.88"/>
</svg>
