<svg width="56" height="44" viewBox="0 0 56 44" fill="none" xmlns="http://www.w3.org/2000/svg">
<rect width="56" height="44" rx="8" fill="#C4865D" fill-opacity="0.8"/>
<path d="M28.0352 38H27.9648C19.1619 38 12 30.8381 12 22.0352V21.9648C12 13.1619 19.1619 6 27.9648 6H28.0352C36.8381 6 44 13.1619 44 21.9648V22.0352C44 30.8381 36.8381 38 28.0352 38ZM27.9648 7.08317C19.7587 7.08317 13.0832 13.7587 13.0832 21.9648V22.0352C13.0832 30.2413 19.7587 36.9168 27.9648 36.9168H28.0352C36.2413 36.9168 42.9168 30.2413 42.9168 22.0352V21.9648C42.9168 13.7587 36.2413 7.08317 28.0352 7.08317H27.9648Z" fill="white"/>
<path d="M32.7831 12.8308H23.2166C20.5737 12.8308 18.4236 14.9809 18.4236 17.6238V26.3758C18.4236 29.0187 20.5737 31.1688 23.2166 31.1688H32.7831C35.4261 31.1688 37.5761 29.0187 37.5761 26.3758V17.6238C37.5761 14.9809 35.4261 12.8308 32.7831 12.8308ZM20.1144 17.6238C20.1144 15.9135 21.5063 14.5216 23.2166 14.5216H32.7831C34.4934 14.5216 35.8853 15.9135 35.8853 17.6238V26.3758C35.8853 28.0861 34.4934 29.478 32.7831 29.478H23.2166C21.5063 29.478 20.1144 28.0861 20.1144 26.3758V17.6238Z" fill="white"/>
<path d="M28.0018 26.4557C30.4595 26.4557 32.4601 24.4562 32.4601 21.9974C32.4601 19.5386 30.4606 17.5391 28.0018 17.5391C25.543 17.5391 23.5435 19.5386 23.5435 21.9974C23.5435 24.4562 25.543 26.4557 28.0018 26.4557ZM28.0018 19.231C29.528 19.231 30.7693 20.4723 30.7693 21.9985C30.7693 23.5246 29.528 24.766 28.0018 24.766C26.4756 24.766 25.2343 23.5246 25.2343 21.9985C25.2343 20.4723 26.4756 19.231 28.0018 19.231Z" fill="white"/>
<path d="M32.8721 18.2606C33.5339 18.2606 34.0734 17.7223 34.0734 17.0594C34.0734 16.3965 33.535 15.8582 32.8721 15.8582C32.2092 15.8582 31.6709 16.3965 31.6709 17.0594C31.6709 17.7223 32.2092 18.2606 32.8721 18.2606Z" fill="white"/>
</svg>
