<svg width="1440" height="86" viewBox="0 0 1440 86" fill="none" xmlns="http://www.w3.org/2000/svg">
<path fill-rule="evenodd" clip-rule="evenodd" d="M-1.50367e-05 86L1439.58 86.0003C1439.44 45.3373 1439.09 24.5394 1438.54 24.5394C1437.93 24.5394 1437.42 25.0413 1437.42 25.6548C1437.42 27.7161 1431.27 26.8382 1429.62 24.5394C1427.96 22.2405 1421.81 21.3627 1421.81 23.424C1421.81 24.0374 1420.8 24.5394 1419.58 24.5394C1418.35 24.5394 1417.35 24.0374 1417.35 23.424C1417.35 21.4519 1413.43 22.2349 1411.77 24.5394C1410.55 26.2348 1408.88 26.7702 1404.83 26.7702C1401.9 26.7702 1399.5 27.2721 1399.5 27.8856C1399.5 28.4991 1397.49 29.001 1395.04 29.001C1392.58 29.001 1390.58 28.4991 1390.58 27.8856C1390.58 27.2721 1389.07 26.7702 1387.23 26.7702C1385.39 26.7702 1383.88 26.2683 1383.88 25.6548C1383.88 25.0413 1381.12 24.5394 1377.75 24.5394C1374.37 24.5394 1371.61 24.0374 1371.61 23.4239C1371.61 22.8105 1370.61 22.3085 1369.38 22.3085C1368.16 22.3085 1367.15 21.8066 1367.15 21.1931C1367.15 20.5796 1366.15 20.0777 1364.92 20.0777C1363.69 20.0777 1362.69 19.5758 1362.69 18.9623C1362.69 18.3488 1361.94 17.8469 1361.02 17.8469C1360.1 17.8469 1359.34 18.3488 1359.34 18.9623C1359.34 19.5758 1358.63 20.0777 1357.76 20.0777C1356.9 20.0777 1355.89 20.7057 1355.53 21.472C1355.01 22.5874 1354.75 22.5874 1354.23 21.472C1353.46 19.8245 1344.84 19.5679 1344.84 21.1931C1344.84 21.8066 1343.84 22.3085 1342.61 22.3085C1341.39 22.3085 1340.38 22.8105 1340.38 23.4239C1340.38 24.0374 1339.38 24.5394 1338.15 24.5393C1336.92 24.5393 1335.92 25.0413 1335.92 25.6548C1335.92 26.2682 1335.13 26.7702 1334.16 26.7702C1333.19 26.7702 1330.47 28.7779 1328.11 31.2318C1325.29 34.1754 1322.85 35.6935 1320.95 35.6935C1319.37 35.6935 1318.07 35.1916 1318.07 34.5781C1318.07 32.1019 1311.63 33.5441 1308.24 36.7766C1306.34 38.5991 1303.5 40.4106 1301.94 40.801C1300.39 41.1925 1299.11 41.9063 1299.11 42.3871C1299.11 43.9732 1295.8 44.5733 1292.97 43.498C1291.27 42.8522 1290.19 41.5628 1290.19 40.183C1290.19 38.9405 1289.69 37.9243 1289.07 37.9243C1288.46 37.9243 1287.96 37.1357 1287.96 36.172C1287.96 33.5385 1285.13 31.2318 1281.9 31.2318C1280.33 31.2318 1279.03 30.7299 1279.03 30.1164C1279.03 29.5029 1278.03 29.001 1276.8 29.001C1275.58 29.001 1274.57 28.4991 1274.57 27.8856C1274.57 27.2721 1273.07 26.7702 1271.23 26.7702C1269.39 26.7702 1267.88 27.2721 1267.88 27.8856C1267.88 28.4991 1265.87 29.001 1263.42 29.001C1260.96 29.001 1258.96 28.4991 1258.96 27.8856C1258.96 27.2721 1256.41 26.7702 1253.3 26.7702C1246.1 26.7702 1244.08 24.8929 1244.18 18.3086C1244.22 15.6004 1243.8 13.3852 1243.24 13.3852C1242.68 13.3852 1242.23 14.1604 1242.23 15.1085C1242.23 16.0566 1240.99 18.0644 1239.49 19.5702C1236.72 22.342 1233.3 23.2376 1233.3 21.1931C1233.3 20.5796 1232.8 20.0777 1232.19 20.0777C1231.57 20.0777 1231.07 21.0815 1231.07 22.3085C1231.07 24.0441 1230.33 24.5393 1227.73 24.5393C1225.89 24.5393 1224.38 24.0374 1224.38 23.4239C1224.38 22.8104 1223.38 22.3085 1222.15 22.3085C1220.66 22.3085 1219.92 21.5645 1219.92 20.0777C1219.92 17.1452 1216.45 17.1452 1214.34 20.0777C1213.16 21.7106 1211.45 22.3085 1207.96 22.3085C1205.33 22.3085 1203.19 22.8104 1203.19 23.4239C1203.19 24.0374 1202.18 24.5393 1200.96 24.5393C1199.73 24.5393 1198.72 24.0374 1198.72 23.4239C1198.72 22.806 1195.78 22.3085 1192.12 22.3085C1187.89 22.3085 1185.32 21.8088 1184.96 20.9142C1184.59 20.0107 1184.07 19.9126 1183.47 20.6354C1180.93 23.7184 1174.19 25.7429 1174.19 23.4239C1174.19 21.3626 1168.03 22.2405 1166.38 24.5393C1165.43 25.8488 1163.49 26.7701 1161.67 26.7701C1159.97 26.7701 1158.57 27.2721 1158.57 27.8856C1158.57 28.499 1157.3 29.001 1155.74 29.001C1151.98 29.001 1145.18 22.2092 1145.18 18.4413C1145.18 15.732 1144.91 15.616 1138.49 15.616C1134.77 15.616 1131.8 16.1112 1131.8 16.7314C1131.8 17.3449 1131.16 17.8468 1130.37 17.8468C1129.59 17.8468 1128.22 18.8507 1127.34 20.0777C1125.55 22.5583 1120.01 23.1294 1119.22 20.9142C1118.88 19.9683 1118 20.3275 1116.48 22.0296C1114.67 24.0708 1113.08 24.5393 1107.97 24.5393C1103 24.5393 1101.68 24.1723 1101.68 22.787C1101.68 21.8222 1100.97 20.3164 1100.09 19.4407C1098.26 17.6126 1094.99 17.3058 1094.99 18.9622C1094.99 20.5874 1086.37 20.3308 1085.6 18.6834C1085.08 17.568 1084.82 17.568 1084.3 18.6834C1083.91 19.5211 1081.46 20.0776 1078.17 20.0776C1075.15 20.0776 1072.68 20.5796 1072.68 21.1931C1072.68 21.8065 1071.43 22.3085 1069.89 22.3085C1068.36 22.3085 1067.11 21.8065 1067.11 21.1931C1067.11 20.5796 1065.1 20.0776 1062.64 20.0776C1060.19 20.0776 1058.18 20.5796 1058.18 21.1931C1058.18 21.8065 1056.22 22.3085 1053.81 22.3085C1051.36 22.3085 1049.2 22.9208 1048.88 23.7027C1048.45 24.7557 1048 24.6876 1047.03 23.4239C1046.06 22.1601 1045.6 22.0921 1045.18 23.145C1044.51 24.7936 1038.11 25.0468 1038.11 23.4239C1038.11 22.8104 1036.35 22.3085 1034.2 22.3085C1032.05 22.3085 1030.3 22.8104 1030.3 23.4239C1030.3 24.0374 1029.04 24.5393 1027.51 24.5393C1025.97 24.5393 1024.72 24.0374 1024.72 23.4239C1024.72 22.8104 1022.24 22.3085 1019.21 22.3085C1016.18 22.3085 1013.39 21.8065 1013.01 21.1931C1012.11 19.7419 1007.99 19.7419 1007.99 21.193C1007.99 21.8065 1007.17 22.3085 1006.17 22.3085C1005.17 22.3085 1003.34 23.4384 1002.11 24.8181C1000.6 26.5203 999.719 26.8794 999.38 25.9336C998.534 23.5745 995.649 24.3787 992.373 27.8855C990.02 30.4041 988.255 31.2318 985.233 31.2318C983.025 31.2318 981.219 30.7298 981.219 30.1164C981.219 29.5029 980.215 29.0009 978.988 29.0009C977.761 29.0009 976.757 28.499 976.757 27.8855C976.757 27.2721 975.753 26.7701 974.526 26.7701C973.299 26.7701 972.296 26.2682 972.296 25.6547C972.296 23.531 964.973 24.4791 962.326 26.9452C958.67 30.3517 950.881 29.9959 947.136 26.2514C944.23 23.3447 943.594 20.5361 945.685 19.8389C947.092 19.3693 945.327 15.2579 942.51 12.4404C940.712 10.6423 931.816 10.4549 931.234 12.2028C931 12.9033 927.235 13.3851 922.009 13.3851C916.866 13.3851 913.179 13.8514 913.179 14.5005C913.179 15.114 911.171 15.616 908.717 15.616C906.263 15.616 904.255 16.1179 904.255 16.7314C904.255 17.3449 903.544 17.8468 902.675 17.8468C901.806 17.8468 900.918 18.3788 900.7 19.0291C900.161 20.6487 892.765 20.7435 892.23 19.1384C891.705 17.5624 883.062 17.3962 883.062 18.9622C883.062 20.5874 874.444 20.3308 873.674 18.6833C873.154 17.5679 872.893 17.5679 872.373 18.6833C872.015 19.4496 870.761 20.0776 869.585 20.0776C868.408 20.0776 867.447 20.5795 867.447 21.193C867.447 21.8065 864.937 22.3084 861.87 22.3084C858.802 22.3084 856.293 22.8104 856.293 23.4239C856.293 24.0373 855.289 24.5393 854.062 24.5393C852.835 24.5393 851.831 25.0412 851.831 25.6547C851.831 26.2682 851.078 26.7701 850.158 26.7701C849.238 26.7701 848.485 27.272 848.485 27.8855C848.485 29.1671 839.937 29.4292 839.375 28.1644C838.907 27.1092 829.708 22.3084 828.154 22.3084C827.517 22.3084 826.179 23.1874 825.18 24.2604C822.245 27.4159 818.667 29.0009 814.48 29.0009C812.324 29.0009 810.561 29.4415 810.561 29.9814C810.561 30.5201 809.032 31.5943 807.164 32.3683C804.572 33.4414 803.106 33.4737 800.977 32.5033C799.442 31.8039 796.955 31.2317 795.45 31.2317C793.945 31.2317 792.714 30.7298 792.714 30.1163C792.714 29.5028 791.961 29.0009 791.041 29.0009C790.121 29.0009 789.368 28.422 789.368 27.7148C789.368 27.0077 788.431 27.5096 787.285 28.8303C785.059 31.3968 780.555 32.0114 778.563 30.0193C777.689 29.1459 777.14 29.1459 776.601 30.0193C775.659 31.5418 767.059 31.6288 767.059 30.1163C767.059 28.6641 761.823 28.6641 760.925 30.1163C760.545 30.7298 759.262 31.2317 758.07 31.2317C756.879 31.2317 755.905 31.7337 755.905 32.3471C755.905 33.0197 751.242 33.4626 744.147 33.4626C733.93 33.4626 732.074 33.1703 729.994 31.2317C727.442 28.8537 724.674 28.2737 724.674 30.1163C724.674 30.7298 723.921 31.2317 723.001 31.2317C722.08 31.2317 721.327 31.7337 721.327 32.3471C721.327 32.9606 718.645 33.4626 715.366 33.4626C710.82 33.4626 708.924 33.9924 707.385 35.6934C705.767 37.4803 703.949 37.9242 698.248 37.9242C692.63 37.9242 690.611 38.4038 688.661 40.2041C682.965 45.4622 679.545 47.8235 678.971 46.8944C677.571 44.629 668.079 41.9966 661.997 42.1862C658.505 42.2955 655.338 41.8828 654.96 41.2693C654.581 40.657 653.046 40.155 651.548 40.155C650.05 40.155 648.825 39.5917 648.825 38.9035C648.825 38.0324 648.321 38.0692 647.169 39.0251C646.066 39.9409 641.743 40.3469 634.227 40.242C622.874 40.0825 619.825 39.0764 619.825 35.4881C619.825 34.6739 618.319 33.341 616.478 32.5256C614.439 31.6232 613.132 30.21 613.132 28.9072C613.132 26.064 609.63 26.1231 607.555 29.0009C605.522 31.8229 604.011 31.8229 601.978 29.0009C600.332 26.7176 595.286 25.8766 595.286 27.8855C595.286 29.4839 588.782 29.2652 587.007 27.6066C585.969 26.6373 585.813 25.4237 586.498 23.6246C588.319 18.8361 582.625 15.7609 579.929 20.0776C578.394 22.5359 574.136 23.0078 570.595 21.1115C568.791 20.1467 567.972 20.362 566.355 22.227C565.252 23.4985 563.732 24.5392 562.976 24.5392C562.221 24.5392 560.196 26.045 558.477 27.8855C555.488 31.0856 550.669 32.462 550.669 30.1163C550.669 28.6729 543.646 28.6618 542.205 30.1029C541.479 30.829 540.547 30.4119 539.472 28.8837C536.334 24.4154 533.938 21.9782 533.938 23.2531C533.938 23.9793 532.238 24.5392 530.034 24.5392C527.887 24.5392 526.13 25.0411 526.13 25.6546C526.13 26.2681 524.975 26.77 523.564 26.77C522.153 26.77 520.408 27.3612 519.685 28.084C518.677 29.0923 517.88 28.8336 516.264 26.9686C514.104 24.479 510.514 23.658 510.514 25.6546C510.514 26.2681 509.51 26.77 508.283 26.77C507.056 26.77 506.052 26.2681 506.052 25.6546C506.052 25.0411 505.278 24.5392 504.332 24.5392C503.387 24.5392 501.535 23.5353 500.219 22.3084C497.246 19.5388 493.714 19.4551 490.942 22.0864C489.26 23.6837 488.304 23.8555 486.283 22.923C484.885 22.2783 483.456 20.8717 483.109 19.7987C482.61 18.2516 481.202 17.8467 476.331 17.8467C470.618 17.8467 469.882 18.1613 465.897 22.3084C463.539 24.7623 460.819 26.77 459.85 26.77C458.882 26.77 458.09 27.272 458.09 27.8854C458.09 28.4989 455.926 29.0009 453.281 29.0009C450.013 29.0009 447.704 29.7158 446.077 31.2317C443.562 33.5741 434.289 34.4441 433.057 32.4519C432.396 31.3823 426.881 33.4569 426.867 34.7809C426.862 35.1992 425.416 36.5689 423.652 37.8238L420.447 40.107L416.97 36.7853C413.728 33.6867 410.137 32.3839 410.119 34.2991C410.114 34.7586 408.364 36.3247 406.23 37.7792L402.348 40.4227L399.098 36.9426C396.386 34.0403 395.011 33.4625 390.81 33.4625C388.04 33.4625 385.607 33.8574 385.401 34.3392C385.197 34.8211 383.447 36.3269 381.512 37.6855C378.634 39.7044 376.46 40.155 369.587 40.155C364.964 40.155 360.907 40.5967 360.573 41.1365C359.553 42.7885 349.185 45.7321 344.386 45.7321C341.895 45.7321 339.856 46.234 339.856 46.8475C339.856 49.1341 336.384 47.8402 332.376 44.0589C327.838 39.7791 326.036 39.3162 323.559 41.7913C322.513 42.8376 320.78 43.2001 318.755 42.7952C317.014 42.446 314.499 42.745 313.167 43.4577C311.336 44.4382 309.799 44.4404 306.854 43.4689C303.633 42.4059 302.49 42.494 300.221 43.9808C297.381 45.8414 291.893 45.3673 291.893 43.2614C291.893 42.6479 291.178 42.4215 290.304 42.7572C289.369 43.1164 287.38 41.8036 285.467 39.5627L282.218 35.7591L277.941 39.6765C275.571 41.8482 272.963 43.325 272.091 42.9892C271.225 42.658 269.303 42.3858 267.82 42.3858C266.181 42.3858 265.123 41.7377 265.123 40.7339C265.123 38.3937 260.603 37.5482 251.556 38.1963C244.218 38.7205 243.582 38.5789 241.024 35.8294C239.526 34.221 237.472 32.0269 236.459 30.9528C235.402 29.8329 232.989 29.0008 230.797 29.0008C227.992 29.0008 226.148 28.1129 223.853 25.6546C221.931 23.5966 219.611 22.3083 217.828 22.3083C216.233 22.3083 214.929 21.8064 214.929 21.1929C214.929 20.5794 213.123 20.0775 210.915 20.0775C207.893 20.0775 206.129 19.2499 203.775 16.7313C202.056 14.8908 199.957 13.385 199.113 13.385C198.267 13.385 196.852 12.3811 195.967 11.1542C194.745 9.45875 193.079 8.92335 189.028 8.92335C186.097 8.92335 183.698 9.42528 183.698 10.0388C183.698 10.6522 182.443 11.1542 180.909 11.1542C179.375 11.1542 178.121 11.6561 178.121 12.2696C178.121 12.8831 177.227 13.385 176.136 13.385C175.044 13.385 173.428 14.3889 172.544 15.6158C171.659 16.8428 170.084 17.8467 169.044 17.8467C168.004 17.8467 166.897 18.4746 166.586 19.2409C166.16 20.2939 165.706 20.2258 164.736 18.9621C163.765 17.6983 163.311 17.6303 162.885 18.6832C162.574 19.4506 161.357 20.0775 160.181 20.0775C159.006 20.0775 158.043 20.5794 158.043 21.1929C158.043 21.8064 157.039 22.3083 155.812 22.3083C154.585 22.3083 153.581 22.8103 153.581 23.4237C153.581 24.0372 152.608 24.5391 151.416 24.5391C150.225 24.5391 148.941 25.0411 148.562 25.6546C147.142 27.9512 141.321 26.7979 137.919 23.5464C134.962 20.7211 134.206 20.4801 131.802 21.5944C130.294 22.2938 129.056 23.2419 129.051 23.7026C129.047 24.1632 128.289 24.5391 127.369 24.5391C126.449 24.5391 125.696 24.0372 125.696 23.4237C125.696 22.8102 124.19 22.3083 122.35 22.3083C120.509 22.3083 119.004 22.8102 119.004 23.4237C119.004 24.0372 116.494 24.5391 113.427 24.5391C110.359 24.5391 107.849 25.0411 107.849 25.6546C107.849 26.268 106.07 26.77 103.895 26.77C101.164 26.77 99.0778 27.6333 97.1515 29.5585C93.9135 32.7965 93.0011 32.9549 90.72 30.6739C89.7998 29.7537 88.2583 29.0008 87.2935 29.0008C86.3298 29.0008 85.5412 28.4989 85.5412 27.8854C85.5412 27.2719 84.5373 26.77 83.3104 26.77C82.0834 26.77 81.0795 27.2719 81.0795 27.8854C81.0795 28.4989 79.5737 29.0008 77.7333 29.0008C75.8928 29.0008 74.387 28.4988 74.387 27.8854C74.387 27.2719 73.6341 26.77 72.7139 26.77C71.7937 26.77 71.0408 26.268 71.0408 25.6545C71.0408 25.0232 67.844 24.5391 63.6802 24.5391C56.9408 24.5391 56.0563 24.8213 53.1942 27.8854C50.8406 30.404 49.076 31.2316 46.0544 31.2316C42.1147 31.2316 42.04 31.1491 42.04 26.77C42.04 23.0523 41.6686 22.3083 39.8092 22.3083C38.5822 22.3083 37.5784 21.8064 37.5784 21.1929C37.5784 19.1751 33.9789 20.0284 31.7035 22.5871C30.1887 24.2893 29.3087 24.6484 28.9696 23.7026C28.6919 22.9285 26.6339 22.3083 24.3462 22.3083C21.5041 22.3083 19.725 21.6156 18.6163 20.0775C16.1814 16.6989 11.1943 17.1975 7.46217 21.1929C5.74331 23.0333 3.58722 24.5391 2.67258 24.5391C1.75682 24.5391 0.703872 25.3333 0.331323 26.3037C0.211156 26.6167 0.0980648 48.312 -1.50367e-05 86ZM685.634 2.23095C685.634 3.7178 686.378 4.46178 687.865 4.46178C689.352 4.46178 690.096 3.7178 690.096 2.23095C690.096 0.744102 689.352 0.00012053 687.865 0.00012027C686.378 0.00012001 685.634 0.744101 685.634 2.23095ZM1342.61 29.5587C1342.61 30.4789 1342.11 31.2318 1341.5 31.2318C1340.88 31.2318 1340.38 30.4789 1340.38 29.5587C1340.38 28.6385 1340.88 27.8856 1341.5 27.8856C1342.11 27.8856 1342.61 28.6385 1342.61 29.5587Z" fill="#272522"/>
</svg>
