<svg width="1439" height="86" viewBox="0 0 1439 86" fill="none" xmlns="http://www.w3.org/2000/svg">
<path fill-rule="evenodd" clip-rule="evenodd" d="M-1 86H1438.58C1438.44 45.337 1438.09 24.5391 1437.54 24.5391C1436.93 24.5391 1436.42 25.0411 1436.42 25.6545C1436.42 27.7158 1430.27 26.838 1428.62 24.5391C1426.96 22.2402 1420.81 21.3624 1420.81 23.4237C1420.81 24.0372 1419.8 24.5391 1418.58 24.5391C1417.35 24.5391 1416.35 24.0372 1416.35 23.4237C1416.35 21.4516 1412.43 22.2347 1410.77 24.5391C1409.55 26.2345 1407.88 26.7699 1403.83 26.7699C1400.9 26.7699 1398.5 27.2719 1398.5 27.8854C1398.5 28.4988 1396.49 29.0008 1394.04 29.0008C1391.58 29.0008 1389.58 28.4988 1389.58 27.8854C1389.58 27.2719 1388.07 26.7699 1386.23 26.7699C1384.39 26.7699 1382.88 26.268 1382.88 25.6545C1382.88 25.0411 1380.12 24.5391 1376.75 24.5391C1373.37 24.5391 1370.61 24.0372 1370.61 23.4237C1370.61 22.8102 1369.61 22.3083 1368.38 22.3083C1367.16 22.3083 1366.15 21.8064 1366.15 21.1929C1366.15 20.5794 1365.15 20.0775 1363.92 20.0775C1362.69 20.0775 1361.69 19.5755 1361.69 18.962C1361.69 18.3486 1360.94 17.8466 1360.02 17.8466C1359.1 17.8466 1358.34 18.3486 1358.34 18.962C1358.34 19.5755 1357.63 20.0775 1356.76 20.0775C1355.9 20.0775 1354.89 20.7054 1354.53 21.4717C1354.01 22.5871 1353.75 22.5871 1353.23 21.4717C1352.46 19.8243 1343.84 19.5677 1343.84 21.1929C1343.84 21.8064 1342.84 22.3083 1341.61 22.3083C1340.39 22.3083 1339.38 22.8102 1339.38 23.4237C1339.38 24.0372 1338.38 24.5391 1337.15 24.5391C1335.92 24.5391 1334.92 25.0411 1334.92 25.6545C1334.92 26.268 1334.13 26.7699 1333.16 26.7699C1332.19 26.7699 1329.47 28.7777 1327.11 31.2316C1324.29 34.1752 1321.85 35.6933 1319.95 35.6933C1318.37 35.6933 1317.07 35.1913 1317.07 34.5778C1317.07 32.1016 1310.63 33.5439 1307.24 36.7763C1305.34 38.5989 1302.5 40.4104 1300.94 40.8007C1299.39 41.1923 1298.11 41.9061 1298.11 42.3869C1298.11 43.973 1294.8 44.5731 1291.97 43.4978C1290.27 42.852 1289.19 41.5626 1289.19 40.1828C1289.19 38.9402 1288.69 37.9241 1288.07 37.9241C1287.46 37.9241 1286.96 37.1355 1286.96 36.1718C1286.96 33.5383 1284.13 31.2316 1280.9 31.2316C1279.33 31.2316 1278.03 30.7297 1278.03 30.1162C1278.03 29.5027 1277.03 29.0008 1275.8 29.0008C1274.58 29.0008 1273.57 28.4988 1273.57 27.8854C1273.57 27.2719 1272.07 26.7699 1270.23 26.7699C1268.39 26.7699 1266.88 27.2719 1266.88 27.8854C1266.88 28.4988 1264.87 29.0008 1262.42 29.0008C1259.96 29.0008 1257.96 28.4988 1257.96 27.8854C1257.96 27.2719 1255.41 26.7699 1252.3 26.7699C1245.1 26.7699 1243.08 24.8927 1243.18 18.3084C1243.22 15.6002 1242.8 13.385 1242.24 13.385C1241.68 13.385 1241.23 14.1602 1241.23 15.1083C1241.23 16.0564 1239.99 18.0641 1238.49 19.5699C1235.72 22.3417 1232.3 23.2374 1232.3 21.1929C1232.3 20.5794 1231.8 20.0775 1231.19 20.0775C1230.57 20.0775 1230.07 21.0813 1230.07 22.3083C1230.07 24.0439 1229.33 24.5391 1226.73 24.5391C1224.89 24.5391 1223.38 24.0372 1223.38 23.4237C1223.38 22.8102 1222.38 22.3083 1221.15 22.3083C1219.66 22.3083 1218.92 21.5643 1218.92 20.0775C1218.92 17.145 1215.45 17.145 1213.34 20.0775C1212.16 21.7104 1210.45 22.3083 1206.96 22.3083C1204.33 22.3083 1202.19 22.8102 1202.19 23.4237C1202.19 24.0372 1201.18 24.5391 1199.96 24.5391C1198.73 24.5391 1197.72 24.0372 1197.72 23.4237C1197.72 22.8058 1194.78 22.3083 1191.12 22.3083C1186.89 22.3083 1184.32 21.8086 1183.96 20.914C1183.59 20.0105 1183.07 19.9124 1182.47 20.6352C1179.93 23.7182 1173.19 25.7426 1173.19 23.4237C1173.19 21.3624 1167.03 22.2402 1165.38 24.5391C1164.43 25.8486 1162.49 26.7699 1160.67 26.7699C1158.97 26.7699 1157.57 27.2719 1157.57 27.8854C1157.57 28.4988 1156.3 29.0008 1154.74 29.0008C1150.98 29.0008 1144.18 22.209 1144.18 18.4411C1144.18 15.7318 1143.91 15.6158 1137.49 15.6158C1133.77 15.6158 1130.8 16.111 1130.8 16.7312C1130.8 17.3447 1130.16 17.8466 1129.37 17.8466C1128.59 17.8466 1127.22 18.8505 1126.34 20.0775C1124.55 22.5581 1119.01 23.1292 1118.22 20.914C1117.88 19.9681 1117 20.3273 1115.48 22.0294C1113.67 24.0706 1112.08 24.5391 1106.97 24.5391C1102 24.5391 1100.68 24.1721 1100.68 22.7868C1100.68 21.822 1099.97 20.3162 1099.09 19.4406C1097.26 17.6124 1093.99 17.3057 1093.99 18.962C1093.99 20.5872 1085.37 20.3307 1084.6 18.6832C1084.08 17.5678 1083.82 17.5678 1083.3 18.6832C1082.91 19.5209 1080.46 20.0775 1077.17 20.0775C1074.15 20.0775 1071.68 20.5794 1071.68 21.1929C1071.68 21.8064 1070.43 22.3083 1068.89 22.3083C1067.36 22.3083 1066.11 21.8064 1066.11 21.1929C1066.11 20.5794 1064.1 20.0775 1061.64 20.0775C1059.19 20.0775 1057.18 20.5794 1057.18 21.1929C1057.18 21.8064 1055.22 22.3083 1052.81 22.3083C1050.36 22.3083 1048.2 22.9207 1047.88 23.7026C1047.45 24.7555 1047 24.6875 1046.03 23.4237C1045.06 22.1599 1044.6 22.0919 1044.18 23.1448C1043.51 24.7934 1037.11 25.0466 1037.11 23.4237C1037.11 22.8102 1035.35 22.3083 1033.2 22.3083C1031.05 22.3083 1029.3 22.8102 1029.3 23.4237C1029.3 24.0372 1028.04 24.5391 1026.51 24.5391C1024.97 24.5391 1023.72 24.0372 1023.72 23.4237C1023.72 22.8102 1021.24 22.3083 1018.21 22.3083C1015.18 22.3083 1012.39 21.8064 1012.01 21.1929C1011.11 19.7417 1006.99 19.7417 1006.99 21.1929C1006.99 21.8064 1006.17 22.3083 1005.17 22.3083C1004.17 22.3083 1002.34 23.4382 1001.11 24.818C999.599 26.5201 998.719 26.8793 998.38 25.9334C997.534 23.5743 994.649 24.3785 991.373 27.8854C989.02 30.404 987.255 31.2316 984.233 31.2316C982.025 31.2316 980.219 30.7297 980.219 30.1162C980.219 29.5027 979.215 29.0008 977.988 29.0008C976.761 29.0008 975.757 28.4988 975.757 27.8854C975.757 27.2719 974.753 26.7699 973.526 26.7699C972.299 26.7699 971.296 26.268 971.296 25.6545C971.296 23.5308 963.973 24.4789 961.326 26.9451C957.67 30.3515 949.881 29.9957 946.136 26.2513C943.23 23.3445 942.594 20.5359 944.685 19.8388C946.092 19.3692 944.327 15.2578 941.51 12.4402C939.712 10.6422 930.816 10.4548 930.234 12.2026C930 12.9031 926.235 13.385 921.009 13.385C915.866 13.385 912.179 13.8512 912.179 14.5004C912.179 15.1139 910.171 15.6158 907.717 15.6158C905.263 15.6158 903.255 16.1177 903.255 16.7312C903.255 17.3447 902.544 17.8466 901.675 17.8466C900.806 17.8466 899.918 18.3787 899.701 19.029C899.161 20.6486 891.765 20.7434 891.23 19.1383C890.705 17.5622 882.062 17.396 882.062 18.962C882.062 20.5872 873.444 20.3307 872.674 18.6832C872.154 17.5678 871.893 17.5678 871.373 18.6832C871.015 19.4495 869.761 20.0775 868.585 20.0775C867.408 20.0775 866.447 20.5794 866.447 21.1929C866.447 21.8064 863.937 22.3083 860.87 22.3083C857.802 22.3083 855.293 22.8102 855.293 23.4237C855.293 24.0372 854.289 24.5391 853.062 24.5391C851.835 24.5391 850.831 25.0411 850.831 25.6545C850.831 26.268 850.078 26.7699 849.158 26.7699C848.238 26.7699 847.485 27.2719 847.485 27.8854C847.485 29.167 838.937 29.4291 838.375 28.1642C837.907 27.109 828.708 22.3083 827.154 22.3083C826.517 22.3083 825.179 23.1872 824.18 24.2603C821.245 27.4158 817.667 29.0008 813.48 29.0008C811.324 29.0008 809.561 29.4414 809.561 29.9812C809.561 30.52 808.032 31.5941 806.164 32.3682C803.572 33.4412 802.106 33.4736 799.977 32.5032C798.442 31.8038 795.955 31.2316 794.45 31.2316C792.945 31.2316 791.714 30.7297 791.714 30.1162C791.714 29.5027 790.961 29.0008 790.041 29.0008C789.121 29.0008 788.368 28.4219 788.368 27.7147C788.368 27.0075 787.431 27.5095 786.285 28.8301C784.059 31.3967 779.555 32.0113 777.563 30.0191C776.689 29.1458 776.141 29.1458 775.601 30.0191C774.659 31.5417 766.059 31.6287 766.059 30.1162C766.059 28.6639 760.823 28.6639 759.925 30.1162C759.545 30.7297 758.262 31.2316 757.07 31.2316C755.879 31.2316 754.905 31.7335 754.905 32.347C754.905 33.0196 750.242 33.4624 743.147 33.4624C732.93 33.4624 731.074 33.1702 728.994 31.2316C726.442 28.8535 723.674 28.2735 723.674 30.1162C723.674 30.7297 722.921 31.2316 722.001 31.2316C721.08 31.2316 720.327 31.7335 720.327 32.347C720.327 32.9605 717.645 33.4624 714.366 33.4624C709.82 33.4624 707.924 33.9923 706.385 35.6933C704.767 37.4802 702.949 37.9241 697.248 37.9241C691.63 37.9241 689.611 38.4037 687.661 40.204C681.965 45.4621 678.545 47.8234 677.971 46.8943C676.571 44.6288 667.079 41.9965 660.997 42.1861C657.505 42.2954 654.338 41.8827 653.96 41.2692C653.581 40.6569 652.046 40.1549 650.548 40.1549C649.05 40.1549 647.825 39.5916 647.825 38.9034C647.825 38.0323 647.321 38.0691 646.169 39.025C645.066 39.9408 640.743 40.3468 633.227 40.2419C621.874 40.0824 618.825 39.0763 618.825 35.488C618.825 34.6738 617.319 33.3409 615.478 32.5255C613.439 31.6231 612.132 30.2099 612.132 28.9071C612.132 26.0639 608.63 26.123 606.555 29.0008C604.522 31.8228 603.011 31.8228 600.978 29.0008C599.332 26.7175 594.286 25.8765 594.286 27.8854C594.286 29.4837 587.782 29.2651 586.007 27.6065C584.969 26.6372 584.813 25.4236 585.498 23.6245C587.319 18.836 581.625 15.7608 578.929 20.0775C577.394 22.5358 573.136 23.0077 569.595 21.1114C567.791 20.1466 566.972 20.3619 565.355 22.2269C564.252 23.4984 562.732 24.5391 561.977 24.5391C561.221 24.5391 559.196 26.0449 557.477 27.8854C554.488 31.0855 549.669 32.4619 549.669 30.1162C549.669 28.6728 542.646 28.6617 541.205 30.1028C540.479 30.8289 539.547 30.4118 538.472 28.8837C535.334 24.4153 532.938 21.9781 532.938 23.253C532.938 23.9792 531.238 24.5391 529.034 24.5391C526.887 24.5391 525.13 25.0411 525.13 25.6545C525.13 26.268 523.975 26.7699 522.564 26.7699C521.153 26.7699 519.408 27.3611 518.685 28.0839C517.677 29.0922 516.88 28.8335 515.264 26.9685C513.104 24.4789 509.514 23.6579 509.514 25.6545C509.514 26.268 508.51 26.7699 507.283 26.7699C506.056 26.7699 505.052 26.268 505.052 25.6545C505.052 25.0411 504.278 24.5391 503.332 24.5391C502.387 24.5391 500.535 23.5352 499.219 22.3083C496.246 19.5387 492.714 19.4551 489.942 22.0863C488.26 23.6836 487.304 23.8554 485.283 22.9229C483.885 22.2782 482.456 20.8716 482.109 19.7986C481.61 18.2515 480.202 17.8466 475.331 17.8466C469.618 17.8466 468.882 18.1612 464.897 22.3083C462.539 24.7622 459.819 26.7699 458.85 26.7699C457.882 26.7699 457.09 27.2719 457.09 27.8854C457.09 28.4988 454.926 29.0008 452.281 29.0008C449.013 29.0008 446.704 29.7158 445.077 31.2316C442.562 33.574 433.289 34.444 432.057 32.4519C431.396 31.3822 425.881 33.4569 425.867 34.7808C425.862 35.1991 424.416 36.5689 422.652 37.8237L419.447 40.107L415.97 36.7852C412.728 33.6866 409.137 32.3838 409.119 34.299C409.115 34.7585 407.364 36.3246 405.23 37.7791L401.348 40.4226L398.098 36.9425C395.386 34.0402 394.011 33.4624 389.81 33.4624C387.04 33.4624 384.607 33.8573 384.401 34.3391C384.197 34.821 382.447 36.3268 380.512 37.6854C377.634 39.7043 375.46 40.1549 368.587 40.1549C363.964 40.1549 359.907 40.5966 359.573 41.1365C358.553 42.7884 348.185 45.732 343.386 45.732C340.895 45.732 338.856 46.2339 338.856 46.8474C338.856 49.134 335.384 47.8401 331.376 44.0589C326.838 39.779 325.036 39.3161 322.559 41.7912C321.513 42.8375 319.78 43.2 317.755 42.7951C316.014 42.446 313.499 42.7449 312.167 43.4577C310.336 44.4381 308.799 44.4403 305.854 43.4688C302.633 42.4058 301.49 42.4939 299.221 43.9808C296.381 45.8413 290.893 45.3673 290.893 43.2614C290.893 42.6479 290.178 42.4214 289.304 42.7572C288.369 43.1163 286.38 41.8035 284.467 39.5626L281.218 35.7591L276.941 39.6764C274.571 41.8481 271.963 43.3249 271.091 42.9892C270.225 42.6579 268.303 42.3857 266.82 42.3857C265.181 42.3857 264.123 41.7377 264.123 40.7338C264.123 38.3937 259.603 37.5482 250.556 38.1963C243.218 38.7205 242.582 38.5788 240.024 35.8293C238.526 34.2209 236.472 32.0269 235.459 30.9527C234.402 29.8329 231.989 29.0008 229.797 29.0008C226.992 29.0008 225.148 28.1129 222.853 25.6545C220.931 23.5966 218.611 22.3083 216.828 22.3083C215.233 22.3083 213.929 21.8064 213.929 21.1929C213.929 20.5794 212.123 20.0775 209.915 20.0775C206.893 20.0775 205.129 19.2498 202.775 16.7312C201.056 14.8908 198.957 13.385 198.113 13.385C197.267 13.385 195.852 12.3811 194.967 11.1541C193.745 9.45871 192.079 8.92332 188.028 8.92332C185.097 8.92332 182.698 9.42525 182.698 10.0387C182.698 10.6522 181.443 11.1541 179.909 11.1541C178.375 11.1541 177.121 11.6561 177.121 12.2696C177.121 12.883 176.227 13.385 175.136 13.385C174.044 13.385 172.428 14.3888 171.544 15.6158C170.659 16.8428 169.084 17.8466 168.044 17.8466C167.004 17.8466 165.897 18.4746 165.586 19.2409C165.16 20.2938 164.706 20.2258 163.736 18.962C162.765 17.6983 162.311 17.6302 161.885 18.6832C161.574 19.4506 160.357 20.0775 159.181 20.0775C158.006 20.0775 157.043 20.5794 157.043 21.1929C157.043 21.8064 156.039 22.3083 154.812 22.3083C153.585 22.3083 152.581 22.8102 152.581 23.4237C152.581 24.0372 151.608 24.5391 150.416 24.5391C149.225 24.5391 147.941 25.0411 147.562 25.6545C146.142 27.9512 140.321 26.7978 136.919 23.5464C133.962 20.7211 133.206 20.4801 130.802 21.5944C129.294 22.2938 128.056 23.2419 128.051 23.7026C128.047 24.1632 127.289 24.5391 126.369 24.5391C125.449 24.5391 124.696 24.0372 124.696 23.4237C124.696 22.8102 123.19 22.3083 121.35 22.3083C119.509 22.3083 118.004 22.8102 118.004 23.4237C118.004 24.0372 115.494 24.5391 112.427 24.5391C109.359 24.5391 106.849 25.0411 106.849 25.6545C106.849 26.268 105.07 26.7699 102.895 26.7699C100.164 26.7699 98.0778 27.6333 96.1515 29.5585C92.9135 32.7965 92.0011 32.9549 89.72 30.6739C88.7998 29.7537 87.2583 29.0008 86.2935 29.0008C85.3298 29.0008 84.5412 28.4988 84.5412 27.8854C84.5412 27.2719 83.5373 26.7699 82.3104 26.7699C81.0834 26.7699 80.0795 27.2719 80.0795 27.8854C80.0795 28.4988 78.5737 29.0008 76.7333 29.0008C74.8928 29.0008 73.387 28.4988 73.387 27.8854C73.387 27.2719 72.6341 26.7699 71.7139 26.7699C70.7937 26.7699 70.0408 26.268 70.0408 25.6545C70.0408 25.0232 66.844 24.5391 62.6802 24.5391C55.9408 24.5391 55.0563 24.8213 52.1942 27.8854C49.8406 30.404 48.076 31.2316 45.0544 31.2316C41.1147 31.2316 41.04 31.1491 41.04 26.7699C41.04 23.0523 40.6686 22.3083 38.8092 22.3083C37.5822 22.3083 36.5784 21.8064 36.5784 21.1929C36.5784 19.1751 32.9789 20.0284 30.7035 22.5871C29.1887 24.2893 28.3087 24.6484 27.9696 23.7026C27.6919 22.9285 25.6339 22.3083 23.3462 22.3083C20.5041 22.3083 18.725 21.6156 17.6163 20.0775C15.1814 16.6989 10.1943 17.1975 6.46217 21.1929C4.74332 23.0333 2.58722 24.5391 1.67258 24.5391C0.756828 24.5391 -0.296124 25.3333 -0.668672 26.3037C-0.788839 26.6167 -0.901927 48.312 -1 86ZM684.634 2.23083C684.634 3.71768 685.378 4.46166 686.865 4.46166C688.352 4.46166 689.096 3.71768 689.096 2.23083C689.096 0.743981 688.352 0 686.865 0C685.378 0 684.634 0.743981 684.634 2.23083ZM1341.61 29.5585C1341.61 30.4787 1341.11 31.2316 1340.5 31.2316C1339.88 31.2316 1339.38 30.4787 1339.38 29.5585C1339.38 28.6383 1339.88 27.8854 1340.5 27.8854C1341.11 27.8854 1341.61 28.6383 1341.61 29.5585Z" fill="#272522"/>
</svg>
