<svg width="54" height="49" viewBox="0 0 54 49" fill="none" xmlns="http://www.w3.org/2000/svg">
<g filter="url(#filter0_i_186_27)">
<path d="M25.388 44.8207H18.5263C18.0688 44.8207 17.6724 44.6674 17.3369 44.3609C17.0014 44.0543 16.8032 43.671 16.7422 43.2111L16.1933 38.9341C15.7968 38.7808 15.4229 38.5969 15.0716 38.3822C14.7203 38.1676 14.3775 37.9377 14.0433 37.6924L10.0635 39.348C9.63654 39.5013 9.20959 39.5166 8.78264 39.394C8.35569 39.2714 8.02023 39.0108 7.77626 38.6122L4.39115 32.6796C4.14718 32.281 4.07094 31.8518 4.16243 31.3919C4.25392 30.932 4.48264 30.5641 4.8486 30.2881L8.27945 27.6667C8.24895 27.4521 8.2337 27.2449 8.2337 27.045V25.8051C8.2337 25.6052 8.24895 25.3979 8.27945 25.1833L4.8486 22.5619C4.48264 22.286 4.25392 21.9181 4.16243 21.4582C4.07094 20.9983 4.14718 20.569 4.39115 20.1705L7.77626 14.2379C7.98973 13.8086 8.31726 13.54 8.75885 13.4321C9.20044 13.3242 9.63532 13.3475 10.0635 13.502L14.0433 15.1576C14.3787 14.9124 14.7294 14.6824 15.0954 14.4678C15.4614 14.2532 15.8273 14.0692 16.1933 13.9159L16.7422 9.63892C16.8032 9.17903 17.0014 8.79579 17.3369 8.48919C17.6724 8.18259 18.0688 8.0293 18.5263 8.0293H25.388C25.8454 8.0293 26.2419 8.18259 26.5773 8.48919C26.9128 8.79579 27.111 9.17903 27.172 9.63892L27.7209 13.9159C28.1174 14.0692 28.4913 14.2532 28.8426 14.4678C29.1939 14.6824 29.5367 14.9124 29.8709 15.1576L33.8507 13.502C34.2777 13.3487 34.7046 13.3334 35.1316 13.456C35.5585 13.5787 35.894 13.8393 36.138 14.2379L39.5231 20.1705C39.767 20.569 39.8433 20.9983 39.7518 21.4582C39.6603 21.9181 39.4316 22.286 39.0656 22.5619L35.6348 25.1833C35.6653 25.3979 35.6805 25.6052 35.6805 25.8051V27.045C35.6805 27.2449 35.65 27.4521 35.589 27.6667L39.0199 30.2881C39.3858 30.5641 39.6146 30.932 39.706 31.3919C39.7975 31.8518 39.7213 32.281 39.4773 32.6796L36.0922 38.5662C35.8482 38.9648 35.5049 39.2333 35.062 39.3719C34.6192 39.5105 34.185 39.5025 33.7592 39.348L29.8709 37.6924C29.5355 37.9377 29.1848 38.1676 28.8188 38.3822C28.4529 38.5969 28.0869 38.7808 27.7209 38.9341L27.172 43.2111C27.111 43.671 26.9128 44.0543 26.5773 44.3609C26.2419 44.6674 25.8454 44.8207 25.388 44.8207ZM22.0486 32.8635C23.8174 32.8635 25.327 32.235 26.5773 30.978C27.8277 29.7209 28.4529 28.2033 28.4529 26.425C28.4529 24.6468 27.8277 23.1291 26.5773 21.8721C25.327 20.615 23.8174 19.9865 22.0486 19.9865C20.2493 19.9865 18.7318 20.615 17.4961 21.8721C16.2604 23.1291 15.6431 24.6468 15.6443 26.425C15.6443 28.2033 16.2616 29.7209 17.4961 30.978C18.7306 32.235 20.2481 32.8635 22.0486 32.8635Z" fill="white"/>
</g>
<g filter="url(#filter1_i_186_27)">
<path d="M42.6736 12.7478C42.8961 12.882 43.1186 12.9491 43.3411 12.9491C44.053 12.5913 44.4535 12.3452 44.5425 12.211L45.4769 10.198L47.4792 9.25856C47.7017 9.12436 47.8797 8.94542 48.0132 8.72175C48.1467 8.49808 48.2134 8.27441 48.2134 8.05074C47.8575 7.33499 47.6127 6.93238 47.4792 6.84292L45.4769 5.9035L44.5425 3.89046C44.409 3.66679 44.231 3.48785 44.0085 3.35365C43.7861 3.21944 43.5636 3.15234 43.3411 3.15234C42.6291 3.51022 42.2287 3.75625 42.1397 3.89046L41.2053 5.9035L39.2029 6.84292C38.9805 6.97712 38.8025 7.15605 38.669 7.37972C38.5355 7.6034 38.4688 7.82707 38.4688 8.05074C38.8247 8.76649 39.0694 9.16909 39.2029 9.25856L41.2053 10.198L42.1397 12.211C42.2732 12.4347 42.4512 12.6136 42.6736 12.7478Z" fill="white"/>
</g>
<g filter="url(#filter2_i_186_27)">
<path d="M47.7512 33.0518C47.8979 33.1403 48.0446 33.1845 48.1913 33.1845C48.6607 32.9485 48.9248 32.7863 48.9835 32.6978L49.5996 31.3704L50.9199 30.751C51.0666 30.6625 51.184 30.5445 51.272 30.397C51.36 30.2495 51.404 30.102 51.404 29.9546C51.1693 29.4826 51.008 29.2171 50.9199 29.1581L49.5996 28.5387L48.9835 27.2113C48.8955 27.0638 48.7781 26.9458 48.6314 26.8573C48.4847 26.7689 48.338 26.7246 48.1913 26.7246C47.7218 26.9606 47.4578 27.1228 47.3991 27.2113L46.7829 28.5387L45.4626 29.1581C45.3159 29.2466 45.1986 29.3646 45.1105 29.5121C45.0225 29.6596 44.9785 29.8071 44.9785 29.9546C45.2132 30.4265 45.3746 30.692 45.4626 30.751L46.7829 31.3704L47.3991 32.6978C47.4871 32.8453 47.6045 32.9633 47.7512 33.0518Z" fill="white"/>
</g>
<defs>
<filter id="filter0_i_186_27" x="4.125" y="8.0293" width="35.6641" height="36.791" filterUnits="userSpaceOnUse" color-interpolation-filters="sRGB">
<feFlood flood-opacity="0" result="BackgroundImageFix"/>
<feBlend mode="normal" in="SourceGraphic" in2="BackgroundImageFix" result="shape"/>
<feColorMatrix in="SourceAlpha" type="matrix" values="0 0 0 0 0 0 0 0 0 0 0 0 0 0 0 0 0 0 127 0" result="hardAlpha"/>
<feOffset dy="0.5"/>
<feComposite in2="hardAlpha" operator="arithmetic" k2="-1" k3="1"/>
<feColorMatrix type="matrix" values="0 0 0 0 1 0 0 0 0 1 0 0 0 0 1 0 0 0 0.25 0"/>
<feBlend mode="normal" in2="shape" result="effect1_innerShadow_186_27"/>
</filter>
<filter id="filter1_i_186_27" x="38.4688" y="3.15234" width="9.74414" height="9.79688" filterUnits="userSpaceOnUse" color-interpolation-filters="sRGB">
<feFlood flood-opacity="0" result="BackgroundImageFix"/>
<feBlend mode="normal" in="SourceGraphic" in2="BackgroundImageFix" result="shape"/>
<feColorMatrix in="SourceAlpha" type="matrix" values="0 0 0 0 0 0 0 0 0 0 0 0 0 0 0 0 0 0 127 0" result="hardAlpha"/>
<feOffset dy="0.5"/>
<feComposite in2="hardAlpha" operator="arithmetic" k2="-1" k3="1"/>
<feColorMatrix type="matrix" values="0 0 0 0 1 0 0 0 0 1 0 0 0 0 1 0 0 0 0.25 0"/>
<feBlend mode="normal" in2="shape" result="effect1_innerShadow_186_27"/>
</filter>
<filter id="filter2_i_186_27" x="44.9785" y="26.7246" width="6.42578" height="6.45996" filterUnits="userSpaceOnUse" color-interpolation-filters="sRGB">
<feFlood flood-opacity="0" result="BackgroundImageFix"/>
<feBlend mode="normal" in="SourceGraphic" in2="BackgroundImageFix" result="shape"/>
<feColorMatrix in="SourceAlpha" type="matrix" values="0 0 0 0 0 0 0 0 0 0 0 0 0 0 0 0 0 0 127 0" result="hardAlpha"/>
<feOffset dy="0.5"/>
<feComposite in2="hardAlpha" operator="arithmetic" k2="-1" k3="1"/>
<feColorMatrix type="matrix" values="0 0 0 0 1 0 0 0 0 1 0 0 0 0 1 0 0 0 0.25 0"/>
<feBlend mode="normal" in2="shape" result="effect1_innerShadow_186_27"/>
</filter>
</defs>
</svg>
