<svg width="160" height="48" viewBox="0 0 160 48" fill="none" xmlns="http://www.w3.org/2000/svg">
<g clip-path="url(#clip0_2431_1289)">
<path d="M155.151 0.480469H4.84801C2.43804 0.480469 0.484375 2.4146 0.484375 4.80047V43.2005C0.484375 45.5863 2.43804 47.5205 4.84801 47.5205H155.151C157.561 47.5205 159.515 45.5863 159.515 43.2005V4.80047C159.515 2.4146 157.561 0.480469 155.151 0.480469Z" fill="black"/>
<path d="M79.407 27.2323C76.6638 27.2323 74.4279 29.298 74.4279 32.1431C74.4279 34.9708 76.6638 37.0538 79.407 37.0538C82.1514 37.0538 84.3872 34.9708 84.3872 32.1431C84.386 29.298 82.1502 27.2323 79.407 27.2323ZM79.407 35.1209C77.9036 35.1209 76.6078 33.8935 76.6078 32.1442C76.6078 30.3764 77.9048 29.1674 79.407 29.1674C80.9104 29.1674 82.2062 30.3764 82.2062 32.1442C82.2062 33.8924 80.9104 35.1209 79.407 35.1209ZM68.5438 27.2323C65.8006 27.2323 63.5648 29.298 63.5648 32.1431C63.5648 34.9708 65.8006 37.0538 68.5438 37.0538C71.2882 37.0538 73.5241 34.9708 73.5241 32.1431C73.5241 29.298 71.2882 27.2323 68.5438 27.2323ZM68.5438 35.1209C67.0405 35.1209 65.7447 33.8935 65.7447 32.1442C65.7447 30.3764 67.0416 29.1674 68.5438 29.1674C70.0472 29.1674 71.343 30.3764 71.343 32.1442C71.3442 33.8924 70.0472 35.1209 68.5438 35.1209ZM55.6234 28.7402V30.8232H60.6595C60.5091 31.9952 60.1148 32.8509 59.513 33.4455C58.7806 34.1706 57.634 34.9708 55.6234 34.9708C52.5232 34.9708 50.0996 32.4963 50.0996 29.4273C50.0996 26.3582 52.5232 23.8838 55.6234 23.8838C57.2958 23.8838 58.5169 24.535 59.4186 25.3721L60.9033 23.9022C59.6436 22.7117 57.9723 21.8008 55.6234 21.8008C51.3768 21.8008 47.8066 25.2232 47.8066 29.4273C47.8066 33.6314 51.3768 37.0538 55.6234 37.0538C57.9152 37.0538 59.6448 36.3091 60.9966 34.9142C62.3868 33.5378 62.8196 31.6027 62.8196 30.0404C62.8196 29.5578 62.7823 29.1109 62.7064 28.7391H55.6234V28.7402ZM108.467 30.3579C108.054 29.261 106.794 27.2323 104.221 27.2323C101.665 27.2323 99.5411 29.2229 99.5411 32.1431C99.5411 34.8958 101.646 37.0538 104.464 37.0538C106.737 37.0538 108.053 35.6775 108.599 34.8772L106.908 33.7607C106.345 34.5793 105.574 35.1186 104.464 35.1186C103.356 35.1186 102.567 34.6163 102.059 33.6303L108.692 30.9144L108.467 30.3579ZM101.703 31.9952C101.646 30.097 103.187 29.1306 104.297 29.1306C105.161 29.1306 105.893 29.5589 106.138 30.1721L101.703 31.9952ZM96.3105 36.7571H98.489V22.3226H96.3105V36.7571ZM92.7392 28.3303H92.6646C92.1759 27.753 91.2359 27.2323 90.0532 27.2323C87.5725 27.2323 85.2993 29.3903 85.2993 32.1626C85.2993 34.9153 87.5725 37.055 90.0532 37.055C91.237 37.055 92.1759 36.5342 92.6646 35.9396H92.7392V36.6462C92.7392 38.5248 91.7245 39.5294 90.0905 39.5294C88.7563 39.5294 87.9293 38.5814 87.5911 37.7812L85.6935 38.563C86.2382 39.8642 87.6844 41.4647 90.0905 41.4647C92.6459 41.4647 94.8071 39.9763 94.8071 36.3483V27.5313H92.7404V28.3303H92.7392ZM90.241 35.1209C88.7376 35.1209 87.4791 33.8738 87.4791 32.1626C87.4791 30.4319 88.7376 29.1674 90.241 29.1674C91.7245 29.1674 92.8897 30.4319 92.8897 32.1626C92.8897 33.8738 91.7245 35.1209 90.241 35.1209ZM118.677 22.3226H113.462V36.7571H115.638V31.2886H118.676C121.088 31.2886 123.461 29.5601 123.461 26.8062C123.461 24.0524 121.089 22.3226 118.677 22.3226ZM118.733 29.2795H115.638V24.3317H118.733C120.361 24.3317 121.284 25.6654 121.284 26.8062C121.284 27.9239 120.361 29.2795 118.733 29.2795ZM132.183 27.2068C130.607 27.2068 128.975 27.8939 128.3 29.4168L130.232 30.2148C130.645 29.4168 131.414 29.1559 132.221 29.1559C133.346 29.1559 134.49 29.8245 134.508 31.0127V31.1615C134.115 30.9387 133.27 30.605 132.239 30.605C130.157 30.605 128.037 31.7377 128.037 33.8543C128.037 35.786 129.744 37.0296 131.658 37.0296C133.12 37.0296 133.927 36.3794 134.433 35.6174H134.507V36.7317H136.61V31.1974C136.611 28.6364 134.677 27.2068 132.183 27.2068ZM131.919 35.1174C131.209 35.1174 130.214 34.7641 130.214 33.8912C130.214 32.7769 131.452 32.3497 132.521 32.3497C133.477 32.3497 133.928 32.5541 134.508 32.8323C134.34 34.1706 133.177 35.1174 131.919 35.1174ZM144.263 27.5221L141.768 33.7803H141.693L139.104 27.5221H136.76L140.643 36.2687L138.429 41.1344H140.698L146.683 27.5221H144.263ZM124.661 36.7571H126.837V22.3226H124.661V36.7571Z" fill="white"/>
<path d="M55.5383 13.2504C55.5383 14.256 55.2377 15.0564 54.6353 15.654C53.9517 16.3644 53.0595 16.7196 51.9638 16.7196C50.9141 16.7196 50.0207 16.3596 49.2874 15.6396C48.5529 14.9184 48.1855 14.0256 48.1855 12.96C48.1855 11.8932 48.5529 11.0004 49.2874 10.2804C50.0207 9.55922 50.9141 9.19922 51.9638 9.19922C52.485 9.19922 52.9831 9.30002 53.4559 9.50042C53.9298 9.70199 54.3092 9.96964 54.5928 10.3044L53.9541 10.938C53.4728 10.368 52.8098 10.0836 51.9625 10.0836C51.1965 10.0836 50.5346 10.35 49.9759 10.8828C49.4171 11.4156 49.1383 12.108 49.1383 12.9588C49.1383 13.8096 49.4171 14.502 49.9759 15.0348C50.5346 15.5676 51.1965 15.834 51.9625 15.834C52.7746 15.834 53.4523 15.5664 53.994 15.03C54.3455 14.6808 54.5492 14.1948 54.6038 13.572H51.9625V12.7068H55.4862C55.5226 12.8952 55.5383 13.0764 55.5383 13.2504Z" fill="white"/>
<path d="M61.1269 10.2437H57.8154V12.5261H60.802V13.3914H57.8154V15.6738H61.1269V16.5594H56.8809V9.35938H61.1269V10.2437Z" fill="white"/>
<path d="M65.0676 16.5594H64.1331V10.2437H62.1016V9.35938H67.0991V10.2437H65.0676V16.5594Z" fill="white"/>
<path d="M70.7148 16.5594V9.35938H71.6494V16.5594H70.7148Z" fill="white"/>
<path d="M75.7922 16.5594H74.8577V10.2437H72.8262V9.35938H77.8237V10.2437H75.7922V16.5594Z" fill="white"/>
<path d="M87.2845 15.6312C86.5694 16.3584 85.681 16.722 84.6179 16.722C83.5549 16.722 82.6664 16.3584 81.9525 15.6312C81.2373 14.904 80.8809 14.0136 80.8809 12.9612C80.8809 11.9088 81.2373 11.0184 81.9525 10.2912C82.6664 9.56402 83.5549 9.19922 84.6179 9.19922C85.6748 9.19922 86.5621 9.56522 87.2797 10.296C87.9973 11.0268 88.3561 11.9148 88.3561 12.9612C88.3561 14.0136 87.9985 14.904 87.2845 15.6312ZM82.6421 15.0276C83.1803 15.5676 83.8385 15.8364 84.6179 15.8364C85.3973 15.8364 86.0567 15.5664 86.5936 15.0276C87.1318 14.4876 87.4022 13.7988 87.4022 12.9612C87.4022 12.1236 87.1318 11.4348 86.5936 10.8948C86.0567 10.3548 85.3973 10.086 84.6179 10.086C83.8385 10.086 83.1803 10.356 82.6421 10.8948C82.1052 11.4348 81.8348 12.1236 81.8348 12.9612C81.8348 13.7988 82.1052 14.4876 82.6421 15.0276Z" fill="white"/>
<path d="M89.668 16.5594V9.35938H90.8049L94.3395 14.9597H94.3795L94.3395 13.5725V9.35938H95.2741V16.5594H94.2983L90.6001 10.6866H90.5601L90.6001 12.0738V16.5594H89.668Z" fill="white"/>
<path d="M55.5383 13.2504C55.5383 14.256 55.2377 15.0564 54.6353 15.654C53.9517 16.3644 53.0595 16.7196 51.9638 16.7196C50.9141 16.7196 50.0207 16.3596 49.2874 15.6396C48.5529 14.9184 48.1855 14.0256 48.1855 12.96C48.1855 11.8932 48.5529 11.0004 49.2874 10.2804C50.0207 9.55922 50.9141 9.19922 51.9638 9.19922C52.485 9.19922 52.9831 9.30002 53.4559 9.50042C53.9298 9.70199 54.3092 9.96964 54.5928 10.3044L53.9541 10.938C53.4728 10.368 52.8098 10.0836 51.9625 10.0836C51.1965 10.0836 50.5346 10.35 49.9759 10.8828C49.4171 11.4156 49.1383 12.108 49.1383 12.9588C49.1383 13.8096 49.4171 14.502 49.9759 15.0348C50.5346 15.5676 51.1965 15.834 51.9625 15.834C52.7746 15.834 53.4523 15.5664 53.994 15.03C54.3455 14.6808 54.5492 14.1948 54.6038 13.572H51.9625V12.7068H55.4862C55.5226 12.8952 55.5383 13.0764 55.5383 13.2504Z" stroke="white" stroke-width="0.2" stroke-miterlimit="10"/>
<path d="M61.1269 10.2437H57.8154V12.5261H60.802V13.3914H57.8154V15.6738H61.1269V16.5594H56.8809V9.35938H61.1269V10.2437Z" stroke="white" stroke-width="0.2" stroke-miterlimit="10"/>
<path d="M65.0676 16.5594H64.1331V10.2437H62.1016V9.35938H67.0991V10.2437H65.0676V16.5594Z" stroke="white" stroke-width="0.2" stroke-miterlimit="10"/>
<path d="M70.7148 16.5594V9.35938H71.6494V16.5594H70.7148Z" stroke="white" stroke-width="0.2" stroke-miterlimit="10"/>
<path d="M75.7922 16.5594H74.8577V10.2437H72.8262V9.35938H77.8237V10.2437H75.7922V16.5594Z" stroke="white" stroke-width="0.2" stroke-miterlimit="10"/>
<path d="M87.2845 15.6312C86.5694 16.3584 85.681 16.722 84.6179 16.722C83.5549 16.722 82.6664 16.3584 81.9525 15.6312C81.2373 14.904 80.8809 14.0136 80.8809 12.9612C80.8809 11.9088 81.2373 11.0184 81.9525 10.2912C82.6664 9.56402 83.5549 9.19922 84.6179 9.19922C85.6748 9.19922 86.5621 9.56522 87.2797 10.296C87.9973 11.0268 88.3561 11.9148 88.3561 12.9612C88.3561 14.0136 87.9985 14.904 87.2845 15.6312ZM82.6421 15.0276C83.1803 15.5676 83.8385 15.8364 84.6179 15.8364C85.3973 15.8364 86.0567 15.5664 86.5936 15.0276C87.1318 14.4876 87.4022 13.7988 87.4022 12.9612C87.4022 12.1236 87.1318 11.4348 86.5936 10.8948C86.0567 10.3548 85.3973 10.086 84.6179 10.086C83.8385 10.086 83.1803 10.356 82.6421 10.8948C82.1052 11.4348 81.8348 12.1236 81.8348 12.9612C81.8348 13.7988 82.1052 14.4876 82.6421 15.0276Z" stroke="white" stroke-width="0.2" stroke-miterlimit="10"/>
<path d="M89.668 16.5594V9.35938H90.8049L94.3395 14.9597H94.3795L94.3395 13.5725V9.35938H95.2741V16.5594H94.2983L90.6001 10.6866H90.5601L90.6001 12.0738V16.5594H89.668Z" stroke="white" stroke-width="0.2" stroke-miterlimit="10"/>
<g filter="url(#filter0_ii_2431_1289)">
<path d="M12.2523 9.73196C11.9157 10.0846 11.7168 10.6318 11.7168 11.3404V36.6594C11.7168 37.3692 11.9157 37.9153 12.2523 38.268L12.3378 38.3503L26.6643 24.1671V24V23.8328L12.3378 9.64844L12.2523 9.73196Z" fill="url(#paint0_linear_2431_1289)"/>
<path d="M31.4388 28.8972L26.6641 24.1679V24.0008V23.8337L31.4399 19.1055L31.5475 19.1661L37.2057 22.3488C38.8212 23.2578 38.8212 24.7449 37.2057 25.6551L31.5475 28.8377L31.4388 28.8972Z" fill="url(#paint1_linear_2431_1289)"/>
<g filter="url(#filter1_i_2431_1289)">
<path d="M31.5455 28.8357L26.661 24L12.25 38.268C12.782 38.8266 13.662 38.8954 14.653 38.3389L31.5455 28.8357Z" fill="url(#paint2_linear_2431_1289)"/>
</g>
<path d="M31.5455 19.1641L14.653 9.66212C13.662 9.10455 12.782 9.17439 12.25 9.73307L26.6621 24.0011L31.5455 19.1641Z" fill="url(#paint3_linear_2431_1289)"/>
</g>
</g>
<defs>
<filter id="filter0_ii_2431_1289" x="11.7168" y="9.12734" width="26.7012" height="29.7453" filterUnits="userSpaceOnUse" color-interpolation-filters="sRGB">
<feFlood flood-opacity="0" result="BackgroundImageFix"/>
<feBlend mode="normal" in="SourceGraphic" in2="BackgroundImageFix" result="shape"/>
<feColorMatrix in="SourceAlpha" type="matrix" values="0 0 0 0 0 0 0 0 0 0 0 0 0 0 0 0 0 0 127 0" result="hardAlpha"/>
<feOffset dy="-0.15"/>
<feGaussianBlur stdDeviation="2"/>
<feComposite in2="hardAlpha" operator="arithmetic" k2="-1" k3="1"/>
<feColorMatrix type="matrix" values="0 0 0 0 0 0 0 0 0 0 0 0 0 0 0 0 0 0 0.12 0"/>
<feBlend mode="normal" in2="shape" result="effect1_innerShadow_2431_1289"/>
<feColorMatrix in="SourceAlpha" type="matrix" values="0 0 0 0 0 0 0 0 0 0 0 0 0 0 0 0 0 0 127 0" result="hardAlpha"/>
<feOffset dy="0.15"/>
<feGaussianBlur stdDeviation="2"/>
<feComposite in2="hardAlpha" operator="arithmetic" k2="-1" k3="1"/>
<feColorMatrix type="matrix" values="0 0 0 0 1 0 0 0 0 1 0 0 0 0 1 0 0 0 0.25 0"/>
<feBlend mode="normal" in2="effect1_innerShadow_2431_1289" result="effect2_innerShadow_2431_1289"/>
</filter>
<filter id="filter1_i_2431_1289" x="12.25" y="23.85" width="19.2949" height="14.8727" filterUnits="userSpaceOnUse" color-interpolation-filters="sRGB">
<feFlood flood-opacity="0" result="BackgroundImageFix"/>
<feBlend mode="normal" in="SourceGraphic" in2="BackgroundImageFix" result="shape"/>
<feColorMatrix in="SourceAlpha" type="matrix" values="0 0 0 0 0 0 0 0 0 0 0 0 0 0 0 0 0 0 127 0" result="hardAlpha"/>
<feOffset dy="-0.15"/>
<feGaussianBlur stdDeviation="2"/>
<feComposite in2="hardAlpha" operator="arithmetic" k2="-1" k3="1"/>
<feColorMatrix type="matrix" values="0 0 0 0 0 0 0 0 0 0 0 0 0 0 0 0 0 0 0.08 0"/>
<feBlend mode="normal" in2="shape" result="effect1_innerShadow_2431_1289"/>
</filter>
<linearGradient id="paint0_linear_2431_1289" x1="25.3944" y1="11.0726" x2="6.18287" y2="30.4782" gradientUnits="userSpaceOnUse">
<stop stop-color="#00A0FF"/>
<stop offset="0.0066" stop-color="#00A1FF"/>
<stop offset="0.2601" stop-color="#00BEFF"/>
<stop offset="0.5122" stop-color="#00D2FF"/>
<stop offset="0.7604" stop-color="#00DFFF"/>
<stop offset="1" stop-color="#00E3FF"/>
</linearGradient>
<linearGradient id="paint1_linear_2431_1289" x1="39.3086" y1="24.0008" x2="11.3287" y2="24.0008" gradientUnits="userSpaceOnUse">
<stop stop-color="#FFE000"/>
<stop offset="0.4087" stop-color="#FFBD00"/>
<stop offset="0.7754" stop-color="#FFA500"/>
<stop offset="1" stop-color="#FF9C00"/>
</linearGradient>
<linearGradient id="paint2_linear_2431_1289" x1="28.8929" y1="26.6261" x2="2.83968" y2="52.9425" gradientUnits="userSpaceOnUse">
<stop stop-color="#FF3A44"/>
<stop offset="1" stop-color="#C31162"/>
</linearGradient>
<linearGradient id="paint3_linear_2431_1289" x1="8.62057" y1="1.30462" x2="20.2541" y2="13.0556" gradientUnits="userSpaceOnUse">
<stop stop-color="#32A071"/>
<stop offset="0.0685" stop-color="#2DA771"/>
<stop offset="0.4762" stop-color="#15CF74"/>
<stop offset="0.8009" stop-color="#06E775"/>
<stop offset="1" stop-color="#00F076"/>
</linearGradient>
<clipPath id="clip0_2431_1289">
<rect width="160" height="48" fill="white"/>
</clipPath>
</defs>
</svg>
