<svg width="72" height="72" viewBox="0 0 72 72" fill="none" xmlns="http://www.w3.org/2000/svg">
<path d="M22.6667 0.848633H20.2424V3.27288H22.6667V0.848633Z" fill="#A74C47"/>
<path d="M25.0909 0.848633H22.6667V3.27288H25.0909V0.848633Z" fill="#A74C47"/>
<path d="M27.5152 0.848633H25.0909V3.27288H27.5152V0.848633Z" fill="#A74C47"/>
<path d="M39.6364 0.848633H37.2122V3.27288H39.6364V0.848633Z" fill="#A74C47"/>
<path d="M42.0607 0.848633H39.6364V3.27288H42.0607V0.848633Z" fill="#A74C47"/>
<path d="M44.4849 0.848633H42.0606V3.27288H44.4849V0.848633Z" fill="#A74C47"/>
<path d="M46.9091 0.848633H44.4849V3.27288H46.9091V0.848633Z" fill="#A74C47"/>
<path d="M49.3334 0.848633H46.9091V3.27288H49.3334V0.848633Z" fill="#A74C47"/>
<path d="M51.7576 0.848633H49.3334V3.27288H51.7576V0.848633Z" fill="#A74C47"/>
<path d="M22.6667 3.27295H20.2424V5.69719H22.6667V3.27295Z" fill="#A74C47"/>
<path d="M27.5152 3.27295H25.0909V5.69719H27.5152V3.27295Z" fill="#A74C47"/>
<path d="M32.3637 3.27295H29.9395V5.69719H32.3637V3.27295Z" fill="#A74C47"/>
<path d="M37.2121 3.27295H34.7879V5.69719H37.2121V3.27295Z" fill="#A74C47"/>
<path d="M39.6364 3.27295H37.2122V5.69719H39.6364V3.27295Z" fill="#A74C47"/>
<path d="M46.9091 3.27295H44.4849V5.69719H46.9091V3.27295Z" fill="#A74C47"/>
<path d="M27.5152 5.69727H25.0909V8.12151H27.5152V5.69727Z" fill="#A74C47"/>
<path d="M32.3637 5.69727H29.9395V8.12151H32.3637V5.69727Z" fill="#A74C47"/>
<path d="M34.7879 5.69727H32.3636V8.12151H34.7879V5.69727Z" fill="#A74C47"/>
<path d="M37.2121 5.69727H34.7879V8.12151H37.2121V5.69727Z" fill="#A74C47"/>
<path d="M39.6364 5.69727H37.2122V8.12151H39.6364V5.69727Z" fill="#A74C47"/>
<path d="M49.3334 5.69727H46.9091V8.12151H49.3334V5.69727Z" fill="#A74C47"/>
<path d="M51.7576 5.69727H49.3334V8.12151H51.7576V5.69727Z" fill="#A74C47"/>
<path d="M22.6667 8.12158H20.2424V10.5458H22.6667V8.12158Z" fill="#A74C47"/>
<path d="M25.0909 8.12158H22.6667V10.5458H25.0909V8.12158Z" fill="#A74C47"/>
<path d="M32.3637 8.12158H29.9395V10.5458H32.3637V8.12158Z" fill="#A74C47"/>
<path d="M42.0607 8.12158H39.6364V10.5458H42.0607V8.12158Z" fill="#A74C47"/>
<path d="M44.4849 8.12158H42.0606V10.5458H44.4849V8.12158Z" fill="#A74C47"/>
<path d="M51.7576 8.12158H49.3334V10.5458H51.7576V8.12158Z" fill="#A74C47"/>
<path d="M25.0909 10.5454H22.6667V12.9697H25.0909V10.5454Z" fill="#A74C47"/>
<path d="M29.9394 10.5454H27.5152V12.9697H29.9394V10.5454Z" fill="#A74C47"/>
<path d="M34.7879 10.5454H32.3636V12.9697H34.7879V10.5454Z" fill="#A74C47"/>
<path d="M49.3334 10.5454H46.9091V12.9697H49.3334V10.5454Z" fill="#A74C47"/>
<path d="M25.0909 12.9697H22.6667V15.394H25.0909V12.9697Z" fill="#A74C47"/>
<path d="M29.9394 12.9697H27.5152V15.394H29.9394V12.9697Z" fill="#A74C47"/>
<path d="M32.3637 12.9697H29.9395V15.394H32.3637V12.9697Z" fill="#A74C47"/>
<path d="M37.2121 12.9697H34.7879V15.394H37.2121V12.9697Z" fill="#A74C47"/>
<path d="M44.4849 12.9697H42.0606V15.394H44.4849V12.9697Z" fill="#A74C47"/>
<path d="M49.3334 12.9697H46.9091V15.394H49.3334V12.9697Z" fill="#A74C47"/>
<path d="M22.6667 15.394H20.2424V17.8183H22.6667V15.394Z" fill="#A74C47"/>
<path d="M27.5152 15.394H25.0909V17.8183H27.5152V15.394Z" fill="#A74C47"/>
<path d="M32.3637 15.394H29.9395V17.8183H32.3637V15.394Z" fill="#A74C47"/>
<path d="M37.2121 15.394H34.7879V17.8183H37.2121V15.394Z" fill="#A74C47"/>
<path d="M42.0607 15.394H39.6364V17.8183H42.0607V15.394Z" fill="#A74C47"/>
<path d="M46.9091 15.394H44.4849V17.8183H46.9091V15.394Z" fill="#A74C47"/>
<path d="M51.7576 15.394H49.3334V17.8183H51.7576V15.394Z" fill="#A74C47"/>
<path d="M22.6667 17.8184H20.2424V20.2426H22.6667V17.8184Z" fill="#A74C47"/>
<path d="M25.0909 17.8184H22.6667V20.2426H25.0909V17.8184Z" fill="#A74C47"/>
<path d="M27.5152 17.8184H25.0909V20.2426H27.5152V17.8184Z" fill="#A74C47"/>
<path d="M32.3637 17.8184H29.9395V20.2426H32.3637V17.8184Z" fill="#A74C47"/>
<path d="M34.7879 17.8184H32.3636V20.2426H34.7879V17.8184Z" fill="#A74C47"/>
<path d="M37.2121 17.8184H34.7879V20.2426H37.2121V17.8184Z" fill="#A74C47"/>
<path d="M44.4849 17.8184H42.0606V20.2426H44.4849V17.8184Z" fill="#A74C47"/>
<path d="M46.9091 17.8184H44.4849V20.2426H46.9091V17.8184Z" fill="#A74C47"/>
<path d="M51.7576 17.8184H49.3334V20.2426H51.7576V17.8184Z" fill="#A74C47"/>
<path d="M3.27275 20.2427H0.848511V22.6669H3.27275V20.2427Z" fill="#A74C47"/>
<path d="M8.12126 20.2427H5.69702V22.6669H8.12126V20.2427Z" fill="#A74C47"/>
<path d="M10.5455 20.2427H8.12122V22.6669H10.5455V20.2427Z" fill="#A74C47"/>
<path d="M15.394 20.2427H12.9697V22.6669H15.394V20.2427Z" fill="#A74C47"/>
<path d="M17.8182 20.2427H15.394V22.6669H17.8182V20.2427Z" fill="#A74C47"/>
<path d="M20.2425 20.2427H17.8182V22.6669H20.2425V20.2427Z" fill="#A74C47"/>
<path d="M27.5152 20.2427H25.0909V22.6669H27.5152V20.2427Z" fill="#A74C47"/>
<path d="M29.9394 20.2427H27.5152V22.6669H29.9394V20.2427Z" fill="#A74C47"/>
<path d="M32.3637 20.2427H29.9395V22.6669H32.3637V20.2427Z" fill="#A74C47"/>
<path d="M34.7879 20.2427H32.3636V22.6669H34.7879V20.2427Z" fill="#A74C47"/>
<path d="M37.2121 20.2427H34.7879V22.6669H37.2121V20.2427Z" fill="#A74C47"/>
<path d="M42.0607 20.2427H39.6364V22.6669H42.0607V20.2427Z" fill="#A74C47"/>
<path d="M46.9091 20.2427H44.4849V22.6669H46.9091V20.2427Z" fill="#A74C47"/>
<path d="M49.3334 20.2427H46.9091V22.6669H49.3334V20.2427Z" fill="#A74C47"/>
<path d="M51.7576 20.2427H49.3334V22.6669H51.7576V20.2427Z" fill="#A74C47"/>
<path d="M56.6061 20.2427H54.1818V22.6669H56.6061V20.2427Z" fill="#A74C47"/>
<path d="M63.8788 20.2427H61.4546V22.6669H63.8788V20.2427Z" fill="#A74C47"/>
<path d="M68.7273 20.2427H66.303V22.6669H68.7273V20.2427Z" fill="#A74C47"/>
<path d="M71.1515 20.2427H68.7273V22.6669H71.1515V20.2427Z" fill="#A74C47"/>
<path d="M5.69701 22.667H3.27277V25.0912H5.69701V22.667Z" fill="#A74C47"/>
<path d="M12.9697 22.667H10.5455V25.0912H12.9697V22.667Z" fill="#A74C47"/>
<path d="M15.394 22.667H12.9697V25.0912H15.394V22.667Z" fill="#A74C47"/>
<path d="M20.2425 22.667H17.8182V25.0912H20.2425V22.667Z" fill="#A74C47"/>
<path d="M27.5152 22.667H25.0909V25.0912H27.5152V22.667Z" fill="#A74C47"/>
<path d="M29.9394 22.667H27.5152V25.0912H29.9394V22.667Z" fill="#A74C47"/>
<path d="M39.6364 22.667H37.2122V25.0912H39.6364V22.667Z" fill="#A74C47"/>
<path d="M42.0607 22.667H39.6364V25.0912H42.0607V22.667Z" fill="#A74C47"/>
<path d="M46.9091 22.667H44.4849V25.0912H46.9091V22.667Z" fill="#A74C47"/>
<path d="M49.3334 22.667H46.9091V25.0912H49.3334V22.667Z" fill="#A74C47"/>
<path d="M51.7576 22.667H49.3334V25.0912H51.7576V22.667Z" fill="#A74C47"/>
<path d="M54.1819 22.667H51.7576V25.0912H54.1819V22.667Z" fill="#A74C47"/>
<path d="M56.6061 22.667H54.1818V25.0912H56.6061V22.667Z" fill="#A74C47"/>
<path d="M61.4546 22.667H59.0303V25.0912H61.4546V22.667Z" fill="#A74C47"/>
<path d="M71.1515 22.667H68.7273V25.0912H71.1515V22.667Z" fill="#A74C47"/>
<path d="M3.27275 25.0908H0.848511V27.5151H3.27275V25.0908Z" fill="#A74C47"/>
<path d="M8.12126 25.0908H5.69702V27.5151H8.12126V25.0908Z" fill="#A74C47"/>
<path d="M15.394 25.0908H12.9697V27.5151H15.394V25.0908Z" fill="#A74C47"/>
<path d="M17.8182 25.0908H15.394V27.5151H17.8182V25.0908Z" fill="#A74C47"/>
<path d="M20.2425 25.0908H17.8182V27.5151H20.2425V25.0908Z" fill="#A74C47"/>
<path d="M37.2121 25.0908H34.7879V27.5151H37.2121V25.0908Z" fill="#A74C47"/>
<path d="M39.6364 25.0908H37.2122V27.5151H39.6364V25.0908Z" fill="#A74C47"/>
<path d="M51.7576 25.0908H49.3334V27.5151H51.7576V25.0908Z" fill="#A74C47"/>
<path d="M54.1819 25.0908H51.7576V27.5151H54.1819V25.0908Z" fill="#A74C47"/>
<path d="M56.6061 25.0908H54.1818V27.5151H56.6061V25.0908Z" fill="#A74C47"/>
<path d="M66.3031 25.0908H63.8788V27.5151H66.3031V25.0908Z" fill="#A74C47"/>
<path d="M68.7273 25.0908H66.303V27.5151H68.7273V25.0908Z" fill="#A74C47"/>
<path d="M3.27275 27.5151H0.848511V29.9394H3.27275V27.5151Z" fill="#A74C47"/>
<path d="M5.69701 27.5151H3.27277V29.9394H5.69701V27.5151Z" fill="#A74C47"/>
<path d="M8.12126 27.5151H5.69702V29.9394H8.12126V27.5151Z" fill="#A74C47"/>
<path d="M25.0909 27.5151H22.6667V29.9394H25.0909V27.5151Z" fill="#A74C47"/>
<path d="M27.5152 27.5151H25.0909V29.9394H27.5152V27.5151Z" fill="#A74C47"/>
<path d="M29.9394 27.5151H27.5152V29.9394H29.9394V27.5151Z" fill="#A74C47"/>
<path d="M34.7879 27.5151H32.3636V29.9394H34.7879V27.5151Z" fill="#A74C47"/>
<path d="M37.2121 27.5151H34.7879V29.9394H37.2121V27.5151Z" fill="#A74C47"/>
<path d="M39.6364 27.5151H37.2122V29.9394H39.6364V27.5151Z" fill="#A74C47"/>
<path d="M54.1819 27.5151H51.7576V29.9394H54.1819V27.5151Z" fill="#A74C47"/>
<path d="M59.0303 27.5151H56.6061V29.9394H59.0303V27.5151Z" fill="#A74C47"/>
<path d="M71.1515 27.5151H68.7273V29.9394H71.1515V27.5151Z" fill="#A74C47"/>
<path d="M5.69701 29.9395H3.27277V32.3637H5.69701V29.9395Z" fill="#A74C47"/>
<path d="M8.12126 29.9395H5.69702V32.3637H8.12126V29.9395Z" fill="#A74C47"/>
<path d="M10.5455 29.9395H8.12122V32.3637H10.5455V29.9395Z" fill="#A74C47"/>
<path d="M12.9697 29.9395H10.5455V32.3637H12.9697V29.9395Z" fill="#A74C47"/>
<path d="M17.8182 29.9395H15.394V32.3637H17.8182V29.9395Z" fill="#A74C47"/>
<path d="M22.6667 29.9395H20.2424V32.3637H22.6667V29.9395Z" fill="#A74C47"/>
<path d="M25.0909 29.9395H22.6667V32.3637H25.0909V29.9395Z" fill="#A74C47"/>
<path d="M29.9394 29.9395H27.5152V32.3637H29.9394V29.9395Z" fill="#A74C47"/>
<path d="M42.0607 29.9395H39.6364V32.3637H42.0607V29.9395Z" fill="#A74C47"/>
<path d="M44.4849 29.9395H42.0606V32.3637H44.4849V29.9395Z" fill="#A74C47"/>
<path d="M51.7576 29.9395H49.3334V32.3637H51.7576V29.9395Z" fill="#A74C47"/>
<path d="M63.8788 29.9395H61.4546V32.3637H63.8788V29.9395Z" fill="#A74C47"/>
<path d="M66.3031 29.9395H63.8788V32.3637H66.3031V29.9395Z" fill="#A74C47"/>
<path d="M3.27275 32.3638H0.848511V34.788H3.27275V32.3638Z" fill="#A74C47"/>
<path d="M5.69701 32.3638H3.27277V34.788H5.69701V32.3638Z" fill="#A74C47"/>
<path d="M12.9697 32.3638H10.5455V34.788H12.9697V32.3638Z" fill="#A74C47"/>
<path d="M22.6667 32.3638H20.2424V34.788H22.6667V32.3638Z" fill="#A74C47"/>
<path d="M25.0909 32.3638H22.6667V34.788H25.0909V32.3638Z" fill="#A74C47"/>
<path d="M32.3637 32.3638H29.9395V34.788H32.3637V32.3638Z" fill="#A74C47"/>
<path d="M34.7879 32.3638H32.3636V34.788H34.7879V32.3638Z" fill="#A74C47"/>
<path d="M49.3334 32.3638H46.9091V34.788H49.3334V32.3638Z" fill="#A74C47"/>
<path d="M66.3031 32.3638H63.8788V34.788H66.3031V32.3638Z" fill="#A74C47"/>
<path d="M68.7273 32.3638H66.303V34.788H68.7273V32.3638Z" fill="#A74C47"/>
<path d="M71.1515 32.3638H68.7273V34.788H71.1515V32.3638Z" fill="#A74C47"/>
<path d="M8.12126 34.7881H5.69702V37.2123H8.12126V34.7881Z" fill="#A74C47"/>
<path d="M17.8182 34.7881H15.394V37.2123H17.8182V34.7881Z" fill="#A74C47"/>
<path d="M32.3637 34.7881H29.9395V37.2123H32.3637V34.7881Z" fill="#A74C47"/>
<path d="M37.2121 34.7881H34.7879V37.2123H37.2121V34.7881Z" fill="#A74C47"/>
<path d="M44.4849 34.7881H42.0606V37.2123H44.4849V34.7881Z" fill="#A74C47"/>
<path d="M46.9091 34.7881H44.4849V37.2123H46.9091V34.7881Z" fill="#A74C47"/>
<path d="M49.3334 34.7881H46.9091V37.2123H49.3334V34.7881Z" fill="#A74C47"/>
<path d="M51.7576 34.7881H49.3334V37.2123H51.7576V34.7881Z" fill="#A74C47"/>
<path d="M59.0303 34.7881H56.6061V37.2123H59.0303V34.7881Z" fill="#A74C47"/>
<path d="M66.3031 34.7881H63.8788V37.2123H66.3031V34.7881Z" fill="#A74C47"/>
<path d="M68.7273 34.7881H66.303V37.2123H68.7273V34.7881Z" fill="#A74C47"/>
<path d="M71.1515 34.7881H68.7273V37.2123H71.1515V34.7881Z" fill="#A74C47"/>
<path d="M10.5455 37.2124H8.12122V39.6366H10.5455V37.2124Z" fill="#A74C47"/>
<path d="M12.9697 37.2124H10.5455V39.6366H12.9697V37.2124Z" fill="#A74C47"/>
<path d="M15.394 37.2124H12.9697V39.6366H15.394V37.2124Z" fill="#A74C47"/>
<path d="M20.2425 37.2124H17.8182V39.6366H20.2425V37.2124Z" fill="#A74C47"/>
<path d="M22.6667 37.2124H20.2424V39.6366H22.6667V37.2124Z" fill="#A74C47"/>
<path d="M34.7879 37.2124H32.3636V39.6366H34.7879V37.2124Z" fill="#A74C47"/>
<path d="M39.6364 37.2124H37.2122V39.6366H39.6364V37.2124Z" fill="#A74C47"/>
<path d="M51.7576 37.2124H49.3334V39.6366H51.7576V37.2124Z" fill="#A74C47"/>
<path d="M54.1819 37.2124H51.7576V39.6366H54.1819V37.2124Z" fill="#A74C47"/>
<path d="M59.0303 37.2124H56.6061V39.6366H59.0303V37.2124Z" fill="#A74C47"/>
<path d="M68.7273 37.2124H66.303V39.6366H68.7273V37.2124Z" fill="#A74C47"/>
<path d="M3.27275 39.6367H0.848511V42.061H3.27275V39.6367Z" fill="#A74C47"/>
<path d="M8.12126 39.6367H5.69702V42.061H8.12126V39.6367Z" fill="#A74C47"/>
<path d="M12.9697 39.6367H10.5455V42.061H12.9697V39.6367Z" fill="#A74C47"/>
<path d="M17.8182 39.6367H15.394V42.061H17.8182V39.6367Z" fill="#A74C47"/>
<path d="M22.6667 39.6367H20.2424V42.061H22.6667V39.6367Z" fill="#A74C47"/>
<path d="M27.5152 39.6367H25.0909V42.061H27.5152V39.6367Z" fill="#A74C47"/>
<path d="M32.3637 39.6367H29.9395V42.061H32.3637V39.6367Z" fill="#A74C47"/>
<path d="M46.9091 39.6367H44.4849V42.061H46.9091V39.6367Z" fill="#A74C47"/>
<path d="M51.7576 39.6367H49.3334V42.061H51.7576V39.6367Z" fill="#A74C47"/>
<path d="M54.1819 39.6367H51.7576V42.061H54.1819V39.6367Z" fill="#A74C47"/>
<path d="M59.0303 39.6367H56.6061V42.061H59.0303V39.6367Z" fill="#A74C47"/>
<path d="M61.4546 39.6367H59.0303V42.061H61.4546V39.6367Z" fill="#A74C47"/>
<path d="M63.8788 39.6367H61.4546V42.061H63.8788V39.6367Z" fill="#A74C47"/>
<path d="M68.7273 39.6367H66.303V42.061H68.7273V39.6367Z" fill="#A74C47"/>
<path d="M15.394 42.0605H12.9697V44.4848H15.394V42.0605Z" fill="#A74C47"/>
<path d="M22.6667 42.0605H20.2424V44.4848H22.6667V42.0605Z" fill="#A74C47"/>
<path d="M25.0909 42.0605H22.6667V44.4848H25.0909V42.0605Z" fill="#A74C47"/>
<path d="M27.5152 42.0605H25.0909V44.4848H27.5152V42.0605Z" fill="#A74C47"/>
<path d="M29.9394 42.0605H27.5152V44.4848H29.9394V42.0605Z" fill="#A74C47"/>
<path d="M34.7879 42.0605H32.3636V44.4848H34.7879V42.0605Z" fill="#A74C47"/>
<path d="M46.9091 42.0605H44.4849V44.4848H46.9091V42.0605Z" fill="#A74C47"/>
<path d="M51.7576 42.0605H49.3334V44.4848H51.7576V42.0605Z" fill="#A74C47"/>
<path d="M59.0303 42.0605H56.6061V44.4848H59.0303V42.0605Z" fill="#A74C47"/>
<path d="M63.8788 42.0605H61.4546V44.4848H63.8788V42.0605Z" fill="#A74C47"/>
<path d="M66.3031 42.0605H63.8788V44.4848H66.3031V42.0605Z" fill="#A74C47"/>
<path d="M68.7273 42.0605H66.303V44.4848H68.7273V42.0605Z" fill="#A74C47"/>
<path d="M3.27275 44.4849H0.848511V46.9091H3.27275V44.4849Z" fill="#A74C47"/>
<path d="M8.12126 44.4849H5.69702V46.9091H8.12126V44.4849Z" fill="#A74C47"/>
<path d="M12.9697 44.4849H10.5455V46.9091H12.9697V44.4849Z" fill="#A74C47"/>
<path d="M15.394 44.4849H12.9697V46.9091H15.394V44.4849Z" fill="#A74C47"/>
<path d="M17.8182 44.4849H15.394V46.9091H17.8182V44.4849Z" fill="#A74C47"/>
<path d="M20.2425 44.4849H17.8182V46.9091H20.2425V44.4849Z" fill="#A74C47"/>
<path d="M22.6667 44.4849H20.2424V46.9091H22.6667V44.4849Z" fill="#A74C47"/>
<path d="M25.0909 44.4849H22.6667V46.9091H25.0909V44.4849Z" fill="#A74C47"/>
<path d="M29.9394 44.4849H27.5152V46.9091H29.9394V44.4849Z" fill="#A74C47"/>
<path d="M32.3637 44.4849H29.9395V46.9091H32.3637V44.4849Z" fill="#A74C47"/>
<path d="M54.1819 44.4849H51.7576V46.9091H54.1819V44.4849Z" fill="#A74C47"/>
<path d="M66.3031 44.4849H63.8788V46.9091H66.3031V44.4849Z" fill="#A74C47"/>
<path d="M10.5455 46.9092H8.12122V49.3334H10.5455V46.9092Z" fill="#A74C47"/>
<path d="M22.6667 46.9092H20.2424V49.3334H22.6667V46.9092Z" fill="#A74C47"/>
<path d="M25.0909 46.9092H22.6667V49.3334H25.0909V46.9092Z" fill="#A74C47"/>
<path d="M29.9394 46.9092H27.5152V49.3334H29.9394V46.9092Z" fill="#A74C47"/>
<path d="M32.3637 46.9092H29.9395V49.3334H32.3637V46.9092Z" fill="#A74C47"/>
<path d="M39.6364 46.9092H37.2122V49.3334H39.6364V46.9092Z" fill="#A74C47"/>
<path d="M42.0607 46.9092H39.6364V49.3334H42.0607V46.9092Z" fill="#A74C47"/>
<path d="M44.4849 46.9092H42.0606V49.3334H44.4849V46.9092Z" fill="#A74C47"/>
<path d="M54.1819 46.9092H51.7576V49.3334H54.1819V46.9092Z" fill="#A74C47"/>
<path d="M61.4546 46.9092H59.0303V49.3334H61.4546V46.9092Z" fill="#A74C47"/>
<path d="M66.3031 46.9092H63.8788V49.3334H66.3031V46.9092Z" fill="#A74C47"/>
<path d="M5.69701 49.3335H3.27277V51.7577H5.69701V49.3335Z" fill="#A74C47"/>
<path d="M10.5455 49.3335H8.12122V51.7577H10.5455V49.3335Z" fill="#A74C47"/>
<path d="M17.8182 49.3335H15.394V51.7577H17.8182V49.3335Z" fill="#A74C47"/>
<path d="M20.2425 49.3335H17.8182V51.7577H20.2425V49.3335Z" fill="#A74C47"/>
<path d="M22.6667 49.3335H20.2424V51.7577H22.6667V49.3335Z" fill="#A74C47"/>
<path d="M32.3637 49.3335H29.9395V51.7577H32.3637V49.3335Z" fill="#A74C47"/>
<path d="M34.7879 49.3335H32.3636V51.7577H34.7879V49.3335Z" fill="#A74C47"/>
<path d="M39.6364 49.3335H37.2122V51.7577H39.6364V49.3335Z" fill="#A74C47"/>
<path d="M49.3334 49.3335H46.9091V51.7577H49.3334V49.3335Z" fill="#A74C47"/>
<path d="M51.7576 49.3335H49.3334V51.7577H51.7576V49.3335Z" fill="#A74C47"/>
<path d="M54.1819 49.3335H51.7576V51.7577H54.1819V49.3335Z" fill="#A74C47"/>
<path d="M56.6061 49.3335H54.1818V51.7577H56.6061V49.3335Z" fill="#A74C47"/>
<path d="M59.0303 49.3335H56.6061V51.7577H59.0303V49.3335Z" fill="#A74C47"/>
<path d="M61.4546 49.3335H59.0303V51.7577H61.4546V49.3335Z" fill="#A74C47"/>
<path d="M63.8788 49.3335H61.4546V51.7577H63.8788V49.3335Z" fill="#A74C47"/>
<path d="M66.3031 49.3335H63.8788V51.7577H66.3031V49.3335Z" fill="#A74C47"/>
<path d="M22.6667 51.7578H20.2424V54.1821H22.6667V51.7578Z" fill="#A74C47"/>
<path d="M32.3637 51.7578H29.9395V54.1821H32.3637V51.7578Z" fill="#A74C47"/>
<path d="M34.7879 51.7578H32.3636V54.1821H34.7879V51.7578Z" fill="#A74C47"/>
<path d="M37.2121 51.7578H34.7879V54.1821H37.2121V51.7578Z" fill="#A74C47"/>
<path d="M39.6364 51.7578H37.2122V54.1821H39.6364V51.7578Z" fill="#A74C47"/>
<path d="M44.4849 51.7578H42.0606V54.1821H44.4849V51.7578Z" fill="#A74C47"/>
<path d="M46.9091 51.7578H44.4849V54.1821H46.9091V51.7578Z" fill="#A74C47"/>
<path d="M49.3334 51.7578H46.9091V54.1821H49.3334V51.7578Z" fill="#A74C47"/>
<path d="M51.7576 51.7578H49.3334V54.1821H51.7576V51.7578Z" fill="#A74C47"/>
<path d="M61.4546 51.7578H59.0303V54.1821H61.4546V51.7578Z" fill="#A74C47"/>
<path d="M63.8788 51.7578H61.4546V54.1821H63.8788V51.7578Z" fill="#A74C47"/>
<path d="M66.3031 51.7578H63.8788V54.1821H66.3031V51.7578Z" fill="#A74C47"/>
<path d="M68.7273 51.7578H66.303V54.1821H68.7273V51.7578Z" fill="#A74C47"/>
<path d="M71.1515 51.7578H68.7273V54.1821H71.1515V51.7578Z" fill="#A74C47"/>
<path d="M22.6667 54.1821H20.2424V56.6064H22.6667V54.1821Z" fill="#A74C47"/>
<path d="M29.9394 54.1821H27.5152V56.6064H29.9394V54.1821Z" fill="#A74C47"/>
<path d="M34.7879 54.1821H32.3636V56.6064H34.7879V54.1821Z" fill="#A74C47"/>
<path d="M42.0607 54.1821H39.6364V56.6064H42.0607V54.1821Z" fill="#A74C47"/>
<path d="M46.9091 54.1821H44.4849V56.6064H46.9091V54.1821Z" fill="#A74C47"/>
<path d="M49.3334 54.1821H46.9091V56.6064H49.3334V54.1821Z" fill="#A74C47"/>
<path d="M51.7576 54.1821H49.3334V56.6064H51.7576V54.1821Z" fill="#A74C47"/>
<path d="M56.6061 54.1821H54.1818V56.6064H56.6061V54.1821Z" fill="#A74C47"/>
<path d="M61.4546 54.1821H59.0303V56.6064H61.4546V54.1821Z" fill="#A74C47"/>
<path d="M63.8788 54.1821H61.4546V56.6064H63.8788V54.1821Z" fill="#A74C47"/>
<path d="M68.7273 54.1821H66.303V56.6064H68.7273V54.1821Z" fill="#A74C47"/>
<path d="M22.6667 56.6064H20.2424V59.0307H22.6667V56.6064Z" fill="#A74C47"/>
<path d="M29.9394 56.6064H27.5152V59.0307H29.9394V56.6064Z" fill="#A74C47"/>
<path d="M42.0607 56.6064H39.6364V59.0307H42.0607V56.6064Z" fill="#A74C47"/>
<path d="M44.4849 56.6064H42.0606V59.0307H44.4849V56.6064Z" fill="#A74C47"/>
<path d="M51.7576 56.6064H49.3334V59.0307H51.7576V56.6064Z" fill="#A74C47"/>
<path d="M61.4546 56.6064H59.0303V59.0307H61.4546V56.6064Z" fill="#A74C47"/>
<path d="M63.8788 56.6064H61.4546V59.0307H63.8788V56.6064Z" fill="#A74C47"/>
<path d="M68.7273 56.6064H66.303V59.0307H68.7273V56.6064Z" fill="#A74C47"/>
<path d="M25.0909 59.0303H22.6667V61.4545H25.0909V59.0303Z" fill="#A74C47"/>
<path d="M29.9394 59.0303H27.5152V61.4545H29.9394V59.0303Z" fill="#A74C47"/>
<path d="M32.3637 59.0303H29.9395V61.4545H32.3637V59.0303Z" fill="#A74C47"/>
<path d="M37.2121 59.0303H34.7879V61.4545H37.2121V59.0303Z" fill="#A74C47"/>
<path d="M39.6364 59.0303H37.2122V61.4545H39.6364V59.0303Z" fill="#A74C47"/>
<path d="M51.7576 59.0303H49.3334V61.4545H51.7576V59.0303Z" fill="#A74C47"/>
<path d="M54.1819 59.0303H51.7576V61.4545H54.1819V59.0303Z" fill="#A74C47"/>
<path d="M56.6061 59.0303H54.1818V61.4545H56.6061V59.0303Z" fill="#A74C47"/>
<path d="M59.0303 59.0303H56.6061V61.4545H59.0303V59.0303Z" fill="#A74C47"/>
<path d="M61.4546 59.0303H59.0303V61.4545H61.4546V59.0303Z" fill="#A74C47"/>
<path d="M66.3031 59.0303H63.8788V61.4545H66.3031V59.0303Z" fill="#A74C47"/>
<path d="M68.7273 59.0303H66.303V61.4545H68.7273V59.0303Z" fill="#A74C47"/>
<path d="M71.1515 59.0303H68.7273V61.4545H71.1515V59.0303Z" fill="#A74C47"/>
<path d="M22.6667 61.4546H20.2424V63.8788H22.6667V61.4546Z" fill="#A74C47"/>
<path d="M25.0909 61.4546H22.6667V63.8788H25.0909V61.4546Z" fill="#A74C47"/>
<path d="M27.5152 61.4546H25.0909V63.8788H27.5152V61.4546Z" fill="#A74C47"/>
<path d="M29.9394 61.4546H27.5152V63.8788H29.9394V61.4546Z" fill="#A74C47"/>
<path d="M32.3637 61.4546H29.9395V63.8788H32.3637V61.4546Z" fill="#A74C47"/>
<path d="M34.7879 61.4546H32.3636V63.8788H34.7879V61.4546Z" fill="#A74C47"/>
<path d="M37.2121 61.4546H34.7879V63.8788H37.2121V61.4546Z" fill="#A74C47"/>
<path d="M42.0607 61.4546H39.6364V63.8788H42.0607V61.4546Z" fill="#A74C47"/>
<path d="M44.4849 61.4546H42.0606V63.8788H44.4849V61.4546Z" fill="#A74C47"/>
<path d="M49.3334 61.4546H46.9091V63.8788H49.3334V61.4546Z" fill="#A74C47"/>
<path d="M54.1819 61.4546H51.7576V63.8788H54.1819V61.4546Z" fill="#A74C47"/>
<path d="M59.0303 61.4546H56.6061V63.8788H59.0303V61.4546Z" fill="#A74C47"/>
<path d="M61.4546 61.4546H59.0303V63.8788H61.4546V61.4546Z" fill="#A74C47"/>
<path d="M63.8788 61.4546H61.4546V63.8788H63.8788V61.4546Z" fill="#A74C47"/>
<path d="M68.7273 61.4546H66.303V63.8788H68.7273V61.4546Z" fill="#A74C47"/>
<path d="M22.6667 63.8789H20.2424V66.3031H22.6667V63.8789Z" fill="#A74C47"/>
<path d="M25.0909 63.8789H22.6667V66.3031H25.0909V63.8789Z" fill="#A74C47"/>
<path d="M29.9394 63.8789H27.5152V66.3031H29.9394V63.8789Z" fill="#A74C47"/>
<path d="M39.6364 63.8789H37.2122V66.3031H39.6364V63.8789Z" fill="#A74C47"/>
<path d="M42.0607 63.8789H39.6364V66.3031H42.0607V63.8789Z" fill="#A74C47"/>
<path d="M49.3334 63.8789H46.9091V66.3031H49.3334V63.8789Z" fill="#A74C47"/>
<path d="M66.3031 63.8789H63.8788V66.3031H66.3031V63.8789Z" fill="#A74C47"/>
<path d="M71.1515 63.8789H68.7273V66.3031H71.1515V63.8789Z" fill="#A74C47"/>
<path d="M27.5152 66.3032H25.0909V68.7275H27.5152V66.3032Z" fill="#A74C47"/>
<path d="M34.7879 66.3032H32.3636V68.7275H34.7879V66.3032Z" fill="#A74C47"/>
<path d="M42.0607 66.3032H39.6364V68.7275H42.0607V66.3032Z" fill="#A74C47"/>
<path d="M49.3334 66.3032H46.9091V68.7275H49.3334V66.3032Z" fill="#A74C47"/>
<path d="M51.7576 66.3032H49.3334V68.7275H51.7576V66.3032Z" fill="#A74C47"/>
<path d="M56.6061 66.3032H54.1818V68.7275H56.6061V66.3032Z" fill="#A74C47"/>
<path d="M61.4546 66.3032H59.0303V68.7275H61.4546V66.3032Z" fill="#A74C47"/>
<path d="M63.8788 66.3032H61.4546V68.7275H63.8788V66.3032Z" fill="#A74C47"/>
<path d="M68.7273 66.3032H66.303V68.7275H68.7273V66.3032Z" fill="#A74C47"/>
<path d="M22.6667 68.7275H20.2424V71.1518H22.6667V68.7275Z" fill="#A74C47"/>
<path d="M27.5152 68.7275H25.0909V71.1518H27.5152V68.7275Z" fill="#A74C47"/>
<path d="M29.9394 68.7275H27.5152V71.1518H29.9394V68.7275Z" fill="#A74C47"/>
<path d="M39.6364 68.7275H37.2122V71.1518H39.6364V68.7275Z" fill="#A74C47"/>
<path d="M42.0607 68.7275H39.6364V71.1518H42.0607V68.7275Z" fill="#A74C47"/>
<path d="M44.4849 68.7275H42.0606V71.1518H44.4849V68.7275Z" fill="#A74C47"/>
<path d="M49.3334 68.7275H46.9091V71.1518H49.3334V68.7275Z" fill="#A74C47"/>
<path d="M51.7576 68.7275H49.3334V71.1518H51.7576V68.7275Z" fill="#A74C47"/>
<path d="M54.1819 68.7275H51.7576V71.1518H54.1819V68.7275Z" fill="#A74C47"/>
<path d="M63.8788 68.7275H61.4546V71.1518H63.8788V68.7275Z" fill="#A74C47"/>
<path d="M68.7273 68.7275H66.303V71.1518H68.7273V68.7275Z" fill="#A74C47"/>
<path d="M15.2728 0.848633H3.39397H0.848511V3.39409V15.2729V17.8183H3.39397H15.2728H17.8182V15.2729V3.39409V0.848633H15.2728ZM15.2728 15.2729H3.39397V3.39409H15.2728V15.2729Z" fill="#A74C47"/>
<path d="M68.6061 0.848633H56.7273H54.1818V3.39409V15.2729V17.8183H56.7273H68.6061H71.1515V15.2729V3.39409V0.848633H68.6061ZM68.6061 15.2729H56.7273V3.39409H68.6061V15.2729Z" fill="#A74C47"/>
<path d="M15.2728 54.1821H3.39397H0.848511V56.7276V68.6064V71.1518H3.39397H15.2728H17.8182V68.6064V56.7276V54.1821H15.2728ZM15.2728 68.6064H3.39397V56.7276H15.2728V68.6064Z" fill="#A74C47"/>
<path d="M12.9697 5.69727H5.69702V12.97H12.9697V5.69727Z" fill="#A74C47"/>
<path d="M66.3031 5.69727H59.0303V12.97H66.3031V5.69727Z" fill="#A74C47"/>
<path d="M12.9697 59.0303H5.69702V66.303H12.9697V59.0303Z" fill="#A74C47"/>
</svg>
