<svg width="180" height="168" viewBox="0 0 180 168" fill="none" xmlns="http://www.w3.org/2000/svg">
<rect x="2" y="2" width="176" height="164" rx="12" fill="#E9F1EE"/>
<rect x="1" y="1" width="178" height="166" rx="13" stroke="#A74C47" stroke-opacity="0.16" stroke-width="2"/>
<g clip-path="url(#clip0_70_3463)">
<path d="M79.3333 29.8789H77.3939V31.8183H79.3333V29.8789Z" fill="#A74C47"/>
<path d="M81.2728 29.8789H79.3334V31.8183H81.2728V29.8789Z" fill="#A74C47"/>
<path d="M83.2121 29.8789H81.2727V31.8183H83.2121V29.8789Z" fill="#A74C47"/>
<path d="M92.9091 29.8789H90.9697V31.8183H92.9091V29.8789Z" fill="#A74C47"/>
<path d="M94.8485 29.8789H92.9091V31.8183H94.8485V29.8789Z" fill="#A74C47"/>
<path d="M96.7879 29.8789H94.8485V31.8183H96.7879V29.8789Z" fill="#A74C47"/>
<path d="M98.7272 29.8789H96.7878V31.8183H98.7272V29.8789Z" fill="#A74C47"/>
<path d="M100.667 29.8789H98.7273V31.8183H100.667V29.8789Z" fill="#A74C47"/>
<path d="M102.606 29.8789H100.667V31.8183H102.606V29.8789Z" fill="#A74C47"/>
<path d="M79.3333 31.8184H77.3939V33.7578H79.3333V31.8184Z" fill="#A74C47"/>
<path d="M83.2121 31.8184H81.2727V33.7578H83.2121V31.8184Z" fill="#A74C47"/>
<path d="M87.0909 31.8184H85.1515V33.7578H87.0909V31.8184Z" fill="#A74C47"/>
<path d="M90.9697 31.8184H89.0303V33.7578H90.9697V31.8184Z" fill="#A74C47"/>
<path d="M92.9091 31.8184H90.9697V33.7578H92.9091V31.8184Z" fill="#A74C47"/>
<path d="M98.7272 31.8184H96.7878V33.7578H98.7272V31.8184Z" fill="#A74C47"/>
<path d="M83.2121 33.7578H81.2727V35.6972H83.2121V33.7578Z" fill="#A74C47"/>
<path d="M87.0909 33.7578H85.1515V35.6972H87.0909V33.7578Z" fill="#A74C47"/>
<path d="M89.0303 33.7578H87.0909V35.6972H89.0303V33.7578Z" fill="#A74C47"/>
<path d="M90.9697 33.7578H89.0303V35.6972H90.9697V33.7578Z" fill="#A74C47"/>
<path d="M92.9091 33.7578H90.9697V35.6972H92.9091V33.7578Z" fill="#A74C47"/>
<path d="M100.667 33.7578H98.7273V35.6972H100.667V33.7578Z" fill="#A74C47"/>
<path d="M102.606 33.7578H100.667V35.6972H102.606V33.7578Z" fill="#A74C47"/>
<path d="M79.3333 35.697H77.3939V37.6364H79.3333V35.697Z" fill="#A74C47"/>
<path d="M81.2728 35.697H79.3334V37.6364H81.2728V35.697Z" fill="#A74C47"/>
<path d="M87.0909 35.697H85.1515V37.6364H87.0909V35.697Z" fill="#A74C47"/>
<path d="M94.8485 35.697H92.9091V37.6364H94.8485V35.697Z" fill="#A74C47"/>
<path d="M96.7879 35.697H94.8485V37.6364H96.7879V35.697Z" fill="#A74C47"/>
<path d="M102.606 35.697H100.667V37.6364H102.606V35.697Z" fill="#A74C47"/>
<path d="M81.2728 37.6365H79.3334V39.5759H81.2728V37.6365Z" fill="#A74C47"/>
<path d="M85.1516 37.6365H83.2122V39.5759H85.1516V37.6365Z" fill="#A74C47"/>
<path d="M89.0303 37.6365H87.0909V39.5759H89.0303V37.6365Z" fill="#A74C47"/>
<path d="M100.667 37.6365H98.7273V39.5759H100.667V37.6365Z" fill="#A74C47"/>
<path d="M81.2728 39.5759H79.3334V41.5153H81.2728V39.5759Z" fill="#A74C47"/>
<path d="M85.1516 39.5759H83.2122V41.5153H85.1516V39.5759Z" fill="#A74C47"/>
<path d="M87.0909 39.5759H85.1515V41.5153H87.0909V39.5759Z" fill="#A74C47"/>
<path d="M90.9697 39.5759H89.0303V41.5153H90.9697V39.5759Z" fill="#A74C47"/>
<path d="M96.7879 39.5759H94.8485V41.5153H96.7879V39.5759Z" fill="#A74C47"/>
<path d="M100.667 39.5759H98.7273V41.5153H100.667V39.5759Z" fill="#A74C47"/>
<path d="M79.3333 41.5154H77.3939V43.4548H79.3333V41.5154Z" fill="#A74C47"/>
<path d="M83.2121 41.5154H81.2727V43.4548H83.2121V41.5154Z" fill="#A74C47"/>
<path d="M87.0909 41.5154H85.1515V43.4548H87.0909V41.5154Z" fill="#A74C47"/>
<path d="M90.9697 41.5154H89.0303V43.4548H90.9697V41.5154Z" fill="#A74C47"/>
<path d="M94.8485 41.5154H92.9091V43.4548H94.8485V41.5154Z" fill="#A74C47"/>
<path d="M98.7272 41.5154H96.7878V43.4548H98.7272V41.5154Z" fill="#A74C47"/>
<path d="M102.606 41.5154H100.667V43.4548H102.606V41.5154Z" fill="#A74C47"/>
<path d="M79.3333 43.4546H77.3939V45.394H79.3333V43.4546Z" fill="#A74C47"/>
<path d="M81.2728 43.4546H79.3334V45.394H81.2728V43.4546Z" fill="#A74C47"/>
<path d="M83.2121 43.4546H81.2727V45.394H83.2121V43.4546Z" fill="#A74C47"/>
<path d="M87.0909 43.4546H85.1515V45.394H87.0909V43.4546Z" fill="#A74C47"/>
<path d="M89.0303 43.4546H87.0909V45.394H89.0303V43.4546Z" fill="#A74C47"/>
<path d="M90.9697 43.4546H89.0303V45.394H90.9697V43.4546Z" fill="#A74C47"/>
<path d="M96.7879 43.4546H94.8485V45.394H96.7879V43.4546Z" fill="#A74C47"/>
<path d="M98.7272 43.4546H96.7878V45.394H98.7272V43.4546Z" fill="#A74C47"/>
<path d="M102.606 43.4546H100.667V45.394H102.606V43.4546Z" fill="#A74C47"/>
<path d="M63.8182 45.394H61.8788V47.3334H63.8182V45.394Z" fill="#A74C47"/>
<path d="M67.697 45.394H65.7576V47.3334H67.697V45.394Z" fill="#A74C47"/>
<path d="M69.6364 45.394H67.697V47.3334H69.6364V45.394Z" fill="#A74C47"/>
<path d="M73.5152 45.394H71.5758V47.3334H73.5152V45.394Z" fill="#A74C47"/>
<path d="M75.4545 45.394H73.5151V47.3334H75.4545V45.394Z" fill="#A74C47"/>
<path d="M77.394 45.394H75.4546V47.3334H77.394V45.394Z" fill="#A74C47"/>
<path d="M83.2121 45.394H81.2727V47.3334H83.2121V45.394Z" fill="#A74C47"/>
<path d="M85.1516 45.394H83.2122V47.3334H85.1516V45.394Z" fill="#A74C47"/>
<path d="M87.0909 45.394H85.1515V47.3334H87.0909V45.394Z" fill="#A74C47"/>
<path d="M89.0303 45.394H87.0909V47.3334H89.0303V45.394Z" fill="#A74C47"/>
<path d="M90.9697 45.394H89.0303V47.3334H90.9697V45.394Z" fill="#A74C47"/>
<path d="M94.8485 45.394H92.9091V47.3334H94.8485V45.394Z" fill="#A74C47"/>
<path d="M98.7272 45.394H96.7878V47.3334H98.7272V45.394Z" fill="#A74C47"/>
<path d="M100.667 45.394H98.7273V47.3334H100.667V45.394Z" fill="#A74C47"/>
<path d="M102.606 45.394H100.667V47.3334H102.606V45.394Z" fill="#A74C47"/>
<path d="M106.485 45.394H104.545V47.3334H106.485V45.394Z" fill="#A74C47"/>
<path d="M112.303 45.394H110.364V47.3334H112.303V45.394Z" fill="#A74C47"/>
<path d="M116.182 45.394H114.242V47.3334H116.182V45.394Z" fill="#A74C47"/>
<path d="M118.121 45.394H116.182V47.3334H118.121V45.394Z" fill="#A74C47"/>
<path d="M65.7576 47.3335H63.8182V49.2729H65.7576V47.3335Z" fill="#A74C47"/>
<path d="M71.5757 47.3335H69.6364V49.2729H71.5757V47.3335Z" fill="#A74C47"/>
<path d="M73.5152 47.3335H71.5758V49.2729H73.5152V47.3335Z" fill="#A74C47"/>
<path d="M77.394 47.3335H75.4546V49.2729H77.394V47.3335Z" fill="#A74C47"/>
<path d="M83.2121 47.3335H81.2727V49.2729H83.2121V47.3335Z" fill="#A74C47"/>
<path d="M85.1516 47.3335H83.2122V49.2729H85.1516V47.3335Z" fill="#A74C47"/>
<path d="M92.9091 47.3335H90.9697V49.2729H92.9091V47.3335Z" fill="#A74C47"/>
<path d="M94.8485 47.3335H92.9091V49.2729H94.8485V47.3335Z" fill="#A74C47"/>
<path d="M98.7272 47.3335H96.7878V49.2729H98.7272V47.3335Z" fill="#A74C47"/>
<path d="M100.667 47.3335H98.7273V49.2729H100.667V47.3335Z" fill="#A74C47"/>
<path d="M102.606 47.3335H100.667V49.2729H102.606V47.3335Z" fill="#A74C47"/>
<path d="M104.545 47.3335H102.606V49.2729H104.545V47.3335Z" fill="#A74C47"/>
<path d="M106.485 47.3335H104.545V49.2729H106.485V47.3335Z" fill="#A74C47"/>
<path d="M110.364 47.3335H108.424V49.2729H110.364V47.3335Z" fill="#A74C47"/>
<path d="M118.121 47.3335H116.182V49.2729H118.121V47.3335Z" fill="#A74C47"/>
<path d="M63.8182 49.2729H61.8788V51.2123H63.8182V49.2729Z" fill="#A74C47"/>
<path d="M67.697 49.2729H65.7576V51.2123H67.697V49.2729Z" fill="#A74C47"/>
<path d="M73.5152 49.2729H71.5758V51.2123H73.5152V49.2729Z" fill="#A74C47"/>
<path d="M75.4545 49.2729H73.5151V51.2123H75.4545V49.2729Z" fill="#A74C47"/>
<path d="M77.394 49.2729H75.4546V51.2123H77.394V49.2729Z" fill="#A74C47"/>
<path d="M90.9697 49.2729H89.0303V51.2123H90.9697V49.2729Z" fill="#A74C47"/>
<path d="M92.9091 49.2729H90.9697V51.2123H92.9091V49.2729Z" fill="#A74C47"/>
<path d="M102.606 49.2729H100.667V51.2123H102.606V49.2729Z" fill="#A74C47"/>
<path d="M104.545 49.2729H102.606V51.2123H104.545V49.2729Z" fill="#A74C47"/>
<path d="M106.485 49.2729H104.545V51.2123H106.485V49.2729Z" fill="#A74C47"/>
<path d="M114.242 49.2729H112.303V51.2123H114.242V49.2729Z" fill="#A74C47"/>
<path d="M116.182 49.2729H114.242V51.2123H116.182V49.2729Z" fill="#A74C47"/>
<path d="M63.8182 51.2122H61.8788V53.1516H63.8182V51.2122Z" fill="#A74C47"/>
<path d="M65.7576 51.2122H63.8182V53.1516H65.7576V51.2122Z" fill="#A74C47"/>
<path d="M67.697 51.2122H65.7576V53.1516H67.697V51.2122Z" fill="#A74C47"/>
<path d="M81.2728 51.2122H79.3334V53.1516H81.2728V51.2122Z" fill="#A74C47"/>
<path d="M83.2121 51.2122H81.2727V53.1516H83.2121V51.2122Z" fill="#A74C47"/>
<path d="M85.1516 51.2122H83.2122V53.1516H85.1516V51.2122Z" fill="#A74C47"/>
<path d="M89.0303 51.2122H87.0909V53.1516H89.0303V51.2122Z" fill="#A74C47"/>
<path d="M90.9697 51.2122H89.0303V53.1516H90.9697V51.2122Z" fill="#A74C47"/>
<path d="M92.9091 51.2122H90.9697V53.1516H92.9091V51.2122Z" fill="#A74C47"/>
<path d="M104.545 51.2122H102.606V53.1516H104.545V51.2122Z" fill="#A74C47"/>
<path d="M108.424 51.2122H106.485V53.1516H108.424V51.2122Z" fill="#A74C47"/>
<path d="M118.121 51.2122H116.182V53.1516H118.121V51.2122Z" fill="#A74C47"/>
<path d="M65.7576 53.1516H63.8182V55.091H65.7576V53.1516Z" fill="#A74C47"/>
<path d="M67.697 53.1516H65.7576V55.091H67.697V53.1516Z" fill="#A74C47"/>
<path d="M69.6364 53.1516H67.697V55.091H69.6364V53.1516Z" fill="#A74C47"/>
<path d="M71.5757 53.1516H69.6364V55.091H71.5757V53.1516Z" fill="#A74C47"/>
<path d="M75.4545 53.1516H73.5151V55.091H75.4545V53.1516Z" fill="#A74C47"/>
<path d="M79.3333 53.1516H77.3939V55.091H79.3333V53.1516Z" fill="#A74C47"/>
<path d="M81.2728 53.1516H79.3334V55.091H81.2728V53.1516Z" fill="#A74C47"/>
<path d="M85.1516 53.1516H83.2122V55.091H85.1516V53.1516Z" fill="#A74C47"/>
<path d="M94.8485 53.1516H92.9091V55.091H94.8485V53.1516Z" fill="#A74C47"/>
<path d="M96.7879 53.1516H94.8485V55.091H96.7879V53.1516Z" fill="#A74C47"/>
<path d="M102.606 53.1516H100.667V55.091H102.606V53.1516Z" fill="#A74C47"/>
<path d="M112.303 53.1516H110.364V55.091H112.303V53.1516Z" fill="#A74C47"/>
<path d="M114.242 53.1516H112.303V55.091H114.242V53.1516Z" fill="#A74C47"/>
<path d="M63.8182 55.0911H61.8788V57.0305H63.8182V55.0911Z" fill="#A74C47"/>
<path d="M65.7576 55.0911H63.8182V57.0305H65.7576V55.0911Z" fill="#A74C47"/>
<path d="M71.5757 55.0911H69.6364V57.0305H71.5757V55.0911Z" fill="#A74C47"/>
<path d="M79.3333 55.0911H77.3939V57.0305H79.3333V55.0911Z" fill="#A74C47"/>
<path d="M81.2728 55.0911H79.3334V57.0305H81.2728V55.0911Z" fill="#A74C47"/>
<path d="M87.0909 55.0911H85.1515V57.0305H87.0909V55.0911Z" fill="#A74C47"/>
<path d="M89.0303 55.0911H87.0909V57.0305H89.0303V55.0911Z" fill="#A74C47"/>
<path d="M100.667 55.0911H98.7273V57.0305H100.667V55.0911Z" fill="#A74C47"/>
<path d="M114.242 55.0911H112.303V57.0305H114.242V55.0911Z" fill="#A74C47"/>
<path d="M116.182 55.0911H114.242V57.0305H116.182V55.0911Z" fill="#A74C47"/>
<path d="M118.121 55.0911H116.182V57.0305H118.121V55.0911Z" fill="#A74C47"/>
<path d="M67.697 57.0305H65.7576V58.9699H67.697V57.0305Z" fill="#A74C47"/>
<path d="M75.4545 57.0305H73.5151V58.9699H75.4545V57.0305Z" fill="#A74C47"/>
<path d="M87.0909 57.0305H85.1515V58.9699H87.0909V57.0305Z" fill="#A74C47"/>
<path d="M90.9697 57.0305H89.0303V58.9699H90.9697V57.0305Z" fill="#A74C47"/>
<path d="M96.7879 57.0305H94.8485V58.9699H96.7879V57.0305Z" fill="#A74C47"/>
<path d="M98.7272 57.0305H96.7878V58.9699H98.7272V57.0305Z" fill="#A74C47"/>
<path d="M100.667 57.0305H98.7273V58.9699H100.667V57.0305Z" fill="#A74C47"/>
<path d="M102.606 57.0305H100.667V58.9699H102.606V57.0305Z" fill="#A74C47"/>
<path d="M108.424 57.0305H106.485V58.9699H108.424V57.0305Z" fill="#A74C47"/>
<path d="M114.242 57.0305H112.303V58.9699H114.242V57.0305Z" fill="#A74C47"/>
<path d="M116.182 57.0305H114.242V58.9699H116.182V57.0305Z" fill="#A74C47"/>
<path d="M118.121 57.0305H116.182V58.9699H118.121V57.0305Z" fill="#A74C47"/>
<path d="M69.6364 58.9697H67.697V60.9091H69.6364V58.9697Z" fill="#A74C47"/>
<path d="M71.5757 58.9697H69.6364V60.9091H71.5757V58.9697Z" fill="#A74C47"/>
<path d="M73.5152 58.9697H71.5758V60.9091H73.5152V58.9697Z" fill="#A74C47"/>
<path d="M77.394 58.9697H75.4546V60.9091H77.394V58.9697Z" fill="#A74C47"/>
<path d="M79.3333 58.9697H77.3939V60.9091H79.3333V58.9697Z" fill="#A74C47"/>
<path d="M89.0303 58.9697H87.0909V60.9091H89.0303V58.9697Z" fill="#A74C47"/>
<path d="M92.9091 58.9697H90.9697V60.9091H92.9091V58.9697Z" fill="#A74C47"/>
<path d="M102.606 58.9697H100.667V60.9091H102.606V58.9697Z" fill="#A74C47"/>
<path d="M104.545 58.9697H102.606V60.9091H104.545V58.9697Z" fill="#A74C47"/>
<path d="M108.424 58.9697H106.485V60.9091H108.424V58.9697Z" fill="#A74C47"/>
<path d="M116.182 58.9697H114.242V60.9091H116.182V58.9697Z" fill="#A74C47"/>
<path d="M63.8182 60.9092H61.8788V62.8486H63.8182V60.9092Z" fill="#A74C47"/>
<path d="M67.697 60.9092H65.7576V62.8486H67.697V60.9092Z" fill="#A74C47"/>
<path d="M71.5757 60.9092H69.6364V62.8486H71.5757V60.9092Z" fill="#A74C47"/>
<path d="M75.4545 60.9092H73.5151V62.8486H75.4545V60.9092Z" fill="#A74C47"/>
<path d="M79.3333 60.9092H77.3939V62.8486H79.3333V60.9092Z" fill="#A74C47"/>
<path d="M83.2121 60.9092H81.2727V62.8486H83.2121V60.9092Z" fill="#A74C47"/>
<path d="M87.0909 60.9092H85.1515V62.8486H87.0909V60.9092Z" fill="#A74C47"/>
<path d="M98.7272 60.9092H96.7878V62.8486H98.7272V60.9092Z" fill="#A74C47"/>
<path d="M102.606 60.9092H100.667V62.8486H102.606V60.9092Z" fill="#A74C47"/>
<path d="M104.545 60.9092H102.606V62.8486H104.545V60.9092Z" fill="#A74C47"/>
<path d="M108.424 60.9092H106.485V62.8486H108.424V60.9092Z" fill="#A74C47"/>
<path d="M110.364 60.9092H108.424V62.8486H110.364V60.9092Z" fill="#A74C47"/>
<path d="M112.303 60.9092H110.364V62.8486H112.303V60.9092Z" fill="#A74C47"/>
<path d="M116.182 60.9092H114.242V62.8486H116.182V60.9092Z" fill="#A74C47"/>
<path d="M73.5152 62.8486H71.5758V64.788H73.5152V62.8486Z" fill="#A74C47"/>
<path d="M79.3333 62.8486H77.3939V64.788H79.3333V62.8486Z" fill="#A74C47"/>
<path d="M81.2728 62.8486H79.3334V64.788H81.2728V62.8486Z" fill="#A74C47"/>
<path d="M83.2121 62.8486H81.2727V64.788H83.2121V62.8486Z" fill="#A74C47"/>
<path d="M85.1516 62.8486H83.2122V64.788H85.1516V62.8486Z" fill="#A74C47"/>
<path d="M89.0303 62.8486H87.0909V64.788H89.0303V62.8486Z" fill="#A74C47"/>
<path d="M98.7272 62.8486H96.7878V64.788H98.7272V62.8486Z" fill="#A74C47"/>
<path d="M102.606 62.8486H100.667V64.788H102.606V62.8486Z" fill="#A74C47"/>
<path d="M108.424 62.8486H106.485V64.788H108.424V62.8486Z" fill="#A74C47"/>
<path d="M112.303 62.8486H110.364V64.788H112.303V62.8486Z" fill="#A74C47"/>
<path d="M114.242 62.8486H112.303V64.788H114.242V62.8486Z" fill="#A74C47"/>
<path d="M116.182 62.8486H114.242V64.788H116.182V62.8486Z" fill="#A74C47"/>
<path d="M63.8182 64.7881H61.8788V66.7275H63.8182V64.7881Z" fill="#A74C47"/>
<path d="M67.697 64.7881H65.7576V66.7275H67.697V64.7881Z" fill="#A74C47"/>
<path d="M71.5757 64.7881H69.6364V66.7275H71.5757V64.7881Z" fill="#A74C47"/>
<path d="M73.5152 64.7881H71.5758V66.7275H73.5152V64.7881Z" fill="#A74C47"/>
<path d="M75.4545 64.7881H73.5151V66.7275H75.4545V64.7881Z" fill="#A74C47"/>
<path d="M77.394 64.7881H75.4546V66.7275H77.394V64.7881Z" fill="#A74C47"/>
<path d="M79.3333 64.7881H77.3939V66.7275H79.3333V64.7881Z" fill="#A74C47"/>
<path d="M81.2728 64.7881H79.3334V66.7275H81.2728V64.7881Z" fill="#A74C47"/>
<path d="M85.1516 64.7881H83.2122V66.7275H85.1516V64.7881Z" fill="#A74C47"/>
<path d="M87.0909 64.7881H85.1515V66.7275H87.0909V64.7881Z" fill="#A74C47"/>
<path d="M104.545 64.7881H102.606V66.7275H104.545V64.7881Z" fill="#A74C47"/>
<path d="M114.242 64.7881H112.303V66.7275H114.242V64.7881Z" fill="#A74C47"/>
<path d="M69.6364 66.7273H67.697V68.6667H69.6364V66.7273Z" fill="#A74C47"/>
<path d="M79.3333 66.7273H77.3939V68.6667H79.3333V66.7273Z" fill="#A74C47"/>
<path d="M81.2728 66.7273H79.3334V68.6667H81.2728V66.7273Z" fill="#A74C47"/>
<path d="M85.1516 66.7273H83.2122V68.6667H85.1516V66.7273Z" fill="#A74C47"/>
<path d="M87.0909 66.7273H85.1515V68.6667H87.0909V66.7273Z" fill="#A74C47"/>
<path d="M92.9091 66.7273H90.9697V68.6667H92.9091V66.7273Z" fill="#A74C47"/>
<path d="M94.8485 66.7273H92.9091V68.6667H94.8485V66.7273Z" fill="#A74C47"/>
<path d="M96.7879 66.7273H94.8485V68.6667H96.7879V66.7273Z" fill="#A74C47"/>
<path d="M104.545 66.7273H102.606V68.6667H104.545V66.7273Z" fill="#A74C47"/>
<path d="M110.364 66.7273H108.424V68.6667H110.364V66.7273Z" fill="#A74C47"/>
<path d="M114.242 66.7273H112.303V68.6667H114.242V66.7273Z" fill="#A74C47"/>
<path d="M65.7576 68.6667H63.8182V70.6061H65.7576V68.6667Z" fill="#A74C47"/>
<path d="M69.6364 68.6667H67.697V70.6061H69.6364V68.6667Z" fill="#A74C47"/>
<path d="M75.4545 68.6667H73.5151V70.6061H75.4545V68.6667Z" fill="#A74C47"/>
<path d="M77.394 68.6667H75.4546V70.6061H77.394V68.6667Z" fill="#A74C47"/>
<path d="M79.3333 68.6667H77.3939V70.6061H79.3333V68.6667Z" fill="#A74C47"/>
<path d="M87.0909 68.6667H85.1515V70.6061H87.0909V68.6667Z" fill="#A74C47"/>
<path d="M89.0303 68.6667H87.0909V70.6061H89.0303V68.6667Z" fill="#A74C47"/>
<path d="M92.9091 68.6667H90.9697V70.6061H92.9091V68.6667Z" fill="#A74C47"/>
<path d="M100.667 68.6667H98.7273V70.6061H100.667V68.6667Z" fill="#A74C47"/>
<path d="M102.606 68.6667H100.667V70.6061H102.606V68.6667Z" fill="#A74C47"/>
<path d="M104.545 68.6667H102.606V70.6061H104.545V68.6667Z" fill="#A74C47"/>
<path d="M106.485 68.6667H104.545V70.6061H106.485V68.6667Z" fill="#A74C47"/>
<path d="M108.424 68.6667H106.485V70.6061H108.424V68.6667Z" fill="#A74C47"/>
<path d="M110.364 68.6667H108.424V70.6061H110.364V68.6667Z" fill="#A74C47"/>
<path d="M112.303 68.6667H110.364V70.6061H112.303V68.6667Z" fill="#A74C47"/>
<path d="M114.242 68.6667H112.303V70.6061H114.242V68.6667Z" fill="#A74C47"/>
<path d="M79.3333 70.6062H77.3939V72.5456H79.3333V70.6062Z" fill="#A74C47"/>
<path d="M87.0909 70.6062H85.1515V72.5456H87.0909V70.6062Z" fill="#A74C47"/>
<path d="M89.0303 70.6062H87.0909V72.5456H89.0303V70.6062Z" fill="#A74C47"/>
<path d="M90.9697 70.6062H89.0303V72.5456H90.9697V70.6062Z" fill="#A74C47"/>
<path d="M92.9091 70.6062H90.9697V72.5456H92.9091V70.6062Z" fill="#A74C47"/>
<path d="M96.7879 70.6062H94.8485V72.5456H96.7879V70.6062Z" fill="#A74C47"/>
<path d="M98.7272 70.6062H96.7878V72.5456H98.7272V70.6062Z" fill="#A74C47"/>
<path d="M100.667 70.6062H98.7273V72.5456H100.667V70.6062Z" fill="#A74C47"/>
<path d="M102.606 70.6062H100.667V72.5456H102.606V70.6062Z" fill="#A74C47"/>
<path d="M110.364 70.6062H108.424V72.5456H110.364V70.6062Z" fill="#A74C47"/>
<path d="M112.303 70.6062H110.364V72.5456H112.303V70.6062Z" fill="#A74C47"/>
<path d="M114.242 70.6062H112.303V72.5456H114.242V70.6062Z" fill="#A74C47"/>
<path d="M116.182 70.6062H114.242V72.5456H116.182V70.6062Z" fill="#A74C47"/>
<path d="M118.121 70.6062H116.182V72.5456H118.121V70.6062Z" fill="#A74C47"/>
<path d="M79.3333 72.5457H77.3939V74.485H79.3333V72.5457Z" fill="#A74C47"/>
<path d="M85.1516 72.5457H83.2122V74.485H85.1516V72.5457Z" fill="#A74C47"/>
<path d="M89.0303 72.5457H87.0909V74.485H89.0303V72.5457Z" fill="#A74C47"/>
<path d="M94.8485 72.5457H92.9091V74.485H94.8485V72.5457Z" fill="#A74C47"/>
<path d="M98.7272 72.5457H96.7878V74.485H98.7272V72.5457Z" fill="#A74C47"/>
<path d="M100.667 72.5457H98.7273V74.485H100.667V72.5457Z" fill="#A74C47"/>
<path d="M102.606 72.5457H100.667V74.485H102.606V72.5457Z" fill="#A74C47"/>
<path d="M106.485 72.5457H104.545V74.485H106.485V72.5457Z" fill="#A74C47"/>
<path d="M110.364 72.5457H108.424V74.485H110.364V72.5457Z" fill="#A74C47"/>
<path d="M112.303 72.5457H110.364V74.485H112.303V72.5457Z" fill="#A74C47"/>
<path d="M116.182 72.5457H114.242V74.485H116.182V72.5457Z" fill="#A74C47"/>
<path d="M79.3333 74.4849H77.3939V76.4243H79.3333V74.4849Z" fill="#A74C47"/>
<path d="M85.1516 74.4849H83.2122V76.4243H85.1516V74.4849Z" fill="#A74C47"/>
<path d="M94.8485 74.4849H92.9091V76.4243H94.8485V74.4849Z" fill="#A74C47"/>
<path d="M96.7879 74.4849H94.8485V76.4243H96.7879V74.4849Z" fill="#A74C47"/>
<path d="M102.606 74.4849H100.667V76.4243H102.606V74.4849Z" fill="#A74C47"/>
<path d="M110.364 74.4849H108.424V76.4243H110.364V74.4849Z" fill="#A74C47"/>
<path d="M112.303 74.4849H110.364V76.4243H112.303V74.4849Z" fill="#A74C47"/>
<path d="M116.182 74.4849H114.242V76.4243H116.182V74.4849Z" fill="#A74C47"/>
<path d="M81.2728 76.4243H79.3334V78.3637H81.2728V76.4243Z" fill="#A74C47"/>
<path d="M85.1516 76.4243H83.2122V78.3637H85.1516V76.4243Z" fill="#A74C47"/>
<path d="M87.0909 76.4243H85.1515V78.3637H87.0909V76.4243Z" fill="#A74C47"/>
<path d="M90.9697 76.4243H89.0303V78.3637H90.9697V76.4243Z" fill="#A74C47"/>
<path d="M92.9091 76.4243H90.9697V78.3637H92.9091V76.4243Z" fill="#A74C47"/>
<path d="M102.606 76.4243H100.667V78.3637H102.606V76.4243Z" fill="#A74C47"/>
<path d="M104.545 76.4243H102.606V78.3637H104.545V76.4243Z" fill="#A74C47"/>
<path d="M106.485 76.4243H104.545V78.3637H106.485V76.4243Z" fill="#A74C47"/>
<path d="M108.424 76.4243H106.485V78.3637H108.424V76.4243Z" fill="#A74C47"/>
<path d="M110.364 76.4243H108.424V78.3637H110.364V76.4243Z" fill="#A74C47"/>
<path d="M114.242 76.4243H112.303V78.3637H114.242V76.4243Z" fill="#A74C47"/>
<path d="M116.182 76.4243H114.242V78.3637H116.182V76.4243Z" fill="#A74C47"/>
<path d="M118.121 76.4243H116.182V78.3637H118.121V76.4243Z" fill="#A74C47"/>
<path d="M79.3333 78.3638H77.3939V80.3032H79.3333V78.3638Z" fill="#A74C47"/>
<path d="M81.2728 78.3638H79.3334V80.3032H81.2728V78.3638Z" fill="#A74C47"/>
<path d="M83.2121 78.3638H81.2727V80.3032H83.2121V78.3638Z" fill="#A74C47"/>
<path d="M85.1516 78.3638H83.2122V80.3032H85.1516V78.3638Z" fill="#A74C47"/>
<path d="M87.0909 78.3638H85.1515V80.3032H87.0909V78.3638Z" fill="#A74C47"/>
<path d="M89.0303 78.3638H87.0909V80.3032H89.0303V78.3638Z" fill="#A74C47"/>
<path d="M90.9697 78.3638H89.0303V80.3032H90.9697V78.3638Z" fill="#A74C47"/>
<path d="M94.8485 78.3638H92.9091V80.3032H94.8485V78.3638Z" fill="#A74C47"/>
<path d="M96.7879 78.3638H94.8485V80.3032H96.7879V78.3638Z" fill="#A74C47"/>
<path d="M100.667 78.3638H98.7273V80.3032H100.667V78.3638Z" fill="#A74C47"/>
<path d="M104.545 78.3638H102.606V80.3032H104.545V78.3638Z" fill="#A74C47"/>
<path d="M108.424 78.3638H106.485V80.3032H108.424V78.3638Z" fill="#A74C47"/>
<path d="M110.364 78.3638H108.424V80.3032H110.364V78.3638Z" fill="#A74C47"/>
<path d="M112.303 78.3638H110.364V80.3032H112.303V78.3638Z" fill="#A74C47"/>
<path d="M116.182 78.3638H114.242V80.3032H116.182V78.3638Z" fill="#A74C47"/>
<path d="M79.3333 80.3032H77.3939V82.2426H79.3333V80.3032Z" fill="#A74C47"/>
<path d="M81.2728 80.3032H79.3334V82.2426H81.2728V80.3032Z" fill="#A74C47"/>
<path d="M85.1516 80.3032H83.2122V82.2426H85.1516V80.3032Z" fill="#A74C47"/>
<path d="M92.9091 80.3032H90.9697V82.2426H92.9091V80.3032Z" fill="#A74C47"/>
<path d="M94.8485 80.3032H92.9091V82.2426H94.8485V80.3032Z" fill="#A74C47"/>
<path d="M100.667 80.3032H98.7273V82.2426H100.667V80.3032Z" fill="#A74C47"/>
<path d="M114.242 80.3032H112.303V82.2426H114.242V80.3032Z" fill="#A74C47"/>
<path d="M118.121 80.3032H116.182V82.2426H118.121V80.3032Z" fill="#A74C47"/>
<path d="M83.2121 82.2424H81.2727V84.1818H83.2121V82.2424Z" fill="#A74C47"/>
<path d="M89.0303 82.2424H87.0909V84.1818H89.0303V82.2424Z" fill="#A74C47"/>
<path d="M94.8485 82.2424H92.9091V84.1818H94.8485V82.2424Z" fill="#A74C47"/>
<path d="M100.667 82.2424H98.7273V84.1818H100.667V82.2424Z" fill="#A74C47"/>
<path d="M102.606 82.2424H100.667V84.1818H102.606V82.2424Z" fill="#A74C47"/>
<path d="M106.485 82.2424H104.545V84.1818H106.485V82.2424Z" fill="#A74C47"/>
<path d="M110.364 82.2424H108.424V84.1818H110.364V82.2424Z" fill="#A74C47"/>
<path d="M112.303 82.2424H110.364V84.1818H112.303V82.2424Z" fill="#A74C47"/>
<path d="M116.182 82.2424H114.242V84.1818H116.182V82.2424Z" fill="#A74C47"/>
<path d="M79.3333 84.1819H77.3939V86.1213H79.3333V84.1819Z" fill="#A74C47"/>
<path d="M83.2121 84.1819H81.2727V86.1213H83.2121V84.1819Z" fill="#A74C47"/>
<path d="M85.1516 84.1819H83.2122V86.1213H85.1516V84.1819Z" fill="#A74C47"/>
<path d="M92.9091 84.1819H90.9697V86.1213H92.9091V84.1819Z" fill="#A74C47"/>
<path d="M94.8485 84.1819H92.9091V86.1213H94.8485V84.1819Z" fill="#A74C47"/>
<path d="M96.7879 84.1819H94.8485V86.1213H96.7879V84.1819Z" fill="#A74C47"/>
<path d="M100.667 84.1819H98.7273V86.1213H100.667V84.1819Z" fill="#A74C47"/>
<path d="M102.606 84.1819H100.667V86.1213H102.606V84.1819Z" fill="#A74C47"/>
<path d="M104.545 84.1819H102.606V86.1213H104.545V84.1819Z" fill="#A74C47"/>
<path d="M112.303 84.1819H110.364V86.1213H112.303V84.1819Z" fill="#A74C47"/>
<path d="M116.182 84.1819H114.242V86.1213H116.182V84.1819Z" fill="#A74C47"/>
<path d="M73.4182 29.8789H63.9151H61.8788V31.9153V41.4183V43.4547H63.9151H73.4182H75.4545V41.4183V31.9153V29.8789H73.4182ZM73.4182 41.4183H63.9151V31.9153H73.4182V41.4183Z" fill="#A74C47"/>
<path d="M116.085 29.8789H106.582H104.545V31.9153V41.4183V43.4547H106.582H116.085H118.121V41.4183V31.9153V29.8789H116.085ZM116.085 41.4183H106.582V31.9153H116.085V41.4183Z" fill="#A74C47"/>
<path d="M73.4182 72.5457H63.9151H61.8788V74.582V84.085V86.1214H63.9151H73.4182H75.4545V84.085V74.582V72.5457H73.4182ZM73.4182 84.085H63.9151V74.582H73.4182V84.085Z" fill="#A74C47"/>
<path d="M71.5758 33.7578H65.7576V39.576H71.5758V33.7578Z" fill="#A74C47"/>
<path d="M114.242 33.7578H108.424V39.576H114.242V33.7578Z" fill="#A74C47"/>
<path d="M71.5758 76.4243H65.7576V82.2425H71.5758V76.4243Z" fill="#A74C47"/>
</g>
<path d="M36.1011 106.496C35.7065 106.293 35.2745 106.117 34.8051 105.968C34.3358 105.819 33.8771 105.744 33.4291 105.744C32.8105 105.744 32.3145 105.888 31.9411 106.176C31.5785 106.464 31.3971 106.848 31.3971 107.328C31.3971 107.691 31.5145 108 31.7491 108.256C31.9838 108.501 32.2931 108.715 32.6771 108.896C33.0611 109.077 33.4611 109.248 33.8771 109.408C34.2398 109.547 34.5971 109.701 34.9491 109.872C35.3011 110.043 35.6158 110.256 35.8931 110.512C36.1811 110.768 36.4051 111.083 36.5651 111.456C36.7358 111.829 36.8211 112.293 36.8211 112.848C36.8211 113.456 36.6665 114.011 36.3571 114.512C36.0585 115.013 35.6265 115.408 35.0611 115.696C34.4958 115.984 33.8238 116.128 33.0451 116.128C32.5331 116.128 32.0425 116.069 31.5731 115.952C31.1145 115.835 30.6878 115.685 30.2931 115.504C29.8985 115.312 29.5465 115.115 29.2371 114.912L29.9251 113.696C30.1811 113.877 30.4745 114.053 30.8051 114.224C31.1358 114.384 31.4825 114.517 31.8451 114.624C32.2078 114.72 32.5598 114.768 32.9011 114.768C33.2638 114.768 33.6211 114.704 33.9731 114.576C34.3358 114.437 34.6345 114.229 34.8691 113.952C35.1038 113.675 35.2211 113.307 35.2211 112.848C35.2211 112.453 35.1145 112.128 34.9011 111.872C34.6985 111.605 34.4265 111.381 34.0851 111.2C33.7438 111.008 33.3811 110.837 32.9971 110.688C32.6345 110.549 32.2665 110.4 31.8931 110.24C31.5198 110.069 31.1731 109.867 30.8531 109.632C30.5331 109.387 30.2771 109.088 30.0851 108.736C29.8931 108.384 29.7971 107.957 29.7971 107.456C29.7971 106.848 29.9411 106.32 30.2291 105.872C30.5278 105.413 30.9331 105.056 31.4451 104.8C31.9571 104.533 32.5438 104.389 33.2051 104.368C33.9518 104.368 34.6078 104.459 35.1731 104.64C35.7491 104.821 36.2558 105.045 36.6931 105.312L36.1011 106.496ZM44.4376 115.392C44.139 115.627 43.7816 115.813 43.3656 115.952C42.9496 116.091 42.5336 116.16 42.1176 116.16C41.3923 116.16 40.7576 116.016 40.2136 115.728C39.6696 115.44 39.243 115.04 38.9336 114.528C38.635 114.005 38.4856 113.392 38.4856 112.688C38.4856 111.984 38.6456 111.371 38.9656 110.848C39.2963 110.325 39.723 109.925 40.2456 109.648C40.779 109.36 41.3496 109.216 41.9576 109.216C42.491 109.216 42.9656 109.291 43.3816 109.44C43.8083 109.589 44.171 109.792 44.4696 110.048L43.7336 111.008C43.5416 110.859 43.307 110.725 43.0296 110.608C42.7523 110.491 42.4376 110.432 42.0856 110.432C41.7016 110.432 41.3443 110.533 41.0136 110.736C40.6936 110.928 40.4376 111.195 40.2456 111.536C40.0643 111.877 39.9736 112.261 39.9736 112.688C39.9736 113.093 40.0696 113.472 40.2616 113.824C40.4536 114.165 40.7203 114.437 41.0616 114.64C41.403 114.832 41.7923 114.928 42.2296 114.928C42.5176 114.928 42.779 114.885 43.0136 114.8C43.259 114.715 43.4776 114.597 43.6696 114.448L44.4376 115.392ZM49.1105 116.16C48.4918 116.16 47.9265 116.027 47.4145 115.76C46.9132 115.493 46.5132 115.104 46.2145 114.592C45.9265 114.069 45.7825 113.435 45.7825 112.688C45.7825 111.952 45.9372 111.317 46.2465 110.784C46.5558 110.24 46.9665 109.824 47.4785 109.536C48.0012 109.248 48.5718 109.104 49.1905 109.104C49.8092 109.104 50.3318 109.248 50.7585 109.536C51.1852 109.813 51.5105 110.144 51.7345 110.528L51.6385 110.784L51.7825 109.376H53.1585V116H51.6705V114.272L51.8305 114.656C51.7878 114.763 51.6918 114.901 51.5425 115.072C51.4038 115.232 51.2118 115.397 50.9665 115.568C50.7318 115.739 50.4598 115.883 50.1505 116C49.8412 116.107 49.4945 116.16 49.1105 116.16ZM49.5105 114.928C49.8838 114.928 50.2198 114.859 50.5185 114.72C50.8172 114.581 51.0625 114.389 51.2545 114.144C51.4572 113.888 51.5958 113.584 51.6705 113.232V111.936C51.5852 111.616 51.4358 111.339 51.2225 111.104C51.0092 110.859 50.7532 110.672 50.4545 110.544C50.1558 110.405 49.8252 110.336 49.4625 110.336C49.0678 110.336 48.7052 110.432 48.3745 110.624C48.0438 110.816 47.7772 111.083 47.5745 111.424C47.3825 111.765 47.2865 112.165 47.2865 112.624C47.2865 113.051 47.3878 113.44 47.5905 113.792C47.7932 114.144 48.0652 114.421 48.4065 114.624C48.7478 114.827 49.1158 114.928 49.5105 114.928ZM57.0615 109.376L57.1895 110.992L57.1255 110.736C57.3388 110.245 57.6855 109.856 58.1655 109.568C58.6455 109.269 59.2002 109.12 59.8295 109.12C60.4588 109.12 60.9708 109.307 61.3655 109.68C61.7708 110.043 61.9788 110.517 61.9895 111.104V116H60.4855V111.632C60.4748 111.269 60.3682 110.976 60.1655 110.752C59.9735 110.517 59.6695 110.4 59.2535 110.4C58.8695 110.4 58.5228 110.507 58.2135 110.72C57.9042 110.933 57.6588 111.227 57.4775 111.6C57.3068 111.973 57.2215 112.405 57.2215 112.896V116H55.7335V109.376H57.0615ZM77.6238 114.496H81.5918V116H75.5598L77.6238 114.496ZM69.2878 110.224C69.2878 109.424 69.4371 108.672 69.7358 107.968C70.0451 107.253 70.4718 106.624 71.0158 106.08C71.5598 105.525 72.1838 105.093 72.8878 104.784C73.6024 104.464 74.3704 104.304 75.1918 104.304C76.0024 104.304 76.7598 104.464 77.4638 104.784C78.1784 105.093 78.8078 105.525 79.3518 106.08C79.9064 106.624 80.3384 107.253 80.6478 107.968C80.9571 108.672 81.1118 109.424 81.1118 110.224C81.1118 111.045 80.9571 111.813 80.6478 112.528C80.3384 113.243 79.9064 113.872 79.3518 114.416C78.8078 114.949 78.1784 115.371 77.4638 115.68C76.7598 115.979 76.0024 116.128 75.1918 116.128C74.3704 116.128 73.6024 115.979 72.8878 115.68C72.1838 115.381 71.5598 114.965 71.0158 114.432C70.4718 113.899 70.0451 113.275 69.7358 112.56C69.4371 111.845 69.2878 111.067 69.2878 110.224ZM70.8878 110.24C70.8878 110.848 70.9998 111.419 71.2238 111.952C71.4478 112.475 71.7571 112.939 72.1518 113.344C72.5464 113.749 73.0051 114.064 73.5278 114.288C74.0504 114.512 74.6158 114.624 75.2238 114.624C75.8211 114.624 76.3811 114.512 76.9038 114.288C77.4264 114.064 77.8798 113.749 78.2638 113.344C78.6478 112.939 78.9518 112.475 79.1758 111.952C79.3998 111.419 79.5118 110.843 79.5118 110.224C79.5118 109.627 79.3998 109.061 79.1758 108.528C78.9518 107.995 78.6424 107.531 78.2478 107.136C77.8531 106.731 77.3944 106.416 76.8718 106.192C76.3491 105.957 75.7891 105.84 75.1918 105.84C74.5838 105.84 74.0184 105.957 73.4958 106.192C72.9731 106.416 72.5144 106.731 72.1198 107.136C71.7251 107.541 71.4211 108.011 71.2078 108.544C70.9944 109.077 70.8878 109.643 70.8878 110.24ZM87.2673 104.432C87.8539 104.432 88.3926 104.512 88.8833 104.672C89.3846 104.821 89.8166 105.051 90.1793 105.36C90.5526 105.659 90.8406 106.032 91.0433 106.48C91.2566 106.917 91.3633 107.429 91.3633 108.016C91.3633 108.475 91.2939 108.923 91.1553 109.36C91.0273 109.797 90.8086 110.197 90.4993 110.56C90.1899 110.912 89.7846 111.2 89.2833 111.424C88.7926 111.637 88.1846 111.744 87.4593 111.744H85.7473V116H84.1953V104.432H87.2673ZM87.4273 110.256C87.8859 110.256 88.2646 110.187 88.5633 110.048C88.8726 109.909 89.1126 109.733 89.2833 109.52C89.4539 109.296 89.5766 109.056 89.6513 108.8C89.7259 108.544 89.7633 108.304 89.7633 108.08C89.7633 107.845 89.7206 107.605 89.6353 107.36C89.5606 107.104 89.4326 106.869 89.2513 106.656C89.0806 106.443 88.8513 106.267 88.5633 106.128C88.2859 105.989 87.9446 105.92 87.5393 105.92H85.7473V110.256H87.4273ZM89.3313 111.136L92.3553 116H90.5633L87.4913 111.184L89.3313 111.136ZM93.9261 111.904H96.9181V113.216H93.9261V111.904ZM104.61 115.392C104.311 115.627 103.954 115.813 103.538 115.952C103.122 116.091 102.706 116.16 102.29 116.16C101.564 116.16 100.93 116.016 100.386 115.728C99.8415 115.44 99.4148 115.04 99.1055 114.528C98.8068 114.005 98.6575 113.392 98.6575 112.688C98.6575 111.984 98.8175 111.371 99.1375 110.848C99.4682 110.325 99.8948 109.925 100.418 109.648C100.951 109.36 101.522 109.216 102.13 109.216C102.663 109.216 103.138 109.291 103.554 109.44C103.98 109.589 104.343 109.792 104.642 110.048L103.906 111.008C103.714 110.859 103.479 110.725 103.202 110.608C102.924 110.491 102.61 110.432 102.258 110.432C101.874 110.432 101.516 110.533 101.186 110.736C100.866 110.928 100.61 111.195 100.418 111.536C100.236 111.877 100.146 112.261 100.146 112.688C100.146 113.093 100.242 113.472 100.434 113.824C100.626 114.165 100.892 114.437 101.234 114.64C101.575 114.832 101.964 114.928 102.402 114.928C102.69 114.928 102.951 114.885 103.186 114.8C103.431 114.715 103.65 114.597 103.842 114.448L104.61 115.392ZM105.954 112.624C105.954 111.963 106.109 111.365 106.418 110.832C106.738 110.299 107.176 109.877 107.73 109.568C108.285 109.259 108.914 109.104 109.618 109.104C110.344 109.104 110.978 109.259 111.522 109.568C112.066 109.877 112.488 110.299 112.786 110.832C113.085 111.365 113.234 111.963 113.234 112.624C113.234 113.285 113.085 113.888 112.786 114.432C112.488 114.965 112.061 115.387 111.506 115.696C110.962 116.005 110.328 116.16 109.602 116.16C108.898 116.16 108.269 116.016 107.714 115.728C107.17 115.429 106.738 115.019 106.418 114.496C106.109 113.963 105.954 113.339 105.954 112.624ZM107.442 112.64C107.442 113.067 107.538 113.456 107.73 113.808C107.922 114.149 108.178 114.421 108.498 114.624C108.829 114.827 109.192 114.928 109.586 114.928C110.002 114.928 110.37 114.827 110.69 114.624C111.021 114.421 111.277 114.149 111.458 113.808C111.64 113.456 111.73 113.067 111.73 112.64C111.73 112.213 111.64 111.829 111.458 111.488C111.277 111.136 111.021 110.859 110.69 110.656C110.37 110.443 110.002 110.336 109.586 110.336C109.181 110.336 108.813 110.443 108.482 110.656C108.162 110.869 107.906 111.152 107.714 111.504C107.533 111.845 107.442 112.224 107.442 112.64ZM117.937 116.16C117.329 116.16 116.774 116.016 116.273 115.728C115.782 115.429 115.393 115.013 115.105 114.48C114.817 113.936 114.673 113.312 114.673 112.608C114.673 111.872 114.822 111.243 115.121 110.72C115.43 110.197 115.846 109.797 116.369 109.52C116.892 109.243 117.478 109.104 118.129 109.104C118.652 109.104 119.148 109.216 119.617 109.44C120.097 109.664 120.47 109.973 120.737 110.368L120.673 110.896V103.616H122.145V116H120.657V114.352L120.817 114.768C120.508 115.173 120.108 115.509 119.617 115.776C119.126 116.032 118.566 116.16 117.937 116.16ZM118.401 114.896C118.796 114.896 119.148 114.827 119.457 114.688C119.766 114.539 120.022 114.336 120.225 114.08C120.428 113.824 120.572 113.52 120.657 113.168V111.92C120.572 111.6 120.417 111.323 120.193 111.088C119.98 110.843 119.718 110.651 119.409 110.512C119.11 110.363 118.774 110.288 118.401 110.288C117.996 110.288 117.622 110.389 117.281 110.592C116.95 110.784 116.684 111.051 116.481 111.392C116.278 111.733 116.177 112.128 116.177 112.576C116.177 113.013 116.278 113.408 116.481 113.76C116.684 114.101 116.956 114.379 117.297 114.592C117.638 114.795 118.006 114.896 118.401 114.896ZM127.806 116.16C127.048 116.16 126.398 116.011 125.854 115.712C125.31 115.403 124.888 114.987 124.59 114.464C124.302 113.931 124.158 113.323 124.158 112.64C124.158 111.989 124.323 111.397 124.654 110.864C124.984 110.331 125.427 109.904 125.982 109.584C126.536 109.264 127.155 109.104 127.838 109.104C128.712 109.104 129.438 109.36 130.014 109.872C130.59 110.384 130.979 111.088 131.182 111.984L125.726 113.904L125.374 113.024L129.854 111.392L129.534 111.6C129.406 111.248 129.192 110.944 128.894 110.688C128.595 110.421 128.206 110.288 127.726 110.288C127.32 110.288 126.958 110.389 126.638 110.592C126.318 110.784 126.067 111.051 125.886 111.392C125.704 111.733 125.614 112.123 125.614 112.56C125.614 113.019 125.71 113.424 125.902 113.776C126.094 114.117 126.355 114.389 126.686 114.592C127.027 114.784 127.411 114.88 127.838 114.88C128.126 114.88 128.403 114.827 128.67 114.72C128.947 114.613 129.203 114.475 129.438 114.304L130.126 115.408C129.795 115.632 129.422 115.813 129.006 115.952C128.6 116.091 128.2 116.16 127.806 116.16ZM137.533 112.624C137.533 111.963 137.687 111.365 137.997 110.832C138.317 110.299 138.754 109.877 139.309 109.568C139.863 109.259 140.493 109.104 141.197 109.104C141.922 109.104 142.557 109.259 143.101 109.568C143.645 109.877 144.066 110.299 144.365 110.832C144.663 111.365 144.812 111.963 144.812 112.624C144.812 113.285 144.663 113.888 144.365 114.432C144.066 114.965 143.639 115.387 143.085 115.696C142.541 116.005 141.906 116.16 141.181 116.16C140.477 116.16 139.847 116.016 139.293 115.728C138.749 115.429 138.317 115.019 137.997 114.496C137.687 113.963 137.533 113.339 137.533 112.624ZM139.021 112.64C139.021 113.067 139.117 113.456 139.309 113.808C139.501 114.149 139.757 114.421 140.077 114.624C140.407 114.827 140.77 114.928 141.165 114.928C141.581 114.928 141.949 114.827 142.269 114.624C142.599 114.421 142.855 114.149 143.037 113.808C143.218 113.456 143.309 113.067 143.309 112.64C143.309 112.213 143.218 111.829 143.037 111.488C142.855 111.136 142.599 110.859 142.269 110.656C141.949 110.443 141.581 110.336 141.165 110.336C140.759 110.336 140.391 110.443 140.061 110.656C139.741 110.869 139.485 111.152 139.293 111.504C139.111 111.845 139.021 112.224 139.021 112.64ZM148.155 109.376L148.299 111.296L148.219 111.04C148.39 110.635 148.635 110.293 148.955 110.016C149.286 109.728 149.627 109.509 149.979 109.36C150.342 109.2 150.657 109.12 150.923 109.12L150.843 110.592C150.342 110.56 149.899 110.656 149.515 110.88C149.142 111.104 148.843 111.403 148.619 111.776C148.406 112.149 148.299 112.549 148.299 112.976V116H146.827V109.376H148.155ZM37.1017 135.392C36.803 135.627 36.4457 135.813 36.0297 135.952C35.6137 136.091 35.1977 136.16 34.7817 136.16C34.0564 136.16 33.4217 136.016 32.8777 135.728C32.3337 135.44 31.907 135.04 31.5977 134.528C31.299 134.005 31.1497 133.392 31.1497 132.688C31.1497 131.984 31.3097 131.371 31.6297 130.848C31.9604 130.325 32.387 129.925 32.9097 129.648C33.443 129.36 34.0137 129.216 34.6217 129.216C35.155 129.216 35.6297 129.291 36.0457 129.44C36.4724 129.589 36.835 129.792 37.1337 130.048L36.3977 131.008C36.2057 130.859 35.971 130.725 35.6937 130.608C35.4164 130.491 35.1017 130.432 34.7497 130.432C34.3657 130.432 34.0084 130.533 33.6777 130.736C33.3577 130.928 33.1017 131.195 32.9097 131.536C32.7284 131.877 32.6377 132.261 32.6377 132.688C32.6377 133.093 32.7337 133.472 32.9257 133.824C33.1177 134.165 33.3844 134.437 33.7257 134.64C34.067 134.832 34.4564 134.928 34.8937 134.928C35.1817 134.928 35.443 134.885 35.6777 134.8C35.923 134.715 36.1417 134.597 36.3337 134.448L37.1017 135.392ZM39.0226 123.616H40.5106V136H39.0226V123.616ZM43.0851 129.376H44.5731V136H43.0851V129.376ZM42.9731 126.976C42.9731 126.741 43.0637 126.544 43.2451 126.384C43.4371 126.224 43.6451 126.144 43.8691 126.144C44.0931 126.144 44.2904 126.224 44.4611 126.384C44.6424 126.544 44.7331 126.741 44.7331 126.976C44.7331 127.221 44.6424 127.424 44.4611 127.584C44.2904 127.733 44.0931 127.808 43.8691 127.808C43.6451 127.808 43.4371 127.728 43.2451 127.568C43.0637 127.408 42.9731 127.211 42.9731 126.976ZM52.5236 135.392C52.2249 135.627 51.8676 135.813 51.4516 135.952C51.0356 136.091 50.6196 136.16 50.2036 136.16C49.4782 136.16 48.8436 136.016 48.2996 135.728C47.7556 135.44 47.3289 135.04 47.0196 134.528C46.7209 134.005 46.5716 133.392 46.5716 132.688C46.5716 131.984 46.7316 131.371 47.0516 130.848C47.3822 130.325 47.8089 129.925 48.3316 129.648C48.8649 129.36 49.4356 129.216 50.0436 129.216C50.5769 129.216 51.0516 129.291 51.4676 129.44C51.8942 129.589 52.2569 129.792 52.5556 130.048L51.8196 131.008C51.6276 130.859 51.3929 130.725 51.1156 130.608C50.8382 130.491 50.5236 130.432 50.1716 130.432C49.7876 130.432 49.4302 130.533 49.0996 130.736C48.7796 130.928 48.5236 131.195 48.3316 131.536C48.1502 131.877 48.0596 132.261 48.0596 132.688C48.0596 133.093 48.1556 133.472 48.3476 133.824C48.5396 134.165 48.8062 134.437 49.1476 134.64C49.4889 134.832 49.8782 134.928 50.3156 134.928C50.6036 134.928 50.8649 134.885 51.0996 134.8C51.3449 134.715 51.5636 134.597 51.7556 134.448L52.5236 135.392ZM54.4444 136V123.616H55.9324V136H54.4444ZM57.5324 131.6L60.5724 136H58.8284L56.5404 132.432L57.5324 131.6ZM55.4684 133.888L55.3244 132.464L59.3404 129.232L60.2524 130.016L55.4684 133.888ZM66.8997 132.624C66.8997 131.963 67.0544 131.365 67.3637 130.832C67.6837 130.299 68.121 129.877 68.6757 129.568C69.2304 129.259 69.8597 129.104 70.5637 129.104C71.289 129.104 71.9237 129.259 72.4677 129.568C73.0117 129.877 73.433 130.299 73.7317 130.832C74.0304 131.365 74.1797 131.963 74.1797 132.624C74.1797 133.285 74.0304 133.888 73.7317 134.432C73.433 134.965 73.0064 135.387 72.4517 135.696C71.9077 136.005 71.273 136.16 70.5477 136.16C69.8437 136.16 69.2144 136.016 68.6597 135.728C68.1157 135.429 67.6837 135.019 67.3637 134.496C67.0544 133.963 66.8997 133.339 66.8997 132.624ZM68.3877 132.64C68.3877 133.067 68.4837 133.456 68.6757 133.808C68.8677 134.149 69.1237 134.421 69.4437 134.624C69.7744 134.827 70.137 134.928 70.5317 134.928C70.9477 134.928 71.3157 134.827 71.6357 134.624C71.9664 134.421 72.2224 134.149 72.4037 133.808C72.585 133.456 72.6757 133.067 72.6757 132.64C72.6757 132.213 72.585 131.829 72.4037 131.488C72.2224 131.136 71.9664 130.859 71.6357 130.656C71.3157 130.443 70.9477 130.336 70.5317 130.336C70.1264 130.336 69.7584 130.443 69.4277 130.656C69.1077 130.869 68.8517 131.152 68.6597 131.504C68.4784 131.845 68.3877 132.224 68.3877 132.64ZM77.5224 129.376L77.6504 130.992L77.5864 130.736C77.7998 130.245 78.1464 129.856 78.6264 129.568C79.1064 129.269 79.6611 129.12 80.2904 129.12C80.9198 129.12 81.4318 129.307 81.8264 129.68C82.2318 130.043 82.4398 130.517 82.4504 131.104V136H80.9464V131.632C80.9358 131.269 80.8291 130.976 80.6264 130.752C80.4344 130.517 80.1304 130.4 79.7144 130.4C79.3304 130.4 78.9838 130.507 78.6744 130.72C78.3651 130.933 78.1198 131.227 77.9384 131.6C77.7678 131.973 77.6824 132.405 77.6824 132.896V136H76.1944V129.376H77.5224ZM90.7407 126.464H92.2287V129.408H94.0527V130.576H92.2287V136H90.7407V130.576H89.5247V129.408H90.7407V126.464ZM95.8507 136V123.616H97.3067V130.912L97.2747 130.64C97.4987 130.203 97.84 129.84 98.2987 129.552C98.768 129.264 99.3174 129.12 99.9467 129.12C100.576 129.12 101.088 129.307 101.483 129.68C101.888 130.043 102.096 130.517 102.107 131.104V136H100.603V131.632C100.592 131.269 100.485 130.976 100.283 130.752C100.091 130.517 99.7867 130.4 99.3707 130.4C98.9867 130.4 98.64 130.512 98.3307 130.736C98.0214 130.949 97.776 131.243 97.5947 131.616C97.424 131.989 97.3387 132.416 97.3387 132.896V136H95.8507ZM107.766 136.16C107.009 136.16 106.358 136.011 105.814 135.712C105.27 135.403 104.849 134.987 104.55 134.464C104.262 133.931 104.118 133.323 104.118 132.64C104.118 131.989 104.284 131.397 104.614 130.864C104.945 130.331 105.388 129.904 105.942 129.584C106.497 129.264 107.116 129.104 107.798 129.104C108.673 129.104 109.398 129.36 109.974 129.872C110.55 130.384 110.94 131.088 111.142 131.984L105.686 133.904L105.334 133.024L109.814 131.392L109.494 131.6C109.366 131.248 109.153 130.944 108.854 130.688C108.556 130.421 108.166 130.288 107.686 130.288C107.281 130.288 106.918 130.389 106.598 130.592C106.278 130.784 106.028 131.051 105.846 131.392C105.665 131.733 105.574 132.123 105.574 132.56C105.574 133.019 105.67 133.424 105.862 133.776C106.054 134.117 106.316 134.389 106.646 134.592C106.988 134.784 107.372 134.88 107.798 134.88C108.086 134.88 108.364 134.827 108.63 134.72C108.908 134.613 109.164 134.475 109.398 134.304L110.086 135.408C109.756 135.632 109.382 135.813 108.966 135.952C108.561 136.091 108.161 136.16 107.766 136.16ZM120.821 136.16C120.203 136.16 119.637 136.027 119.125 135.76C118.624 135.493 118.224 135.104 117.925 134.592C117.637 134.069 117.493 133.435 117.493 132.688C117.493 131.952 117.648 131.317 117.957 130.784C118.267 130.24 118.677 129.824 119.189 129.536C119.712 129.248 120.283 129.104 120.901 129.104C121.52 129.104 122.043 129.248 122.469 129.536C122.896 129.813 123.221 130.144 123.445 130.528L123.349 130.784L123.493 129.376H124.869V136H123.381V134.272L123.541 134.656C123.499 134.763 123.403 134.901 123.253 135.072C123.115 135.232 122.923 135.397 122.677 135.568C122.443 135.739 122.171 135.883 121.861 136C121.552 136.107 121.205 136.16 120.821 136.16ZM121.221 134.928C121.595 134.928 121.931 134.859 122.229 134.72C122.528 134.581 122.773 134.389 122.965 134.144C123.168 133.888 123.307 133.584 123.381 133.232V131.936C123.296 131.616 123.147 131.339 122.933 131.104C122.72 130.859 122.464 130.672 122.165 130.544C121.867 130.405 121.536 130.336 121.173 130.336C120.779 130.336 120.416 130.432 120.085 130.624C119.755 130.816 119.488 131.083 119.285 131.424C119.093 131.765 118.997 132.165 118.997 132.624C118.997 133.051 119.099 133.44 119.301 133.792C119.504 134.144 119.776 134.421 120.117 134.624C120.459 134.827 120.827 134.928 121.221 134.928ZM128.772 129.376L128.916 131.296L128.836 131.04C129.007 130.635 129.252 130.293 129.572 130.016C129.903 129.728 130.244 129.509 130.596 129.36C130.959 129.2 131.274 129.12 131.54 129.12L131.46 130.592C130.959 130.56 130.516 130.656 130.132 130.88C129.759 131.104 129.46 131.403 129.236 131.776C129.023 132.149 128.916 132.549 128.916 132.976V136H127.444V129.376H128.772ZM136.251 136.16C135.493 136.16 134.843 136.011 134.299 135.712C133.755 135.403 133.333 134.987 133.035 134.464C132.747 133.931 132.603 133.323 132.603 132.64C132.603 131.989 132.768 131.397 133.099 130.864C133.429 130.331 133.872 129.904 134.427 129.584C134.981 129.264 135.6 129.104 136.283 129.104C137.157 129.104 137.883 129.36 138.459 129.872C139.035 130.384 139.424 131.088 139.627 131.984L134.171 133.904L133.819 133.024L138.299 131.392L137.979 131.6C137.851 131.248 137.637 130.944 137.339 130.688C137.04 130.421 136.651 130.288 136.171 130.288C135.765 130.288 135.403 130.389 135.083 130.592C134.763 130.784 134.512 131.051 134.331 131.392C134.149 131.733 134.059 132.123 134.059 132.56C134.059 133.019 134.155 133.424 134.347 133.776C134.539 134.117 134.8 134.389 135.131 134.592C135.472 134.784 135.856 134.88 136.283 134.88C136.571 134.88 136.848 134.827 137.115 134.72C137.392 134.613 137.648 134.475 137.883 134.304L138.571 135.408C138.24 135.632 137.867 135.813 137.451 135.952C137.045 136.091 136.645 136.16 136.251 136.16ZM144.243 136.16C143.625 136.16 143.059 136.027 142.547 135.76C142.046 135.493 141.646 135.104 141.347 134.592C141.059 134.069 140.915 133.435 140.915 132.688C140.915 131.952 141.07 131.317 141.379 130.784C141.689 130.24 142.099 129.824 142.611 129.536C143.134 129.248 143.705 129.104 144.323 129.104C144.942 129.104 145.465 129.248 145.891 129.536C146.318 129.813 146.643 130.144 146.867 130.528L146.771 130.784L146.915 129.376H148.291V136H146.803V134.272L146.963 134.656C146.921 134.763 146.825 134.901 146.675 135.072C146.537 135.232 146.345 135.397 146.099 135.568C145.865 135.739 145.593 135.883 145.283 136C144.974 136.107 144.627 136.16 144.243 136.16ZM144.643 134.928C145.017 134.928 145.353 134.859 145.651 134.72C145.95 134.581 146.195 134.389 146.387 134.144C146.59 133.888 146.729 133.584 146.803 133.232V131.936C146.718 131.616 146.569 131.339 146.355 131.104C146.142 130.859 145.886 130.672 145.587 130.544C145.289 130.405 144.958 130.336 144.595 130.336C144.201 130.336 143.838 130.432 143.507 130.624C143.177 130.816 142.91 131.083 142.707 131.424C142.515 131.765 142.419 132.165 142.419 132.624C142.419 133.051 142.521 133.44 142.723 133.792C142.926 134.144 143.198 134.421 143.539 134.624C143.881 134.827 144.249 134.928 144.643 134.928Z" fill="#48372F"/>
<defs>
<clipPath id="clip0_70_3463">
<rect width="64" height="64" fill="white" transform="translate(58 26)"/>
</clipPath>
</defs>
</svg>
