<svg width="169" height="45" viewBox="0 0 169 45" fill="none" xmlns="http://www.w3.org/2000/svg">
<path d="M10.74 14.088C10.58 14.2053 10.3293 14.3493 9.988 14.52C9.64667 14.6907 9.24133 14.84 8.772 14.968C8.31333 15.0853 7.80133 15.1387 7.236 15.128C6.32933 15.1173 5.51333 14.9573 4.788 14.648C4.06267 14.328 3.44933 13.9013 2.948 13.368C2.44667 12.824 2.05733 12.2053 1.78 11.512C1.51333 10.808 1.38 10.0613 1.38 9.272C1.38 8.38667 1.51867 7.576 1.796 6.84C2.07333 6.104 2.468 5.46933 2.98 4.936C3.492 4.392 4.1 3.97067 4.804 3.672C5.508 3.37333 6.276 3.224 7.108 3.224C7.844 3.224 8.5 3.32533 9.076 3.528C9.66267 3.72 10.1533 3.93867 10.548 4.184L9.812 5.944C9.51333 5.73067 9.14 5.52267 8.692 5.32C8.244 5.11733 7.73733 5.016 7.172 5.016C6.66 5.016 6.16933 5.12267 5.7 5.336C5.23067 5.53867 4.82 5.832 4.468 6.216C4.116 6.58933 3.83333 7.02667 3.62 7.528C3.41733 8.02933 3.316 8.57333 3.316 9.16C3.316 9.768 3.40667 10.328 3.588 10.84C3.78 11.3413 4.04667 11.7787 4.388 12.152C4.74 12.5253 5.156 12.8187 5.636 13.032C6.12667 13.2347 6.67067 13.336 7.268 13.336C7.876 13.336 8.404 13.2453 8.852 13.064C9.31067 12.872 9.67867 12.6587 9.956 12.424L10.74 14.088ZM16.505 3.352C17.145 3.352 17.7317 3.43733 18.265 3.608C18.7983 3.768 19.2517 4.008 19.625 4.328C19.9983 4.648 20.2863 5.04267 20.489 5.512C20.7023 5.97067 20.809 6.49867 20.809 7.096C20.809 7.55467 20.7397 8.01333 20.601 8.472C20.4623 8.93067 20.233 9.34667 19.913 9.72C19.6037 10.0933 19.193 10.392 18.681 10.616C18.169 10.84 17.5343 10.952 16.777 10.952H15.097V15H13.225V3.352H16.505ZM16.761 9.16C17.177 9.16 17.5237 9.096 17.801 8.968C18.0783 8.82933 18.2917 8.65867 18.441 8.456C18.601 8.25333 18.713 8.04 18.777 7.816C18.8517 7.58133 18.889 7.36267 18.889 7.16C18.889 6.968 18.857 6.76 18.793 6.536C18.729 6.30133 18.6223 6.08267 18.473 5.88C18.3237 5.66667 18.1103 5.49067 17.833 5.352C17.5663 5.21333 17.2303 5.144 16.825 5.144H15.097V9.16H16.761ZM18.777 10.264L21.753 15H19.593L16.553 10.312L18.777 10.264ZM23.9438 3.352H31.6718V5.144H25.8158V8.248H31.0318V10.056H25.8158V13.208H31.8958V15H23.9438V3.352ZM33.259 15L38.411 2.872H38.523L43.675 15H41.531L37.899 5.8L39.243 4.888L35.099 15H33.259ZM36.491 10.68H40.475L41.115 12.264H35.931L36.491 10.68ZM43.9086 3.352H51.7006V5.144H48.6926V15H46.8366V5.144H43.9086V3.352ZM54.0688 3.352H61.7968V5.144H55.9408V8.248H61.1568V10.056H55.9408V13.208H62.0208V15H54.0688V3.352ZM64.6 15V3.352H67.912C69.0747 3.352 70.0613 3.528 70.872 3.88C71.6827 4.22133 72.3387 4.68533 72.84 5.272C73.3413 5.848 73.704 6.49333 73.928 7.208C74.1627 7.912 74.28 8.62133 74.28 9.336C74.28 10.2107 74.1253 10.9947 73.816 11.688C73.5067 12.3813 73.0853 12.9787 72.552 13.48C72.0187 13.9707 71.4 14.3493 70.696 14.616C70.0027 14.872 69.2613 15 68.472 15H64.6ZM66.472 13.208H68.136C68.7547 13.208 69.32 13.1227 69.832 12.952C70.344 12.7707 70.7867 12.5147 71.16 12.184C71.544 11.8427 71.8373 11.4213 72.04 10.92C72.2533 10.4187 72.36 9.848 72.36 9.208C72.36 8.48267 72.2373 7.864 71.992 7.352C71.7573 6.82933 71.4427 6.408 71.048 6.088C70.664 5.75733 70.2427 5.51733 69.784 5.368C69.3253 5.21867 68.872 5.144 68.424 5.144H66.472V13.208ZM85.0809 3.352C86.2649 3.352 87.1982 3.592 87.8809 4.072C88.5742 4.552 88.9209 5.288 88.9209 6.28C88.9209 6.94133 88.7662 7.50667 88.4569 7.976C88.1582 8.43467 87.7369 8.792 87.1929 9.048C86.6489 9.29333 86.0142 9.42667 85.2889 9.448L85.0009 8.456C85.8649 8.46667 86.6329 8.60533 87.3049 8.872C87.9769 9.128 88.5102 9.496 88.9049 9.976C89.2995 10.4453 89.4969 11.0053 89.4969 11.656C89.4969 12.264 89.3849 12.7813 89.1609 13.208C88.9369 13.624 88.6382 13.9653 88.2649 14.232C87.8915 14.4987 87.4702 14.696 87.0009 14.824C86.5315 14.9413 86.0409 15 85.5289 15H81.8969V3.352H85.0809ZM85.3849 8.312C85.9395 8.312 86.3449 8.152 86.6009 7.832C86.8675 7.50133 87.0009 7.11733 87.0009 6.68C87.0009 6.14667 86.8355 5.75733 86.5049 5.512C86.1742 5.26667 85.7262 5.144 85.1609 5.144H83.7689V8.312H85.3849ZM85.4489 13.272C85.8435 13.272 86.2009 13.2187 86.5209 13.112C86.8409 12.9947 87.0915 12.8187 87.2729 12.584C87.4649 12.3387 87.5609 12.0347 87.5609 11.672C87.5609 11.2667 87.4489 10.952 87.2249 10.728C87.0115 10.504 86.7342 10.344 86.3929 10.248C86.0515 10.152 85.6942 10.104 85.3209 10.104H83.7689V13.272H85.4489ZM94.547 11.224L90.243 3.352H92.531L95.811 9.624L95.251 9.656L98.483 3.352H100.771L96.403 11.224V15H94.547V11.224Z" fill="white"/>
<path d="M114.5 3V4.5H123.943L114.5 13.9425L115.557 15L125 5.5575V15H126.5V3H114.5Z" fill="white"/>
<g clip-path="url(#clip0_204_360)">
<path d="M97.2315 22.1504H0.5V43.2521H97.2315V22.1504Z" fill="#1A2832"/>
<path fill-rule="evenodd" clip-rule="evenodd" d="M97.2315 22.1504V43.2521H0.5V22.1504H97.2315ZM46.6283 24.4218H45.5207C45.3977 24.4218 45.2928 24.4676 45.2057 24.5591C45.119 24.6507 45.0755 24.755 45.0755 24.8722V28.8596C45.0755 29.0647 45.0358 29.2093 44.956 29.2935C44.8765 29.3777 44.7535 29.4198 44.587 29.4198C44.4638 29.4198 44.3353 29.3887 44.2015 29.3265C44.0675 29.2642 43.9192 29.2002 43.7562 29.1343C43.5935 29.0683 43.4087 29.0061 43.2025 28.9475C42.9963 28.8889 42.7665 28.8596 42.513 28.8596C41.934 28.8596 41.3965 28.9713 40.9005 29.1946C40.4048 29.418 39.9723 29.7201 39.603 30.1009C39.234 30.4817 38.9335 30.9357 38.702 31.463C38.4702 31.9902 38.3327 32.5468 38.2892 33.1326C38.2603 33.5793 38.2458 34.1029 38.2458 34.7034C38.2458 35.3039 38.2603 35.8275 38.2892 36.2742C38.3327 36.8601 38.4702 37.4166 38.702 37.9438C38.9335 38.4711 39.234 38.9252 39.603 39.306C39.9723 39.6867 40.4048 39.9888 40.9005 40.2122C41.3965 40.4355 41.934 40.5472 42.513 40.5472C42.9258 40.5472 43.2585 40.5106 43.512 40.4374C43.7653 40.3642 43.9735 40.2781 44.1362 40.1792C44.2992 40.0803 44.444 39.9943 44.5708 39.921C44.6973 39.8479 44.844 39.8112 45.0103 39.8112C45.1263 39.8112 45.2293 39.8533 45.3198 39.9376C45.4103 40.0217 45.4918 40.1005 45.5643 40.1737C45.6655 40.2762 45.7668 40.3275 45.8683 40.3275H46.6283C46.744 40.3275 46.8473 40.2818 46.9378 40.1902C47.0283 40.0987 47.0735 39.9943 47.0735 39.8771V24.8722C47.0735 24.755 47.0283 24.6507 46.9378 24.5591C46.8473 24.4676 46.744 24.4218 46.6283 24.4218ZM58.4095 24.4218H57.302C57.179 24.4218 57.074 24.4676 56.9873 24.5591C56.9002 24.6507 56.8568 24.755 56.8568 24.8722V28.8596C56.8568 29.0647 56.817 29.2093 56.7375 29.2935C56.6577 29.3777 56.5348 29.4198 56.3683 29.4198C56.2453 29.4198 56.1167 29.3887 55.9827 29.3265C55.849 29.2642 55.7005 29.2002 55.5378 29.1343C55.3748 29.0683 55.1903 29.0061 54.9837 28.9475C54.7775 28.8889 54.5477 28.8596 54.2945 28.8596C53.7152 28.8596 53.1777 28.9713 52.682 29.1946C52.1862 29.418 51.7537 29.7201 51.3845 30.1009C51.0152 30.4817 50.7147 30.9357 50.4832 31.463C50.2515 31.9902 50.114 32.5468 50.0705 33.1326C50.0417 33.5793 50.0272 34.1029 50.0272 34.7034C50.0272 35.3039 50.0417 35.8275 50.0705 36.2742C50.114 36.8601 50.2515 37.4166 50.4832 37.9438C50.7147 38.4711 51.0152 38.9252 51.3845 39.306C51.7537 39.6867 52.1862 39.9888 52.682 40.2122C53.1777 40.4355 53.7152 40.5472 54.2945 40.5472C54.707 40.5472 55.04 40.5106 55.2933 40.4374C55.5468 40.3642 55.7547 40.2781 55.9175 40.1792C56.0805 40.0803 56.2253 39.9943 56.352 39.921C56.4788 39.8479 56.6253 39.8112 56.7918 39.8112C56.9075 39.8112 57.0107 39.8533 57.1012 39.9376C57.1917 40.0217 57.273 40.1005 57.3455 40.1737C57.4468 40.2762 57.5483 40.3275 57.6495 40.3275H58.4095C58.5255 40.3275 58.6285 40.2818 58.719 40.1902C58.8095 40.0987 58.8548 39.9943 58.8548 39.8771V24.8722C58.8548 24.755 58.8095 24.6507 58.719 24.5591C58.6285 24.4676 58.5255 24.4218 58.4095 24.4218ZM66.6295 28.8596C65.9635 28.8596 65.3608 28.9713 64.8215 29.1946C64.2823 29.418 63.8155 29.7201 63.421 30.1009C63.0265 30.4817 62.7153 30.9357 62.4873 31.463C62.2593 31.9902 62.1235 32.5468 62.08 33.1326C62.0438 33.5354 62.0257 34.0041 62.0257 34.5387C62.033 34.5972 62.0365 34.6522 62.0365 34.7034C62.0365 35.3039 62.051 35.8275 62.08 36.2742C62.1235 36.8601 62.2593 37.4166 62.4873 37.9438C62.7153 38.4711 63.0265 38.9252 63.421 39.306C63.8155 39.6867 64.2823 39.9888 64.8215 40.2122C65.3608 40.4355 65.9635 40.5472 66.6295 40.5472C67.2085 40.5472 67.746 40.4649 68.2418 40.3C68.7378 40.1353 69.1758 39.9046 69.5557 39.608C69.9357 39.3114 70.2453 38.9562 70.484 38.5425C70.723 38.1288 70.8785 37.6729 70.951 37.175C70.98 37.0138 70.9528 36.8985 70.8695 36.8289C70.7862 36.7593 70.6868 36.7246 70.571 36.7246H69.4307C69.3295 36.7246 69.23 36.752 69.1322 36.8069C69.0345 36.8619 68.964 36.9626 68.9205 37.1091C68.7903 37.5265 68.5205 37.867 68.1115 38.1306C67.7025 38.3943 67.2085 38.526 66.6295 38.526C65.8623 38.526 65.2415 38.2936 64.7673 37.8285C64.2933 37.3635 64.056 36.6147 64.056 35.5822C64.056 35.4357 64.1285 35.3588 64.2733 35.3515H70.636C70.7518 35.3515 70.855 35.3057 70.9455 35.2142C71.036 35.1226 71.0813 35.0183 71.0813 34.9012V33.3523C71.0813 31.9463 70.676 30.846 69.8652 30.0514C69.0545 29.2569 67.9758 28.8596 66.6295 28.8596ZM78.4325 28.8596C77.7665 28.8596 77.1675 28.9713 76.6355 29.1946C76.1035 29.418 75.6475 29.7201 75.2675 30.1009C74.8873 30.4817 74.5905 30.9357 74.377 31.463C74.1635 31.9902 74.035 32.5468 73.9915 33.1326C73.9628 33.5793 73.9482 34.1029 73.9482 34.7034C73.9482 35.3039 73.9628 35.8275 73.9915 36.2742C74.035 36.8601 74.1635 37.4166 74.377 37.9438C74.5905 38.4711 74.8873 38.9252 75.2675 39.306C75.6475 39.6867 76.1035 39.9888 76.6355 40.2122C77.1675 40.4355 77.7665 40.5472 78.4325 40.5472C79.0553 40.5472 79.6302 40.4502 80.1592 40.2561C80.6872 40.062 81.1398 39.7966 81.5165 39.4597C81.8925 39.1229 82.1898 38.7183 82.4065 38.246C82.6235 37.7736 82.732 37.2665 82.732 36.7246C82.732 36.6074 82.6868 36.5031 82.5963 36.4115C82.5058 36.32 82.4027 36.2742 82.2872 36.2742H81.125C81.0242 36.2742 80.9283 36.3017 80.8378 36.3566C80.7473 36.4115 80.702 36.5122 80.702 36.6586C80.702 37.1859 80.4937 37.629 80.0772 37.9878C79.6615 38.3466 79.113 38.526 78.4325 38.526C77.6653 38.526 77.077 38.3009 76.668 37.8505C76.259 37.4001 76.033 36.8747 75.9895 36.2742C75.9605 35.8129 75.946 35.2893 75.946 34.7034C75.946 34.1176 75.9605 33.594 75.9895 33.1326C76.033 32.5321 76.259 32.0067 76.668 31.5564C77.077 31.1059 77.6653 30.8808 78.4325 30.8808C79.135 30.8808 79.692 31.0639 80.1045 31.43C80.5173 31.7962 80.7233 32.2428 80.7233 32.7701C80.7233 32.8873 80.7685 32.977 80.859 33.0392C80.9495 33.1015 81.0452 33.1326 81.1468 33.1326H82.352C82.4682 33.1326 82.5602 33.0868 82.629 32.9953C82.6975 32.9037 82.732 32.7994 82.732 32.6823C82.732 32.1403 82.6235 31.6332 82.4065 31.1609C82.1898 30.6885 81.8925 30.2839 81.5165 29.9471C81.1398 29.6102 80.6872 29.3448 80.1592 29.1507C79.6302 28.9566 79.0553 28.8596 78.4325 28.8596ZM19.7539 24.5756H15.7473C15.6314 24.5756 15.5283 24.6214 15.4378 24.7129C15.3474 24.8045 15.3021 24.9088 15.3021 25.026V39.8771C15.3021 39.9943 15.3474 40.0987 15.4378 40.1902C15.5283 40.2818 15.6314 40.3275 15.7473 40.3275H16.9742C17.0901 40.3275 17.1932 40.2818 17.2837 40.1902C17.3742 40.0987 17.4194 39.9943 17.4194 39.8771V34.2531C17.4194 34.1066 17.4918 34.0334 17.6366 34.0334H18.9938C19.1169 34.0334 19.211 34.059 19.2761 34.1102C19.3413 34.1615 19.3883 34.2237 19.4172 34.297L22.0449 39.8771C22.1173 40.009 22.197 40.117 22.2838 40.2012C22.3707 40.2854 22.5046 40.3275 22.6855 40.3275H23.9342C24.1586 40.3275 24.3034 40.258 24.3685 40.1188C24.4336 39.9796 24.43 39.8259 24.3577 39.6574L21.73 34.1871C21.6287 33.9748 21.6142 33.8082 21.6866 33.6873C21.759 33.5665 21.9001 33.4475 22.1101 33.3304C22.7905 32.9276 23.346 32.3692 23.7767 31.6552C24.2075 30.9412 24.4228 30.1558 24.4228 29.299C24.4228 28.6546 24.2998 28.0449 24.0536 27.4701C23.8075 26.8952 23.4745 26.3936 23.0546 25.9652C22.6349 25.5368 22.139 25.1981 21.5672 24.9491C20.9953 24.7001 20.3909 24.5756 19.7539 24.5756ZM32.2735 29.0793H27.7568C27.6335 29.0793 27.5287 29.125 27.4417 29.2166C27.355 29.3081 27.3115 29.4125 27.3115 29.5297V30.5403C27.3115 30.6647 27.3568 30.771 27.4473 30.8588C27.5378 30.9467 27.6408 30.9906 27.7568 30.9906H30.4495C30.5942 30.998 30.6665 31.0748 30.6665 31.2213V38.1855C30.6665 38.3393 30.5942 38.4162 30.4495 38.4162H27.5287C27.4128 38.4162 27.3097 38.462 27.2192 38.5535C27.1287 38.6451 27.0835 38.7494 27.0835 38.8666V39.8771C27.0835 39.9943 27.1287 40.0987 27.2192 40.1902C27.3097 40.2818 27.4128 40.3275 27.5287 40.3275H35.759C35.8747 40.3275 35.978 40.2818 36.0685 40.1902C36.159 40.0987 36.2043 39.9943 36.2043 39.8771V38.8666C36.2043 38.7421 36.159 38.6359 36.0685 38.548C35.978 38.4602 35.8747 38.4162 35.759 38.4162H32.9357C32.784 38.4089 32.7077 38.332 32.7077 38.1855V29.5297C32.7077 29.4125 32.6645 29.3081 32.5775 29.2166C32.4907 29.125 32.3892 29.0793 32.2735 29.0793ZM86.62 29.0343C86.5115 28.9757 86.399 28.9867 86.283 29.0672C86.1675 29.1478 86.1097 29.2797 86.1097 29.4627V30.8138C86.1027 30.9969 86.211 31.1543 86.435 31.2861L92.3747 34.5706C92.49 34.6291 92.49 34.6877 92.3747 34.7463L86.435 38.0307C86.2182 38.1625 86.1097 38.3199 86.1097 38.503V39.8541C86.1097 40.0372 86.169 40.1691 86.2883 40.2495C86.4085 40.3301 86.5185 40.3411 86.62 40.2826L94.6657 35.691C94.8897 35.5738 95.002 35.409 95.002 35.1967V34.0982C95.002 33.8859 94.8897 33.721 94.6657 33.6039L86.62 29.0343ZM11.4634 29.0672C11.3439 28.9867 11.2335 28.9757 11.1322 29.0343L3.0756 33.6039C2.85844 33.721 2.74986 33.8859 2.74986 34.0982V35.1967C2.74262 35.409 2.8512 35.5738 3.0756 35.691L11.1322 40.2826C11.2481 40.3265 11.362 40.3118 11.4743 40.2386C11.5864 40.1654 11.6425 40.0372 11.6425 39.8541V38.503C11.6425 38.3199 11.5304 38.1625 11.3059 38.0307L5.36662 34.7463C5.3232 34.7317 5.30148 34.7024 5.30148 34.6584C5.30148 34.6145 5.3232 34.5852 5.36662 34.5706L11.3059 31.2861C11.5304 31.1543 11.6425 30.9969 11.6425 30.8138V29.4627C11.6425 29.2797 11.5829 29.1478 11.4634 29.0672ZM42.741 30.8808C43.5085 30.8808 44.1145 31.1059 44.5597 31.5564C45.005 32.0067 45.2493 32.5321 45.2928 33.1326C45.3215 33.594 45.3363 34.1176 45.3363 34.7034C45.3363 35.2893 45.3215 35.8129 45.2928 36.2742C45.2493 36.8747 45.005 37.4001 44.5597 37.8505C44.1145 38.3009 43.5085 38.526 42.741 38.526C41.9738 38.526 41.3657 38.3009 40.917 37.8505C40.468 37.4001 40.222 36.8747 40.1785 36.2742C40.1495 35.8129 40.1353 35.2893 40.1353 34.7034C40.1353 34.1176 40.1495 33.594 40.1785 33.1326C40.222 32.5321 40.468 32.0067 40.917 31.5564C41.3657 31.1059 41.9738 30.8808 42.741 30.8808ZM54.5225 30.8808C55.2897 30.8808 55.896 31.1059 56.3413 31.5564C56.7863 32.0067 57.0305 32.5321 57.074 33.1326C57.103 33.594 57.1175 34.1176 57.1175 34.7034C57.1175 35.2893 57.103 35.8129 57.074 36.2742C57.0305 36.8747 56.7863 37.4001 56.3413 37.8505C55.896 38.3009 55.2897 38.526 54.5225 38.526C53.7552 38.526 53.147 38.3009 52.6982 37.8505C52.2495 37.4001 52.0033 36.8747 51.96 36.2742C51.931 35.8129 51.9165 35.2893 51.9165 34.7034C51.9165 34.1176 51.931 33.594 51.96 33.1326C52.0033 32.5321 52.2495 32.0067 52.6982 31.5564C53.147 31.1059 53.7552 30.8808 54.5225 30.8808ZM66.6513 30.8808C67.3533 30.8808 67.9487 31.095 68.4372 31.5234C68.926 31.9518 69.1702 32.5541 69.1702 33.3304C69.163 33.4841 69.087 33.561 68.9423 33.561H64.3167C64.172 33.5537 64.0995 33.4768 64.0995 33.3304C64.0995 32.6419 64.333 32.0616 64.8 31.5893C65.2668 31.1169 65.8838 30.8808 66.6513 30.8808ZM19.7539 26.7176C20.1086 26.7176 20.4379 26.7854 20.7419 26.9208C21.046 27.0563 21.3174 27.2431 21.5562 27.481C21.7952 27.719 21.9798 27.9918 22.1101 28.2994C22.2403 28.607 22.3055 28.9402 22.3055 29.299C22.3055 29.6652 22.2367 30.0057 22.0992 30.3205C21.9617 30.6355 21.7771 30.9083 21.5454 31.1389C21.3138 31.3696 21.0423 31.5527 20.7311 31.6881C20.4198 31.8236 20.0941 31.8913 19.7539 31.8913H17.6366C17.4918 31.8913 17.4194 31.8182 17.4194 31.6717V26.9373C17.4194 26.7908 17.4918 26.7176 17.6366 26.7176H19.7539ZM32.4255 24.4218H30.9163C30.8078 24.4218 30.7208 24.4603 30.6558 24.5372C30.5905 24.6141 30.558 24.6965 30.558 24.7843V26.3332C30.558 26.5748 30.6775 26.6957 30.9163 26.6957H32.4255C32.6645 26.6957 32.784 26.5748 32.784 26.3332V24.7843C32.784 24.6965 32.7495 24.6141 32.6808 24.5372C32.612 24.4603 32.527 24.4218 32.4255 24.4218Z" fill="#FF5600"/>
<path d="M103.979 23.1982L106.337 29.8844H106.43L108.788 23.1982H109.796L106.88 31.141H105.887L102.971 23.1982H103.979ZM111.143 31.141V23.1982H115.936V24.0515H112.105V26.7352H115.688V27.5885H112.105V30.2878H115.998V31.141H111.143ZM124.078 23.1982V31.141H123.147L118.818 24.9047H118.741V31.141H117.779V23.1982H118.71L123.053 29.4501H123.131V23.1982H124.078ZM125.677 24.0515V23.1982H131.634V24.0515H129.136V31.141H128.175V24.0515H125.677ZM138.44 23.1982H139.402V28.4572C139.402 29.0002 139.274 29.485 139.018 29.9116C138.764 30.3356 138.406 30.6705 137.944 30.916C137.481 31.1591 136.938 31.2807 136.315 31.2807C135.692 31.2807 135.149 31.1591 134.686 30.916C134.223 30.6705 133.864 30.3356 133.608 29.9116C133.354 29.485 133.228 29.0002 133.228 28.4572V23.1982H134.189V28.3797C134.189 28.7675 134.275 29.1127 134.446 29.4151C134.616 29.7151 134.859 29.9517 135.174 30.1249C135.493 30.2956 135.873 30.3809 136.315 30.3809C136.757 30.3809 137.137 30.2956 137.455 30.1249C137.773 29.9517 138.016 29.7151 138.184 29.4151C138.355 29.1127 138.44 28.7675 138.44 28.3797V23.1982ZM141.431 31.141V23.1982H144.116C144.736 23.1982 145.245 23.3042 145.644 23.5163C146.042 23.7257 146.337 24.014 146.528 24.3811C146.719 24.7483 146.815 25.1658 146.815 25.6338C146.815 26.1018 146.719 26.5168 146.528 26.8787C146.337 27.2407 146.043 27.5251 145.648 27.732C145.252 27.9362 144.747 28.0384 144.131 28.0384H141.96V27.1696H144.1C144.524 27.1696 144.865 27.1076 145.124 26.9834C145.385 26.8593 145.574 26.6835 145.69 26.456C145.809 26.2259 145.869 25.9518 145.869 25.6338C145.869 25.3158 145.809 25.0378 145.69 24.8C145.571 24.5621 145.381 24.3785 145.12 24.2492C144.859 24.1174 144.514 24.0515 144.085 24.0515H142.393V31.141H141.431ZM145.17 27.573L147.125 31.141H146.008L144.085 27.573H145.17ZM148.527 31.141V23.1982H153.32V24.0515H149.489V26.7352H153.072V27.5885H149.489V30.2878H153.383V31.141H148.527ZM107.997 36.8853C107.95 36.4923 107.762 36.1873 107.43 35.97C107.1 35.7528 106.694 35.6442 106.213 35.6442C105.861 35.6442 105.553 35.7011 105.29 35.8149C105.028 35.9287 104.824 36.0851 104.677 36.2842C104.532 36.4832 104.46 36.7095 104.46 36.9629C104.46 37.1749 104.51 37.3572 104.611 37.5098C104.715 37.6597 104.847 37.7851 105.007 37.8859C105.167 37.9842 105.335 38.0657 105.511 38.1303C105.687 38.1924 105.848 38.2427 105.996 38.2815L106.802 38.4987C107.009 38.553 107.239 38.6279 107.493 38.7236C107.749 38.8193 107.993 38.9499 108.225 39.1154C108.461 39.2782 108.655 39.4877 108.807 39.7436C108.96 39.9996 109.037 40.3137 109.037 40.6861C109.037 41.1153 108.923 41.503 108.699 41.8496C108.476 42.196 108.15 42.4714 107.721 42.6756C107.295 42.8799 106.777 42.982 106.167 42.982C105.597 42.982 105.105 42.8902 104.688 42.7066C104.275 42.5231 103.949 42.2671 103.712 41.9387C103.476 41.6104 103.343 41.229 103.311 40.7946H104.305C104.33 41.0946 104.432 41.3428 104.607 41.5392C104.786 41.7332 105.011 41.878 105.282 41.9737C105.556 42.0667 105.851 42.1133 106.167 42.1133C106.533 42.1133 106.863 42.0538 107.155 41.9348C107.448 41.8134 107.678 41.6453 107.849 41.4307C108.02 41.2135 108.105 40.9601 108.105 40.6705C108.105 40.4068 108.032 40.1922 107.884 40.0267C107.737 39.8613 107.543 39.7268 107.302 39.6234C107.062 39.52 106.802 39.4295 106.523 39.3519L105.546 39.0727C104.925 38.8943 104.434 38.6396 104.072 38.3086C103.71 37.9777 103.529 37.5446 103.529 37.0094C103.529 36.5647 103.649 36.1769 103.89 35.8459C104.133 35.5124 104.458 35.2539 104.867 35.0702C105.278 34.8841 105.737 34.791 106.244 34.791C106.756 34.791 107.211 34.8828 107.609 35.0664C108.007 35.2474 108.323 35.4956 108.555 35.811C108.791 36.1265 108.915 36.4845 108.927 36.8853H107.997ZM110.293 35.7528V34.8996H116.249V35.7528H113.752V42.8424H112.79V35.7528H110.293ZM123.056 34.8996H124.017V40.1586C124.017 40.7016 123.89 41.1863 123.634 41.613C123.38 42.037 123.022 42.3719 122.559 42.6174C122.096 42.8605 121.553 42.982 120.93 42.982C120.307 42.982 119.764 42.8605 119.301 42.6174C118.838 42.3719 118.479 42.037 118.223 41.613C117.97 41.1863 117.843 40.7016 117.843 40.1586V34.8996H118.805V40.081C118.805 40.4689 118.89 40.8141 119.061 41.1165C119.232 41.4165 119.474 41.6531 119.79 41.8263C120.108 41.9969 120.488 42.0823 120.93 42.0823C121.372 42.0823 121.752 41.9969 122.07 41.8263C122.389 41.6531 122.631 41.4165 122.8 41.1165C122.971 40.8141 123.056 40.4689 123.056 40.081V34.8996ZM128.498 42.8424H126.047V34.8996H128.607C129.377 34.8996 130.037 35.0586 130.585 35.3767C131.133 35.6921 131.553 36.1458 131.846 36.7379C132.137 37.3274 132.283 38.0333 132.283 38.8555C132.283 39.6829 132.136 40.3952 131.842 40.9925C131.547 41.5872 131.118 42.0448 130.554 42.3654C129.991 42.6834 129.305 42.8424 128.498 42.8424ZM127.009 41.9891H128.437C129.093 41.9891 129.637 41.8624 130.069 41.6091C130.501 41.3557 130.823 40.9951 131.035 40.5271C131.247 40.0591 131.353 39.5019 131.353 38.8555C131.353 38.2142 131.248 37.6623 131.039 37.1994C130.829 36.734 130.516 36.3773 130.1 36.1291C129.684 35.8783 129.165 35.7528 128.545 35.7528H127.009V41.9891ZM134.968 34.8996V42.8424H134.007V34.8996H134.968ZM143.708 38.871C143.708 39.7087 143.556 40.4327 143.254 41.0429C142.951 41.6531 142.536 42.1236 142.009 42.4545C141.481 42.7855 140.879 42.951 140.201 42.951C139.524 42.951 138.922 42.7855 138.394 42.4545C137.866 42.1236 137.451 41.6531 137.15 41.0429C136.847 40.4327 136.696 39.7087 136.696 38.871C136.696 38.0333 136.847 37.3094 137.15 36.6992C137.451 36.089 137.866 35.6184 138.394 35.2874C138.922 34.9565 139.524 34.791 140.201 34.791C140.879 34.791 141.481 34.9565 142.009 35.2874C142.536 35.6184 142.951 36.089 143.254 36.6992C143.556 37.3094 143.708 38.0333 143.708 38.871ZM142.776 38.871C142.776 38.1833 142.662 37.6028 142.432 37.1296C142.204 36.6565 141.895 36.2984 141.505 36.0554C141.117 35.8124 140.683 35.6908 140.201 35.6908C139.721 35.6908 139.285 35.8124 138.895 36.0554C138.507 36.2984 138.198 36.6565 137.968 37.1296C137.74 37.6028 137.626 38.1833 137.626 38.871C137.626 39.5588 137.74 40.1392 137.968 40.6124C138.198 41.0856 138.507 41.4436 138.895 41.6867C139.285 41.9297 139.721 42.0512 140.201 42.0512C140.683 42.0512 141.117 41.9297 141.505 41.6867C141.895 41.4436 142.204 41.0856 142.432 40.6124C142.662 40.1392 142.776 39.5588 142.776 38.871Z" fill="#1A2832"/>
</g>
<defs>
<clipPath id="clip0_204_360">
<rect width="168.5" height="23.5" fill="white" transform="translate(0.5 21)"/>
</clipPath>
</defs>
</svg>
