<svg width="68" height="228" viewBox="0 0 68 228" fill="none" xmlns="http://www.w3.org/2000/svg">
<path d="M378 135.888C378 111.47 358.175 91.6722 333.72 91.6722C326.738 91.6722 320.161 93.33 314.29 96.2036C314.985 92.641 315.359 88.9655 315.359 85.2007C315.359 53.6314 289.734 28.042 258.12 28.042C242.526 28.042 228.398 34.276 218.072 44.3758C204.71 18.0527 177.375 0 145.802 0C104.218 0 69.9738 31.2965 65.3489 71.583C61.3622 70.6236 57.2036 70.1015 52.9201 70.1015C23.692 70.1015 0 93.7627 0 122.948C0 146.907 21.5985 167.166 47.5205 167.166C43.1994 190.893 65.7422 220.482 92.8816 220.482C107.074 220.482 120.028 214.965 129.916 205.886C135.954 218.958 148.717 228 163.531 228C179.942 228 193.845 216.92 198.861 201.541C204.812 206.968 212.707 210.305 221.399 210.305C233.07 210.305 243.334 204.334 249.325 195.295C259.003 205.844 272.906 212.461 288.361 212.461C310.376 212.461 326.158 193.049 326.158 171.481C352.08 177.95 378 159.131 378 135.888Z" fill="white" fill-opacity="0.56"/>
</svg>
