<svg width="187" height="278" viewBox="0 0 187 278" fill="none" xmlns="http://www.w3.org/2000/svg">
<path d="M139.055 112.038C131.571 112.038 124.518 113.794 118.208 116.839C109.27 104.897 95.9624 96.4341 80.614 93.7953C72.86 69.9594 50.4127 52.7133 23.8944 52.7133C12.7735 52.7133 2.3989 55.7971 -6.51222 61.0745C-20.9675 25.1992 -54.9824 0 -94.6457 0C-147.424 0 -190.207 44.6075 -190.207 99.6317C-190.207 103.66 -189.951 107.624 -189.506 111.526C-190.682 111.441 -191.857 111.347 -193.055 111.347C-219.534 111.347 -241 132.725 -241 159.096C-241 185.087 -220.136 206.187 -194.183 206.792C-195.064 214.306 -194.01 221.982 -190.722 229.167C-180.231 252.081 -151.023 261.257 -125.483 249.659C-120.36 247.331 -115.805 244.322 -111.829 240.853C-102.23 246.043 -91.0213 249.087 -78.9942 249.087C-78.339 249.087 -77.7067 249.016 -77.0581 249C-61.7749 266.795 -39.5818 278 -14.866 278C15.1659 278 41.482 261.455 56.1851 236.639C64.8517 245.597 76.7712 251.139 89.9391 251.139C114.365 251.139 134.482 232.082 137.464 207.46C137.995 207.476 138.517 207.537 139.055 207.537C165.534 207.537 187 186.159 187 159.788C187 133.417 165.534 112.038 139.055 112.038Z" fill="white" fill-opacity="0.4"/>
</svg>
