<svg width="251" height="311" viewBox="0 0 251 311" fill="none" xmlns="http://www.w3.org/2000/svg">
<path d="M196.078 110.967C191.276 110.967 186.646 111.646 182.207 112.806C174.657 66.7125 134.378 31.527 85.7958 31.527C57.9836 31.527 32.9044 43.0728 15.1134 61.5804C2.62045 47.8985 -15.3162 39.2615 -35.3175 39.2615C-48.2398 39.2615 -60.2809 42.9088 -70.5859 49.1366C-90.3595 19.4443 -123.223 0 -160.452 0C-212.537 0 -256.098 38.0495 -267.168 89.0093C-272.545 87.8425 -278.115 87.2089 -283.839 87.2089C-327.008 87.2089 -362 122.163 -362 165.28C-362 208.393 -327.008 243.345 -283.839 243.345C-274.128 243.345 -264.842 241.566 -256.266 238.337C-256.146 278.486 -219.948 311 -175.301 311C-145.569 311 -119.594 296.573 -105.511 275.08C-88.4666 291.557 -65.6836 301.633 -40.638 301.633C-8.83078 301.633 19.3324 285.377 36.7164 260.391C50.2286 276.069 69.7895 285.928 91.5606 285.928C131.518 285.928 164.035 252.728 165.312 211.269C174.086 217.214 184.675 220.682 196.078 220.682C226.41 220.682 251 196.122 251 165.824C251 135.529 226.41 110.967 196.078 110.967Z" fill="white" fill-opacity="0.4"/>
</svg>
