<svg width="410" height="368" viewBox="0 0 410 368" fill="none" xmlns="http://www.w3.org/2000/svg">
<path d="M544 182.385C544 145.835 514.455 116.21 478.012 116.21C466.927 116.21 456.499 118.982 447.327 123.825C446.228 89.1337 417.911 61.3322 383.053 61.3322C372.257 61.3322 362.097 64.0276 353.157 68.742C341.148 28.9628 304.318 0 260.733 0C214.28 0 175.502 32.8959 166.266 76.7236C155.698 69.1011 142.769 64.5611 128.756 64.5611C93.2018 64.5611 64.3787 93.4645 64.3787 129.122C64.3787 140.891 67.5692 151.889 73.0522 161.391C68.7073 160.376 64.202 159.79 59.5501 159.79C26.6604 159.79 0 186.525 0 219.508C0 252.491 26.6604 279.229 59.5501 279.229C67.3084 279.229 74.7 277.695 81.4966 274.989C88.5088 327.548 131.483 368 183.48 368C220.625 368 253.171 347.35 271.293 316.393C280.421 328.137 294.628 335.721 310.626 335.721C322.298 335.721 333.008 331.669 341.506 324.936C355.96 341.433 377.139 351.859 400.758 351.859C444.312 351.859 479.618 316.452 479.618 272.771C479.618 264.284 478.273 256.114 475.804 248.45C476.545 248.474 477.268 248.561 478.012 248.561C514.455 248.561 544 218.932 544 182.385Z" fill="white" fill-opacity="0.4"/>
</svg>
