<svg width="287" height="172" viewBox="0 0 287 172" fill="none" xmlns="http://www.w3.org/2000/svg">
<path d="M250.408 65.3661C247.86 65.3661 245.375 65.6271 242.975 66.1199C237.764 55.572 226.892 48.2913 214.288 48.2913C213.8 48.2913 213.323 48.3442 212.84 48.3643C210.731 31.3734 194.676 18.159 175.172 18.159C166.082 18.159 157.741 21.0318 151.21 25.8157C140.193 10.1664 122.427 0 102.379 0C70.5897 0 44.5417 25.5437 42.0506 58.0105C39.7923 57.5578 37.4606 57.3151 35.0703 57.3151C15.7021 57.3151 0 72.948 0 92.2331C0 110.6 14.2503 125.623 32.339 127.014C36.1719 148.17 54.8564 164.232 77.3464 164.232C90.3685 164.232 102.109 158.84 110.441 150.202C116.292 156.588 124.689 160.62 134.052 160.62C141.117 160.62 147.624 158.313 152.918 154.451C162.294 165.228 175.835 172 190.896 172C213.173 172 232.125 157.178 239.186 136.48C242.724 137.613 246.491 138.241 250.408 138.241C270.618 138.241 287 121.927 287 101.804C287 81.6779 270.618 65.3661 250.408 65.3661Z" fill="white" fill-opacity="0.56"/>
</svg>
