<svg width="391" height="297" viewBox="0 0 391 297" fill="none" xmlns="http://www.w3.org/2000/svg">
<path d="M495.492 81.6264C488.424 81.6264 481.655 82.8537 475.318 85.0155C475.542 82.597 475.671 80.1523 475.671 77.6778C475.671 34.7769 440.863 0 397.919 0C365.012 0 336.897 20.4337 325.547 49.2844C314.997 39.5216 300.923 33.5067 285.41 33.5067C267.083 33.5067 250.71 41.8382 239.861 54.9046C227.378 26.2578 199.773 6.33084 167.706 6.33084C124.824 6.33084 89.9169 41.9435 88.494 86.4272C80.5736 82.8011 71.7926 80.7248 62.5083 80.7248C27.985 80.7248 0 108.681 0 143.168C0 177.165 27.2001 204.752 61.0354 205.545C59.8849 215.374 61.2656 225.416 65.5514 234.807C79.2278 264.777 117.307 276.774 150.603 261.608C157.256 258.577 163.201 254.681 168.366 250.164C180.882 256.952 195.541 260.861 211.216 260.861C223.438 260.861 235.032 258.469 245.487 254.204C261.072 279.919 288.506 297 319.77 297C352.068 297 380.278 278.774 395.561 251.631C405.725 259.114 418.087 263.543 431.459 263.543C463.306 263.543 489.53 238.617 493.417 206.417C494.112 206.44 494.79 206.519 495.492 206.519C530.013 206.519 558 178.563 558 144.076C558 109.585 530.013 81.6264 495.492 81.6264Z" fill="white" fill-opacity="0.4"/>
</svg>
