<svg width="40" height="32" viewBox="0 0 40 32" fill="none" xmlns="http://www.w3.org/2000/svg">
<rect width="40" height="32" rx="8" fill="white" fill-opacity="0.8"/>
<path d="M20.0264 28H19.9736C13.3714 28 8 22.6286 8 16.0264V15.9736C8 9.37142 13.3714 4 19.9736 4H20.0264C26.6286 4 32 9.37142 32 15.9736V16.0264C32 22.6286 26.6286 28 20.0264 28ZM19.9736 4.81238C13.819 4.81238 8.81238 9.81904 8.81238 15.9736V16.0264C8.81238 22.181 13.819 27.1876 19.9736 27.1876H20.0264C26.181 27.1876 31.1876 22.181 31.1876 16.0264V15.9736C31.1876 9.81904 26.181 4.81238 20.0264 4.81238H19.9736Z" fill="#C4865D" fill-opacity="0.88"/>
<path d="M25.6056 12.7954V14.9847C25.223 14.9474 24.7258 14.8604 24.1758 14.659C23.4577 14.3958 22.9231 14.0359 22.573 13.7572V18.1823L22.5641 18.1684C22.5697 18.2562 22.573 18.3455 22.573 18.4357C22.573 20.6332 20.785 22.422 18.5867 22.422C16.3884 22.422 14.6003 20.6332 14.6003 18.4357C14.6003 16.2382 16.3884 14.4486 18.5867 14.4486C18.8019 14.4486 19.0132 14.4656 19.2195 14.4989V16.6566C19.0213 16.5859 18.8084 16.5477 18.5867 16.5477C17.546 16.5477 16.6987 17.3942 16.6987 18.4357C16.6987 19.4772 17.546 20.3237 18.5867 20.3237C19.6273 20.3237 20.4746 19.4764 20.4746 18.4357C20.4746 18.3967 20.4738 18.3577 20.4714 18.3187V9.71973H22.6591C22.6672 9.90495 22.6745 10.0918 22.6827 10.277C22.6973 10.6418 22.8273 10.9919 23.0539 11.2787C23.3196 11.6158 23.7119 12.0074 24.2627 12.3201C24.7786 12.6118 25.2628 12.7377 25.6056 12.797V12.7954Z" fill="#C4865D" fill-opacity="0.88"/>
</svg>
