<svg width="56" height="44" viewBox="0 0 56 44" fill="none" xmlns="http://www.w3.org/2000/svg">
<rect width="56" height="44" rx="8" fill="#C4865D" fill-opacity="0.8"/>
<g clip-path="url(#clip0_2431_1257)">
<path fill-rule="evenodd" clip-rule="evenodd" d="M27 10.5C27 9.39543 27.8954 8.5 29 8.5H32C33.1343 8.5 33.9244 9.40419 34.0611 10.3543C34.2446 11.6298 34.8355 12.8208 35.7574 13.7426C36.6792 14.6645 37.8702 15.2554 39.1457 15.4389C40.0958 15.5756 41 16.3657 41 17.5V20.5007C41 21.5803 40.1078 22.5541 38.9192 22.4557C37.283 22.3201 35.6901 21.8757 34.2245 21.1494C34.1801 21.1274 34.1098 21.1242 34.0437 21.1607C34.0146 21.1768 34.0026 21.1924 34 21.1964C33.9999 21.1967 34 21.1939 34 21.1991V25.4995C34 25.4994 34 25.4997 34 25.4995C34.0008 27.3068 33.486 29.0772 32.5162 30.6022C31.5463 32.1273 30.1614 33.3441 28.5242 34.1097C26.8869 34.8753 25.0652 35.158 23.273 34.9245C21.4807 34.6911 19.7922 33.9512 18.4057 32.7917C17.0192 31.6323 15.9922 30.1014 15.4453 28.3787C14.8984 26.656 14.8543 24.813 15.3181 23.0662C15.782 21.3193 16.7345 19.741 18.0639 18.5165C19.0644 17.5949 20.2472 16.9026 21.5295 16.4805C22.8688 16.0396 24 17.1386 24 18.3327V21.705C24 22.5045 23.5305 23.1175 23.0401 23.4703C22.8016 23.6419 22.5943 23.8548 22.4285 24.1001C22.178 24.4708 22.0316 24.902 22.0046 25.3485C21.9775 25.7951 22.0708 26.2408 22.2747 26.639C22.4785 27.0372 22.7855 27.3735 23.1636 27.6126C23.5417 27.8518 23.9771 27.9851 24.4243 27.9986C24.8714 28.0122 25.3141 27.9055 25.706 27.6897C26.0979 27.4739 26.4247 27.1568 26.6523 26.7717C26.8799 26.3865 27 25.9474 27 25.5C27 25.5 27 25.5 27 25.5V10.5ZM32 10.5H29V25.5C28.9999 26.3053 28.7838 27.0959 28.3741 27.7892C27.9644 28.4825 27.3762 29.0531 26.6707 29.4416C25.9653 29.8301 25.1686 30.0221 24.3637 29.9977C23.5588 29.9733 22.7751 29.7334 22.0945 29.3029C21.4139 28.8724 20.8613 28.2672 20.4944 27.5504C20.1274 26.8335 19.9595 26.0314 20.0082 25.2276C20.057 24.4237 20.3205 23.6477 20.7713 22.9804C21.0697 22.5388 21.4429 22.1556 21.8721 21.8468C21.9318 21.8038 21.9688 21.7598 21.9873 21.729C21.9959 21.7146 21.999 21.7059 22 21.7022V18.433C21.0473 18.7699 20.1683 19.2973 19.4189 19.9876C18.3693 20.9543 17.6173 22.2003 17.2512 23.5794C16.885 24.9585 16.9198 26.4135 17.3516 27.7735C17.7833 29.1335 18.5941 30.3421 19.6887 31.2575C20.7833 32.1729 22.1163 32.757 23.5313 32.9413C24.9462 33.1256 26.3844 32.9024 27.677 32.298C28.9695 31.6936 30.0628 30.7329 30.8286 29.5289C31.5943 28.3249 32.0007 26.9274 32 25.5005V21.1991C32 20.3726 32.484 19.7371 33.0775 19.4096C33.6632 19.0864 34.4271 19.0177 35.1126 19.3574C36.3273 19.9594 37.6454 20.3325 39 20.4552V17.5C38.9992 17.498 38.9952 17.4896 38.9842 17.4781C38.9597 17.4526 38.9156 17.4264 38.861 17.4185C37.1604 17.1739 35.5724 16.3861 34.3431 15.1569C33.1139 13.9276 32.3261 12.3396 32.0815 10.639C32.0736 10.5844 32.0474 10.5403 32.0219 10.5158C32.0104 10.5048 32.002 10.5008 32 10.5Z" fill="white" fill-opacity="0.88"/>
</g>
<defs>
<clipPath id="clip0_2431_1257">
<rect width="32" height="32" fill="white" transform="translate(12 6)"/>
</clipPath>
</defs>
</svg>
