<svg width="56" height="44" viewBox="0 0 56 44" fill="none" xmlns="http://www.w3.org/2000/svg">
<rect width="56" height="44" rx="8" fill="#C4865D" fill-opacity="0.8"/>
<path d="M28.0352 38H27.9648C19.1619 38 12 30.8381 12 22.0352V21.9648C12 13.1619 19.1619 6 27.9648 6H28.0352C36.8381 6 44 13.1619 44 21.9648V22.0352C44 30.8381 36.8381 38 28.0352 38ZM27.9648 7.08317C19.7587 7.08317 13.0832 13.7587 13.0832 21.9648V22.0352C13.0832 30.2413 19.7587 36.9168 27.9648 36.9168H28.0352C36.2413 36.9168 42.9168 30.2413 42.9168 22.0352V21.9648C42.9168 13.7587 36.2413 7.08317 28.0352 7.08317H27.9648Z" fill="white"/>
<path d="M35.4742 17.7271V20.6462C34.964 20.5964 34.3011 20.4805 33.5678 20.2119C32.6103 19.8609 31.8976 19.3811 31.4307 19.0096V24.9096L31.4188 24.8912C31.4264 25.0081 31.4307 25.1273 31.4307 25.2475C31.4307 28.1775 29.0467 30.5626 26.1156 30.5626C23.1846 30.5626 20.8005 28.1775 20.8005 25.2475C20.8005 22.3176 23.1846 19.9314 26.1156 19.9314C26.4027 19.9314 26.6843 19.9541 26.9594 19.9985V22.8754C26.6951 22.7812 26.4113 22.7302 26.1156 22.7302C24.7281 22.7302 23.5984 23.8589 23.5984 25.2475C23.5984 26.6361 24.7281 27.7648 26.1156 27.7648C27.5032 27.7648 28.6329 26.6351 28.6329 25.2475C28.6329 25.1955 28.6318 25.1435 28.6286 25.0916V13.6262H31.5456C31.5564 13.8732 31.5661 14.1223 31.577 14.3693C31.5965 14.8556 31.7698 15.3225 32.072 15.7048C32.4262 16.1544 32.9493 16.6764 33.6837 17.0934C34.3715 17.4823 35.0171 17.6502 35.4742 17.7293V17.7271Z" fill="white"/>
</svg>
