<svg width="830" height="498" viewBox="0 0 830 498" fill="none" xmlns="http://www.w3.org/2000/svg">
<path d="M724.177 189.258C716.809 189.258 709.62 190.013 702.681 191.44C687.61 160.9 656.168 139.82 619.717 139.82C618.307 139.82 616.928 139.973 615.529 140.031C609.432 90.8371 562.999 52.5765 506.594 52.5765C480.306 52.5765 456.185 60.8945 437.297 74.7455C405.437 29.4352 354.057 3.05176e-05 296.078 3.05176e-05C204.144 3.05176e-05 128.814 73.958 121.61 167.961C115.079 166.65 108.336 165.947 101.423 165.947C45.4102 165.947 0 211.21 0 267.047C0 320.226 41.2116 363.723 93.5239 367.75C104.609 429.004 158.644 475.509 223.685 475.509C261.344 475.509 295.299 459.898 319.393 434.886C336.314 453.377 360.599 465.051 387.678 465.051C408.108 465.051 426.928 458.371 442.238 447.189C469.353 478.394 508.513 498 552.068 498C616.494 498 671.303 455.084 691.723 395.156C701.955 398.438 712.849 400.256 724.177 400.256C782.623 400.256 830 353.022 830 294.759C830 236.486 782.623 189.258 724.177 189.258Z" fill="white" fill-opacity="0.56"/>
</svg>
