<svg width="428" height="278" viewBox="0 0 428 278" fill="none" xmlns="http://www.w3.org/2000/svg">
<path d="M380.055 112.038C372.571 112.038 365.518 113.794 359.208 116.839C350.27 104.897 336.962 96.4341 321.614 93.7953C313.86 69.9594 291.413 52.7133 264.894 52.7133C253.773 52.7133 243.399 55.7971 234.488 61.0745C220.032 25.1992 186.018 0 146.354 0C93.576 0 50.7928 44.6075 50.7928 99.6317C50.7928 103.66 51.0486 107.624 51.4942 111.526C50.3179 111.441 49.1425 111.347 47.9447 111.347C21.4659 111.347 0 132.725 0 159.096C0 185.087 20.8639 206.187 46.8166 206.792C45.9356 214.306 46.9897 221.982 50.2784 229.167C60.7694 252.081 89.9766 261.257 115.517 249.659C120.64 247.331 125.195 244.322 129.171 240.853C138.77 246.043 149.979 249.087 162.006 249.087C162.661 249.087 163.293 249.016 163.942 249C179.225 266.795 201.418 278 226.134 278C256.166 278 282.482 261.455 297.185 236.639C305.852 245.597 317.771 251.139 330.939 251.139C355.365 251.139 375.482 232.082 378.464 207.46C378.995 207.476 379.517 207.537 380.055 207.537C406.534 207.537 428 186.159 428 159.788C428 133.417 406.534 112.038 380.055 112.038Z" fill="white" fill-opacity="0.4"/>
</svg>
