<svg width="40" height="32" viewBox="0 0 40 32" fill="none" xmlns="http://www.w3.org/2000/svg">
<rect width="40" height="32" rx="8" fill="white" fill-opacity="0.8"/>
<path d="M20.0264 28H19.9736C13.3714 28 8 22.6286 8 16.0264V15.9736C8 9.37142 13.3714 4 19.9736 4H20.0264C26.6286 4 32 9.37142 32 15.9736V16.0264C32 22.6286 26.6286 28 20.0264 28ZM19.9736 4.81238C13.819 4.81238 8.81238 9.81904 8.81238 15.9736V16.0264C8.81238 22.181 13.819 27.1876 19.9736 27.1876H20.0264C26.181 27.1876 31.1876 22.181 31.1876 16.0264V15.9736C31.1876 9.81904 26.181 4.81238 20.0264 4.81238H19.9736Z" fill="#C4865D" fill-opacity="0.88"/>
<path d="M13.1085 9.65527L18.4556 16.8042L13.0752 22.6167H14.2864L18.9974 17.528L22.8034 22.6167H26.9246L21.2769 15.0657L26.2852 9.65527H25.074L20.7359 14.3419L17.2305 9.65527H13.1093H13.1085ZM14.8892 10.5473H16.7821L25.1422 21.7247H23.2494L14.8892 10.5473Z" fill="#C4865D" fill-opacity="0.88"/>
</svg>
