<svg width="56" height="44" viewBox="0 0 56 44" fill="none" xmlns="http://www.w3.org/2000/svg">
<rect width="56" height="44" rx="8" fill="#C4865D" fill-opacity="0.8"/>
<path d="M28.0352 38H27.9648C19.1619 38 12 30.8381 12 22.0352V21.9648C12 13.1619 19.1619 6 27.9648 6H28.0352C36.8381 6 44 13.1619 44 21.9648V22.0352C44 30.8381 36.8381 38 28.0352 38ZM27.9648 7.08317C19.7587 7.08317 13.0832 13.7587 13.0832 21.9648V22.0352C13.0832 30.2413 19.7587 36.9168 27.9648 36.9168H28.0352C36.2413 36.9168 42.9168 30.2413 42.9168 22.0352V21.9648C42.9168 13.7587 36.2413 7.08317 28.0352 7.08317H27.9648Z" fill="white"/>
<path d="M18.8113 13.5403L25.9407 23.0722L18.7668 30.8222H20.3819L26.6631 24.0373L31.7378 30.8222H37.2327L29.7025 20.7542L36.3802 13.5403H34.7652L28.9811 19.7891L24.3072 13.5403H18.8123H18.8113ZM21.1856 14.7296H23.7093L34.8562 29.6329H32.3324L21.1856 14.7296Z" fill="white"/>
</svg>
