<svg width="40" height="32" viewBox="0 0 40 32" fill="none" xmlns="http://www.w3.org/2000/svg">
<rect width="40" height="32" rx="8" fill="white" fill-opacity="0.8"/>
<path d="M20 28C13.3829 28 8 22.6171 8 16C8 9.38294 13.3829 4 20 4C26.6171 4 32 9.38294 32 16C32 22.6171 26.6171 28 20 28ZM20 4.81461C13.8326 4.81461 8.81461 9.8326 8.81461 16C8.81461 22.1674 13.8326 27.1854 20 27.1854C26.1674 27.1854 31.1854 22.1674 31.1854 16C31.1854 9.8326 26.1674 4.81461 20 4.81461Z" fill="#C4865D" fill-opacity="0.88"/>
<path d="M27.2998 13.5975C27.2085 12.7169 27.0122 11.7435 26.2897 11.2319C25.73 10.8352 24.9944 10.8205 24.3077 10.8213C22.8561 10.8221 21.4036 10.8238 19.952 10.8246C18.5558 10.8262 17.1595 10.827 15.7633 10.8287C15.18 10.8295 14.6131 10.7839 14.0713 11.0364C13.6062 11.2531 13.2421 11.6653 13.0229 12.1239C12.7191 12.7617 12.6556 13.4843 12.6189 14.1897C12.5513 15.4744 12.5586 16.7623 12.6393 18.0461C12.6987 18.9829 12.8494 20.0182 13.5736 20.6154C14.2155 21.144 15.1214 21.1701 15.9539 21.1709C18.5965 21.1734 21.2399 21.1758 23.8833 21.1774C24.2222 21.1783 24.5757 21.1717 24.9211 21.1343C25.6005 21.061 26.2481 20.8663 26.6847 20.3628C27.1254 19.8553 27.2387 19.1491 27.3055 18.4803C27.4684 16.8576 27.4668 15.2194 27.2998 13.5975ZM18.4238 18.2742V13.7246L22.3633 15.999L18.4238 18.2742Z" fill="#C4865D" fill-opacity="0.88"/>
</svg>
