<svg width="56" height="44" viewBox="0 0 56 44" fill="none" xmlns="http://www.w3.org/2000/svg">
<rect width="56" height="44" rx="8" fill="#C4865D" fill-opacity="0.8"/>
<path fill-rule="evenodd" clip-rule="evenodd" d="M25.8486 17.1419C25.5397 16.9565 25.155 16.9517 24.8414 17.1292C24.5279 17.3067 24.3341 17.6391 24.3341 17.9994V25.9994C24.3341 26.3597 24.5279 26.6921 24.8414 26.8696C25.155 27.0471 25.5397 27.0422 25.8486 26.8569L32.5153 22.8569C32.8165 22.6762 33.0008 22.3507 33.0008 21.9994C33.0008 21.6481 32.8165 21.3226 32.5153 21.1419L25.8486 17.1419ZM30.0572 21.9994L26.3341 24.2332V19.7656L30.0572 21.9994Z" fill="white" fill-opacity="0.88"/>
<path fill-rule="evenodd" clip-rule="evenodd" d="M34.7084 12.1878C30.2435 11.8385 25.7582 11.8385 21.2933 12.1878L18.3057 12.4215C16.489 12.5636 15.0027 13.9252 14.7024 15.7226C14.0081 19.8783 14.0081 24.1204 14.7024 28.2761C15.0027 30.0735 16.489 31.4351 18.3057 31.5773L21.2933 31.811C25.7582 32.1603 30.2435 32.1603 34.7084 31.811L37.696 31.5773C39.5127 31.4351 40.999 30.0735 41.2993 28.2761C41.9937 24.1204 41.9937 19.8783 41.2993 15.7226C40.999 13.9252 39.5127 12.5636 37.696 12.4215L34.7084 12.1878ZM21.4493 14.1817C25.8104 13.8405 30.1914 13.8405 34.5524 14.1817L37.54 14.4154C38.4408 14.4859 39.1777 15.161 39.3266 16.0522C39.9845 19.9897 39.9845 24.0091 39.3266 27.9465C39.1777 28.8378 38.4408 29.5129 37.54 29.5834L34.5524 29.8171C30.1914 30.1583 25.8103 30.1583 21.4493 29.8171L18.4617 29.5834C17.5609 29.5129 16.824 28.8378 16.6751 27.9465C16.0172 24.0091 16.0172 19.9897 16.6751 16.0522C16.824 15.161 17.5609 14.4859 18.4617 14.4154L21.4493 14.1817Z" fill="white" fill-opacity="0.88"/>
</svg>
