<svg width="56" height="44" viewBox="0 0 56 44" fill="none" xmlns="http://www.w3.org/2000/svg">
<rect width="56" height="44" rx="8" fill="#C4865D" fill-opacity="0.8"/>
<path d="M28 38C19.1773 38 12 30.8228 12 22C12 13.1772 19.1773 6 28 6C36.8228 6 44 13.1772 44 22C44 30.8228 36.8228 38 28 38ZM28 7.08614C19.7768 7.08614 13.0861 13.7768 13.0861 22C13.0861 30.2232 19.7768 36.9139 28 36.9139C36.2232 36.9139 42.9139 30.2232 42.9139 22C42.9139 13.7768 36.2232 7.08614 28 7.08614Z" fill="white"/>
<path d="M37.7331 18.7968C37.6115 17.6227 37.3497 16.3248 36.3863 15.6427C35.6401 15.1137 34.6593 15.0942 33.7437 15.0953C31.8082 15.0963 29.8716 15.0985 27.9361 15.0996C26.0744 15.1018 24.2128 15.1029 22.3511 15.105C21.5734 15.1061 20.8175 15.0453 20.0952 15.382C19.475 15.6709 18.9895 16.2205 18.6973 16.832C18.2922 17.6824 18.2075 18.6459 18.1586 19.5865C18.0685 21.2993 18.0782 23.0165 18.1858 24.7283C18.2651 25.9774 18.466 27.3578 19.4316 28.154C20.2875 28.8589 21.4952 28.8936 22.6053 28.8947C26.1287 28.898 29.6533 28.9012 33.1778 28.9034C33.6297 28.9045 34.1011 28.8958 34.5616 28.8459C35.4674 28.7481 36.3309 28.4885 36.9131 27.8173C37.5007 27.1406 37.6517 26.1989 37.7407 25.3072C37.958 23.1436 37.9558 20.9594 37.7331 18.7968ZM25.8985 25.0324V18.9663L31.1511 21.9988L25.8985 25.0324Z" fill="white"/>
</svg>
